<?xml version="1.0" standalone="no"?>
<!DOCTYPE svg PUBLIC "-//W3C//DTD SVG 1.1//EN" "http://www.w3.org/Graphics/SVG/1.1/DTD/svg11.dtd" >
<svg>
<metadata>
Created by FontForge 20090914 at Sat Nov 26 13:23:53 2016
 By www-data
Preradio Nikola Kovanovic.
</metadata>
<defs>
<font id="Azbuka04" horiz-adv-x="600" >
  <font-face 
    font-family="Azbuka04"
    font-weight="400"
    font-stretch="normal"
    units-per-em="1000"
    panose-1="2 0 5 0 3 0 0 2 0 4"
    ascent="800"
    descent="-200"
    x-height="502"
    cap-height="686"
    bbox="-99 -187.003 1170 900"
    underline-thickness="50"
    underline-position="-50"
    unicode-range="U+0020-U+2219"
  />
<missing-glyph horiz-adv-x="233" 
 />
    <glyph glyph-name=".notdef" horiz-adv-x="233" 
 />
    <glyph glyph-name="space" unicode=" " horiz-adv-x="233" 
 />
    <glyph glyph-name="space" unicode="&#xa0;" horiz-adv-x="233" 
 />
    <glyph glyph-name="exclam" unicode="!" horiz-adv-x="222" 
d="M105 112l52 -59l-52 -59l-52 59zM138 176l-57 -6l-5 542l67 11z" />
    <glyph glyph-name="quotedbl" unicode="&#x22;" horiz-adv-x="333" 
d="M198 686h58v-271h-58v271zM78 686h58v-271h-58v271z" />
    <glyph glyph-name="numbersign" unicode="#" horiz-adv-x="630" 
d="M270 425l-49 -141h139l49 141h-139zM339 626l-51 -147h139l51 147h60l-51 -147h134l-19 -54h-133l-49 -141h142l-19 -54h-142l-51 -148h-60l51 148h-139l-51 -148h-60l51 148h-133l18 54h134l49 141h-142l19 54h141l51 147h60z" />
    <glyph glyph-name="dollar" unicode="$" horiz-adv-x="510" 
d="M306 101c28.667 1.33301 52.835 10.667 72.502 28s29.5 43 29.5 77c0 6.66699 -0.666992 14.667 -2 24s-4.83301 18.833 -10.5 28.5s-14.334 19 -26.001 28s-27.834 16.167 -48.501 21.5l-15 4v-211zM256.001 585.001c-16 0.666992 -30.3311 -1.5 -42.998 -6.5
s-23.334 -12 -32.001 -21s-15.334 -19.5 -20.001 -31.5s-7 -24.667 -7 -38c0 -18 2.66699 -33 8 -45s12.166 -21.667 20.499 -29s17.833 -13 28.5 -17s21.334 -7.33301 32.001 -10l13 -3v201zM256.003 323.001c-32 6.66699 -58.6689 15.334 -80.002 26.001
s-38.333 23 -51 37s-21.5 29.333 -26.5 46s-7.5 33.667 -7.5 51c0 22.667 4.33301 43.667 13 63s20.334 36 35.001 50s32 25 52 33s41.667 12.667 65 14v66l50 18v-84c20.667 -2.66699 39 -7 55 -13s30 -12.5 42 -19.5s21.833 -14.167 29.5 -21.5s14.167 -14 19.5 -20
l-37 -40c-10 10.667 -24.167 22 -42.5 34s-40.5 19.333 -66.5 22v-212c16.667 -2.66699 34.5 -7.16699 53.5 -13.5s36.833 -15.5 53.5 -27.5s30.5 -27.333 41.5 -46s16.5 -41.667 16.5 -69c0 -25.333 -4.16699 -48.5 -12.5 -69.5s-19.833 -39 -34.5 -54
s-32.167 -26.833 -52.5 -35.5s-42.166 -13.667 -65.499 -15v-100l-50 -11v111c-34 2.66699 -66.167 11.667 -96.5 27s-56.833 37.666 -79.5 66.999l47 40c14 -19.333 32 -36 54 -50s47 -22.667 75 -26v222z" />
    <glyph glyph-name="percent" unicode="%" horiz-adv-x="833" 
d="M336 514c0 16.667 -3.33301 32.502 -10 47.502s-15.5 28.167 -26.5 39.5s-24 20.166 -39 26.499s-30.833 9.5 -47.5 9.5c-17.333 0 -33.333 -3.33301 -48 -10s-27.667 -15.5 -39 -26.5s-20.166 -24 -26.499 -39s-9.5 -30.833 -9.5 -47.5s3.16699 -32.5 9.5 -47.5
s15.166 -28 26.499 -39s24.333 -19.833 39 -26.5s30.667 -10 48 -10c16.667 0 32.5 3.16699 47.5 9.5s28 15.166 39 26.499s19.833 24.333 26.5 39s10 30.667 10 48zM630 686.002l-396.999 -702.001h-49l337 580l-2 2c-15.333 -10 -29.166 -16.833 -41.499 -20.5
s-26.833 -5.5 -43.5 -5.5c-11.333 0 -21.5 1.83301 -30.5 5.5s-17.167 8.16699 -24.5 13.5l-2 -2c2 -5.33301 3.66699 -11 5 -17s2 -14.667 2 -26c0 -23.333 -4.66699 -45.5 -14 -66.5s-21.833 -39.167 -37.5 -54.5s-33.834 -27.5 -54.501 -36.5
s-42.334 -13.5 -65.001 -13.5c-24 0 -46.333 4.5 -67 13.5s-38.667 21.333 -54 37s-27.5 33.834 -36.5 54.501s-13.5 42.667 -13.5 66c0 24 4.5 46.333 13.5 67s21.167 38.667 36.5 54s33.333 27.5 54 36.5s43 13.5 67 13.5c48.667 0 89.667 -17.667 123 -53l4 -3l17.5 -15
c7 -6 14.667 -11.833 23 -17.5s17.833 -10.5 28.5 -14.5s22.667 -6 36 -6c27.333 0 52 10.333 74 31s42 47 60 79h51zM727.001 170.001c0 16.667 -3.33301 32.502 -10 47.502s-15.5 28 -26.5 39s-24 19.833 -39 26.5s-30.833 10 -47.5 10
c-17.333 0 -33.333 -3.33301 -48 -10s-27.667 -15.667 -39 -27s-20.166 -24.333 -26.499 -39s-9.5 -30.334 -9.5 -47.001s3.16699 -32.334 9.5 -47.001s15.166 -27.667 26.499 -39s24.333 -20.333 39 -27s30.667 -10 48 -10c16.667 0 32.5 3.33301 47.5 10s28 15.5 39 26.5
s19.833 24 26.5 39s10 30.833 10 47.5zM433.001 170.003c0 23.333 4.5 45.333 13.5 66s21.167 38.834 36.5 54.501s33.333 28 54 37s43 13.5 67 13.5c23.333 0 45.333 -4.5 66 -13.5s38.834 -21.333 54.501 -37s28 -33.834 37 -54.501s13.5 -42.667 13.5 -66
c0 -24 -4.5 -46.333 -13.5 -67s-21.333 -38.667 -37 -54s-33.834 -27.5 -54.501 -36.5s-42.667 -13.5 -66 -13.5c-24 0 -46.333 4.5 -67 13.5s-38.667 21.167 -54 36.5s-27.5 33.333 -36.5 54s-13.5 43 -13.5 67z" />
    <glyph glyph-name="ampersand" unicode="&#x26;" horiz-adv-x="619" 
d="M258 440c10 7.33301 20.667 16 32 26s21.833 21 31.5 33s17.667 24.833 24 38.5s9.5 27.834 9.5 42.501c0 12 -2.66699 22.167 -8 30.5s-12 15.166 -20 20.499s-16.5 9.16602 -25.5 11.499s-17.167 3.5 -24.5 3.5c-22 0 -41.167 -8 -57.5 -24s-24.5 -40 -24.5 -72
c0 -19.333 4.33301 -39.666 13 -60.999s21 -41 37 -59zM235 344l-42 -40l-29.5 -27.5c-10.333 -9.66699 -19.833 -20.5 -28.5 -32.5s-16 -25.167 -22 -39.5s-9 -29.833 -9 -46.5c0 -17.333 3.5 -32.5 10.5 -45.5s15.667 -23.833 26 -32.5s21.833 -15.167 34.5 -19.5
s24.667 -6.5 36 -6.5c14 0 27.167 2.83301 39.5 8.5s24 12.834 35 21.501s21 17.667 30 27s17.5 17.666 25.5 24.999l38 36zM424 218l118.997 121.001l47 -45l-127 -127l123 -143l-56 -37l-112 135l-36 -36l-37.5 -37c-12.333 -12 -25.166 -22.5 -38.499 -31.5
s-27.666 -16.167 -42.999 -21.5s-32.333 -8 -51 -8c-24.667 0 -47.667 4.33301 -69 13s-39.666 20.667 -54.999 36s-27.5 33.5 -36.5 54.5s-13.5 44.167 -13.5 69.5c0 24 3.5 45 10.5 63s15.833 34.333 26.5 49s22.5 27.834 35.5 39.501s25.167 23.167 36.5 34.5l48 47
c-15.333 18 -27.333 35.167 -36 51.5s-15.167 31.166 -19.5 44.499s-7.16602 25.166 -8.49902 35.499s-2 19.166 -2 26.499c0 22.667 3.83301 43.5 11.5 62.5s18.167 35.333 31.5 49s29.5 24.167 48.5 31.5s39.5 11 61.5 11c21.333 0 40.666 -3.83301 57.999 -11.5
s32 -17.5 44 -29.5s21.167 -25.667 27.5 -41s9.5 -30.666 9.5 -45.999c0 -18 -3.16699 -34.333 -9.5 -49s-14.333 -28.5 -24 -41.5s-20.667 -25.333 -33 -37l-36.5 -34.5l-34 -32z" />
    <glyph glyph-name="quotesingle" unicode="'" horiz-adv-x="222" 
d="M82 686h58v-271h-58v271z" />
    <glyph glyph-name="parenleft" unicode="(" horiz-adv-x="333" 
d="M274 656c-24.667 -17.333 -49.333 -37.8311 -74 -61.498s-47 -51.167 -67 -82.5s-36.167 -66.833 -48.5 -106.5s-18.5 -83.5 -18.5 -131.5c0 -80.667 18.333 -153.334 55 -218.001s89.667 -117.667 159 -159l-24 -44c-37.333 23.333 -71 50.166 -101 80.499
s-55.5 63.5 -76.5 99.5s-37.167 74.5 -48.5 115.5s-17 83.833 -17 128.5c0 46.667 6.16699 91 18.5 133s29.333 81 51 117s47.5 68.667 77.5 98s62.667 55 98 77z" />
    <glyph glyph-name="parenright" unicode=")" horiz-adv-x="333" 
d="M59 -99c24.667 16.667 49.333 36.667 74 60s47 50.666 67 81.999s36.167 66.833 48.5 106.5s18.5 83.5 18.5 131.5c0 80.667 -18.333 153.334 -55 218.001s-89.667 117 -159 157l24 46c44 -26.667 81.5 -57 112.5 -91s56.167 -69.667 75.5 -107s33.333 -75.333 42 -114
s13 -76 13 -112c0 -47.333 -6.16699 -91.833 -18.5 -133.5s-29.333 -80.5 -51 -116.5s-47.5 -68.667 -77.5 -98s-62.667 -55 -98 -77z" />
    <glyph glyph-name="asterisk" unicode="*" horiz-adv-x="444" 
d="M197 556v135l47 11v-147l119 70l34 -36l-136 -74l129 -68l-15 -44l-131 76v-140l-47 -12v152l-120 -71l-30 35l132 76l-125 67l14 44z" />
    <glyph glyph-name="plus" unicode="+" 
d="M271 502h58v-222h222v-58h-222v-222h-58v222h-222v58h222v222z" />
    <glyph glyph-name="comma" unicode="," horiz-adv-x="281" 
d="M133 72l75 11l-103 -267h-54z" />
    <glyph glyph-name="hyphen" unicode="-" horiz-adv-x="333" 
d="M294 224h-255v54h255v-54z" />
    <glyph glyph-name="hyphen" unicode="&#xad;" horiz-adv-x="333" 
d="M294 224h-255v54h255v-54z" />
    <glyph glyph-name="period" unicode="." horiz-adv-x="250" 
d="M125 112l52 -59l-52 -59l-52 59z" />
    <glyph glyph-name="slash" unicode="/" horiz-adv-x="278" 
d="M50 -16h-50l229 718h50z" />
    <glyph glyph-name="zero" unicode="0" horiz-adv-x="594" 
d="M297 640c-28 0 -54.333 -7.16699 -79 -21.5s-46 -34.5 -64 -60.5s-32.167 -57.333 -42.5 -94s-15.5 -77 -15.5 -121s5.16699 -84.333 15.5 -121s24.5 -68 42.5 -94s39.333 -46.167 64 -60.5s51 -21.5 79 -21.5s54.333 7.16699 79 21.5s46 34.5 64 60.5
s32.167 57.333 42.5 94s15.5 77 15.5 121s-5.16699 84.333 -15.5 121s-24.5 68 -42.5 94s-39.333 46.167 -64 60.5s-51 21.5 -79 21.5zM297 702c29.333 0 59.833 -6.5 91.5 -19.5s60.5 -33.667 86.5 -62s47.5 -65.333 64.5 -111s25.5 -101.167 25.5 -166.5
s-8.5 -120.833 -25.5 -166.5s-38.5 -82.834 -64.5 -111.501s-54.833 -49.334 -86.5 -62.001s-62.167 -19 -91.5 -19s-59.833 6.33301 -91.5 19s-60.5 33.334 -86.5 62.001s-47.5 65.834 -64.5 111.501s-25.5 101.167 -25.5 166.5s8.5 120.833 25.5 166.5
s38.5 82.667 64.5 111s54.833 49 86.5 62s62.167 19.5 91.5 19.5z" />
    <glyph glyph-name="one" unicode="1" horiz-adv-x="553" 
d="M347 723l8 -1v-722l-64 1v613l-5 3l-177 -110l-24 49z" />
    <glyph glyph-name="two" unicode="2" horiz-adv-x="544" 
d="M225 275c-27.333 6 -52.166 15.5029 -74.499 28.5029s-41.5 29 -57.5 48s-28.333 40.167 -37 63.5s-13 48.666 -13 75.999c0 30.667 5.83301 59 17.5 85s27.667 48.333 48 67s44.166 33.167 71.499 43.5s56.666 15.5 87.999 15.5c32 0 61.833 -5.16699 89.5 -15.5
s51.667 -25 72 -44s36.333 -42 48 -69s17.5 -56.833 17.5 -89.5c0 -35.333 -6.83301 -68.333 -20.5 -99s-33.5 -62 -59.5 -94s-58.167 -66.5 -96.5 -103.5l-131.5 -125.5h298v-62h-442l217 220l65 67c20.667 21.333 38.834 42.666 54.501 63.999s28 42.666 37 63.999
s13.5 43.666 13.5 66.999c0 20.667 -3.66699 40.5 -11 59.5s-18 35.833 -32 50.5s-31.167 26.334 -51.5 35.001s-43.5 13 -69.5 13s-48.833 -4.33301 -68.5 -13s-36.167 -20 -49.5 -34s-23.333 -29.833 -30 -47.5s-10 -35.167 -10 -52.5c0 -13.333 1.83301 -28.5 5.5 -45.5
s11.167 -33.833 22.5 -50.5s27.833 -31.667 49.5 -45s50.5 -22.333 86.5 -27z" />
    <glyph glyph-name="three" unicode="3" horiz-adv-x="513" 
d="M172 389h57.0039c22 0 41.667 3.66699 59 11s32 17 44 29s21.167 26.167 27.5 42.5s9.5 33.5 9.5 51.5c0 14.667 -2.5 29 -7.5 43s-12.833 26.5 -23.5 37.5s-24.167 19.833 -40.5 26.5s-35.833 10 -58.5 10c-18 0 -34.667 -2.5 -50 -7.5s-29 -11.333 -41 -19
s-22.667 -16.334 -32 -26.001s-17.333 -19.167 -24 -28.5l-44 41c10.667 12.667 22.834 25.167 36.501 37.5s28.667 23.333 45 33s34.166 17.334 53.499 23.001s39.666 8.5 60.999 8.5c26.667 0 51.667 -4.66699 75 -14s43.5 -22 60.5 -38s30.333 -35 40 -57
s14.5 -45.667 14.5 -71c0 -31.333 -8.66699 -61.5 -26 -90.5s-45 -50.833 -83 -65.5c40 -14 71 -37.833 93 -71.5s33 -71.5 33 -113.5c0 -28 -5.33301 -54 -16 -78s-25.5 -44.667 -44.5 -62s-42 -31 -69 -41s-56.833 -15 -89.5 -15c-24.667 0 -47.334 3.5 -68.001 10.5
s-39.334 16.5 -56.001 28.5s-31.5 25.833 -44.5 41.5s-24.167 32.167 -33.5 49.5l51 36c2 -4.66699 6.5 -12.667 13.5 -24s16.833 -23 29.5 -35s28.667 -22.5 48 -31.5s42.666 -13.5 69.999 -13.5c20.667 0 39.667 3.33301 57 10s32.5 16 45.5 28s23.167 26.333 30.5 43
s11 35 11 55c0 18.667 -3.16699 37 -9.5 55s-15.833 34 -28.5 48s-28.667 25.167 -48 33.5s-42 12.5 -68 12.5h-60v57z" />
    <glyph glyph-name="four" unicode="4" horiz-adv-x="540" 
d="M315 250v293h-4l-193 -290v-3h197zM315 192h-303l363 533h4v-475h112v-58h-112v-192h-64v192z" />
    <glyph glyph-name="five" unicode="5" horiz-adv-x="514" 
d="M72 133c18 -27.333 40.999 -48.6699 68.999 -64.0029s58.333 -23 91 -23c21.333 0 41.833 3.66699 61.5 11s36.834 18 51.501 32s26.334 31 35.001 51s13 43 13 69c0 24.667 -4.16699 47.334 -12.5 68.001s-19.833 38.5 -34.5 53.5s-32.167 26.667 -52.5 35
s-42.5 12.5 -66.5 12.5c-25.333 0 -49.833 -4.83301 -73.5 -14.5s-45.167 -22.167 -64.5 -37.5v360h309v-62h-245v-204c16.667 8.66699 32.167 14.167 46.5 16.5s27.5 3.5 39.5 3.5c32 0 61.5 -5.83301 88.5 -17.5s50.333 -27.667 70 -48s35 -44.666 46 -72.999
s16.5 -59.166 16.5 -92.499c0 -30 -5.33301 -58.667 -16 -86s-25.667 -51.333 -45 -72s-43 -37 -71 -49s-59 -18 -93 -18c-37.333 0 -74.833 8.33301 -112.5 25s-69.834 43.667 -96.501 81z" />
    <glyph glyph-name="six" unicode="6" horiz-adv-x="572" 
d="M291 419c-22.667 0 -45.333 -4.16797 -68 -12.501s-43 -20.5 -61 -36.5s-32.5 -35.833 -43.5 -59.5s-16.5 -51.167 -16.5 -82.5c0 -29.333 5.33301 -55.333 16 -78s24.667 -41.667 42 -57s37 -27 59 -35s44.667 -12 68 -12c24 0 47.167 4.33301 69.5 13
s42 20.834 59 36.501s30.5 34.5 40.5 56.5s15 46.333 15 73c0 27.333 -4.66699 52.833 -14 76.5s-22 44.167 -38 61.5s-35 31 -57 41s-45.667 15 -71 15zM411.001 684.999c-13.333 -8.66699 -29.334 -20.0029 -48.001 -34.0029s-39 -31.333 -61 -52
s-45.5 -45.167 -70.5 -73.5s-50.167 -61.166 -75.5 -98.499c26.667 18.667 53.167 31 79.5 37s48.166 9 65.499 9c26.667 0 53.834 -5.5 81.501 -16.5s52.834 -27 75.501 -48s41.167 -47 55.5 -78s21.5 -66.5 21.5 -106.5c0 -35.333 -6.66699 -67.666 -20 -96.999
s-31.5 -54.666 -54.5 -75.999s-49.5 -37.833 -79.5 -49.5s-61.333 -17.5 -94 -17.5c-31.333 0 -62 5.5 -92 16.5s-56.667 27 -80 48s-42 47 -56 78s-21 66.167 -21 105.5c0 46 9.16699 92.167 27.5 138.5s42.5 91 72.5 134s64 83.167 102 120.5s76.333 70 115 98z" />
    <glyph glyph-name="seven" unicode="7" horiz-adv-x="549" 
d="M232 0h-69l243 628h-341v58h425z" />
    <glyph glyph-name="eight" unicode="8" horiz-adv-x="510" 
d="M107 187c0 -19.333 3.83105 -37.5 11.498 -54.5s18.334 -32 32.001 -45s29.5 -23.167 47.5 -30.5s37 -11 57 -11s39 3.66699 57 11s33.833 17.5 47.5 30.5s24.334 28 32.001 45s11.5 35.167 11.5 54.5c0 20 -4 38.5 -12 55.5s-18.667 31.833 -32 44.5s-29 22.667 -47 30
s-37 11 -57 11s-39 -3.66699 -57 -11s-33.667 -17.333 -47 -30s-24 -27.5 -32 -44.5s-12 -35.5 -12 -55.5zM120.998 513c0 -17.333 3.49805 -33.833 10.498 -49.5s16.5 -29.167 28.5 -40.5s26.167 -20.333 42.5 -27s33.833 -10 52.5 -10s36.167 3.33301 52.5 10
s30.5 15.667 42.5 27s21.5 24.833 28.5 40.5s10.5 32.167 10.5 49.5c0 18 -3.5 34.667 -10.5 50s-16.667 28.666 -29 39.999s-26.666 20.333 -42.999 27s-33.5 10 -51.5 10s-35.167 -3.33301 -51.5 -10s-30.666 -15.667 -42.999 -27s-22 -24.666 -29 -39.999
s-10.5 -32 -10.5 -50zM168.996 360c-31.333 12 -58.0029 31.666 -80.0029 58.999s-33 61.666 -33 102.999c0 22 4.33301 43.667 13 65s21.334 40.5 38.001 57.5s37.334 30.833 62.001 41.5s53.334 16 86.001 16c27.333 0 53 -4.16699 77 -12.5s45 -20.333 63 -36
s32.333 -34.667 43 -57s16 -47.166 16 -74.499c0 -41.333 -11 -75.666 -33 -102.999s-48.667 -47 -80 -59c21.333 -6 40.166 -15.167 56.499 -27.5s29.833 -26.5 40.5 -42.5s18.667 -33.5 24 -52.5s8 -37.833 8 -56.5c0 -30 -6.16699 -57.167 -18.5 -81.5
s-28.5 -45 -48.5 -62s-42.833 -30.167 -68.5 -39.5s-52.167 -14 -79.5 -14s-53.833 4.66699 -79.5 14s-48.5 22.5 -68.5 39.5s-36.167 37.667 -48.5 62s-18.5 51.5 -18.5 81.5c0 40.667 11.333 77.5 34 110.5s54.334 55.833 95.001 68.5z" />
    <glyph glyph-name="nine" unicode="9" horiz-adv-x="563" 
d="M277 267c22 0 44.334 4.00195 67.001 12.002s43 20 61 36s32.667 35.833 44 59.5s17 51.5 17 83.5c0 26.667 -5 51.167 -15 73.5s-23.333 41.5 -40 57.5s-36.334 28.5 -59.001 37.5s-46.334 13.5 -71.001 13.5c-24 0 -47.167 -4.33301 -69.5 -13s-42 -20.834 -59 -36.501
s-30.5 -34.5 -40.5 -56.5s-15 -46.333 -15 -73c0 -28.667 4.83301 -54.834 14.5 -78.501s22.667 -44 39 -61s35.333 -30.333 57 -40s44.834 -14.5 69.501 -14.5zM157.001 1.00195c36 24 69.168 50.335 99.501 79.002s56.5 55.667 78.5 81s39.667 47.166 53 65.499
s21.333 29.166 24 32.499c-26.667 -18.667 -53 -31 -79 -37s-48 -9 -66 -9c-32 0 -62.333 6.16699 -91 18.5s-53.5 29.5 -74.5 51.5s-37.667 48.333 -50 79s-18.5 64 -18.5 100c0 40 7.83301 75 23.5 105s35.667 55 60 75s51 35 80 45s57.167 15 84.5 15
c34.667 0 67.167 -6.5 97.5 -19.5s56.666 -30.667 78.999 -53s40 -48.5 53 -78.5s19.5 -62.333 19.5 -97c0 -37.333 -7 -77 -21 -119s-34.5 -84.333 -61.5 -127s-60.167 -85 -99.5 -127s-84.333 -81.333 -135 -118z" />
    <glyph glyph-name="colon" unicode=":" horiz-adv-x="250" 
d="M125 372l52 -59l-52 -59l-52 59zM125 112l52 -59l-52 -59l-52 59z" />
    <glyph glyph-name="semicolon" unicode=";" horiz-adv-x="250" 
d="M125 372l52 -59l-52 -59l-52 59zM80 72l75 11l-103 -267h-54z" />
    <glyph glyph-name="semicolon" unicode="&#x37e;" horiz-adv-x="250" 
d="M125 372l52 -59l-52 -59l-52 59zM80 72l75 11l-103 -267h-54z" />
    <glyph glyph-name="less" unicode="&#x3c;" horiz-adv-x="615" 
d="M569 64l-25 -51l-498 238l498 238l25 -51l-392 -187z" />
    <glyph glyph-name="equal" unicode="=" 
d="M551 123h-502v58h502v-58zM551 321h-502v58h502v-58z" />
    <glyph glyph-name="greater" unicode="&#x3e;" horiz-adv-x="615" 
d="M46 438l25 51l498 -238l-498 -238l-25 51l392 187z" />
    <glyph glyph-name="question" unicode="?" horiz-adv-x="452" 
d="M240 106l51 -62l-51 -60l-53 60zM28 568c14 47.333 38.666 83.332 73.999 107.999s75.333 37 120 37c31.333 0 59.5 -5.16699 84.5 -15.5s46.333 -24.333 64 -42s31.167 -38 40.5 -61s14 -47.167 14 -72.5c0 -23.333 -3.33301 -44 -10 -62s-15.167 -34.167 -25.5 -48.5
s-22.166 -27.166 -35.499 -38.499s-26.666 -22 -39.999 -32l-23.5 -18.5c-6.33301 -5 -11.333 -9.66699 -15 -14s-6.16699 -9 -7.5 -14s-2 -11.5 -2 -19.5v-90l-58 -14v118c0 14 2.33301 26 7 36s10.667 19.167 18 27.5s15.666 16 24.999 23l29 22.5
c20.667 17.333 37.667 35.5 51 54.5s20 43.5 20 73.5c0 15.333 -2.66699 30.5 -8 45.5s-13.5 28.333 -24.5 40s-25 21.167 -42 28.5s-36.833 11 -59.5 11c-36.667 0 -67.167 -11 -91.5 -33s-40.5 -49 -48.5 -81z" />
    <glyph glyph-name="at" unicode="@" horiz-adv-x="800" 
d="M557 535l55.998 0.00390625l-89 -278c-2 -7.33301 -4.16699 -14 -6.5 -20s-3.5 -12.667 -3.5 -20v-14c0 -4.66699 0.666992 -8.83398 2 -12.501s4 -6.66699 8 -9s9.66699 -3.5 17 -3.5c12.667 0 27.334 5.5 44.001 16.5s32.334 26.5 47.001 46.5s27 43.667 37 71
s15 57 15 89c0 36 -6.83301 69.333 -20.5 100s-32.334 57 -56.001 79s-51.834 39.167 -84.501 51.5s-68 18.5 -106 18.5c-43.333 0 -83.333 -8.16699 -120 -24.5s-68.5 -38.666 -95.5 -66.999s-48 -61.333 -63 -99s-22.5 -77.834 -22.5 -120.501
c0 -41.333 7.83301 -80.5 23.5 -117.5s37.167 -69.167 64.5 -96.5s59.5 -49 96.5 -65s76.833 -24 119.5 -24c14.667 0 32 1.5 52 4.5s40.5 8.33301 61.5 16s41.833 18.167 62.5 31.5s39.667 30 57 50l37 -31c-18.667 -22.667 -38.834 -41.834 -60.501 -57.501
s-44.167 -28.334 -67.5 -38.001s-47 -16.667 -71 -21s-47.667 -6.5 -71 -6.5c-50 0 -97 9.33301 -141 28s-82.333 44.334 -115 77.001s-58.5 71 -77.5 115s-28.5 91.333 -28.5 142c0 49.333 9.5 95.666 28.5 138.999s44.833 81 77.5 113s70.667 57.333 114 76s89 28 137 28
c40.667 0 80.5 -6.83301 119.5 -20.5s73.833 -33.334 104.5 -59.001s55.5 -56.834 74.5 -93.501s28.5 -78.334 28.5 -125.001c0 -36 -6.33301 -70.667 -19 -104s-29.5 -62.833 -50.5 -88.5s-44.833 -46 -71.5 -61s-54 -22.5 -82 -22.5c-15.333 0 -27.166 3 -35.499 9
s-14.5 12.833 -18.5 20.5s-6.5 14.834 -7.5 21.501s-1.5 10.667 -1.5 12h-2c-5.33301 -5.33301 -12.166 -11.666 -20.499 -18.999s-17.833 -14.333 -28.5 -21s-22.167 -12.167 -34.5 -16.5s-25.5 -6.5 -39.5 -6.5c-13.333 0 -27.666 2.33301 -42.999 7
s-29.833 12.667 -43.5 24s-25 26.5 -34 45.5s-13.5 42.5 -13.5 70.5c0 33.333 5.66699 66.5 17 99.5s27 62.833 47 89.5s43.333 48.167 70 64.5s55 24.5 85 24.5c28 0 52.333 -7 73 -21s35.667 -33.667 45 -59zM261.998 281.004c0 -17.333 2.33203 -32.334 6.99902 -45.001
s10.834 -23.167 18.501 -31.5s16.5 -14.5 26.5 -18.5s20 -6 30 -6c21.333 0 41.5 6.83301 60.5 20.5s35.833 31.167 50.5 52.5s26.167 44.833 34.5 70.5s12.5 50.5 12.5 74.5c0 34.667 -7.83301 60.5 -23.5 77.5s-35.167 25.5 -58.5 25.5c-20 0 -39.333 -6.33301 -58 -19
s-35.5 -29.167 -50.5 -49.5s-27 -43.666 -36 -69.999s-13.5 -53.5 -13.5 -81.5z" />
    <glyph glyph-name="A" unicode="A" horiz-adv-x="730" 
d="M475 333l-113 229l-114 -229h227zM641 0l-134 269h-291l-133 -269h-69l349 702h2l349 -702h-73z" />
    <glyph glyph-name="B" unicode="B" horiz-adv-x="520" 
d="M141 64l131 -0.00390625c18.667 0 36 2.83301 52 8.5s30 13.834 42 24.501s21.333 23.5 28 38.5s10 31.5 10 49.5c0 18.667 -3.16699 35.834 -9.5 51.501s-15.5 29.334 -27.5 41.001s-26.167 20.834 -42.5 27.501s-34.5 10 -54.5 10h-129v-251zM141 378.996
l115 -0.000976562c24.667 0 45.334 3.83301 62.001 11.5s30.167 17.5 40.5 29.5s17.666 25 21.999 39s6.5 27.333 6.5 40c0 16.667 -3.16699 32.334 -9.5 47.001s-15.333 27.667 -27 39s-26.167 20.333 -43.5 27s-37 10 -59 10h-107v-243zM74 685.995h174.999
c32 0 60.833 -4.66699 86.5 -14s47.5 -22.166 65.5 -38.499s31.833 -35.333 41.5 -57s14.5 -44.834 14.5 -69.501c0 -32 -7.33301 -62 -22 -90s-39 -49.667 -73 -65v-3c32.667 -11.333 59.834 -30.666 81.501 -57.999s32.5 -62 32.5 -104
c0 -27.333 -4.83301 -52.333 -14.5 -75s-23.667 -42.334 -42 -59.001s-40.833 -29.667 -67.5 -39s-56.667 -14 -90 -14h-188v686z" />
    <glyph glyph-name="C" unicode="C" horiz-adv-x="587" 
d="M547 584c-24 18.667 -49.498 32.333 -76.498 41s-54.833 13 -83.5 13c-49.333 0 -92.166 -9 -128.499 -27s-66.333 -41.333 -90 -70s-41.334 -60.667 -53.001 -96s-17.5 -70.333 -17.5 -105c0 -39.333 7.5 -76.666 22.5 -111.999s35.833 -66.333 62.5 -93
s57.667 -47.834 93 -63.501s73.666 -23.5 114.999 -23.5c20 0 43.667 4.16699 71 12.5s54 22.5 80 42.5l-10 -87c-20 -8.66699 -43.167 -16.167 -69.5 -22.5s-55.5 -9.5 -87.5 -9.5c-55.333 0 -104.5 11 -147.5 33s-79.5 50.333 -109.5 85s-52.833 73.5 -68.5 116.5
s-23.5 85.167 -23.5 126.5c0 47.333 9 92.5 27 135.5s43.167 81 75.5 114s70.666 59.167 114.999 78.5s92.5 29 144.5 29c19.333 0 42.333 -2 69 -6s53 -12.667 79 -26z" />
    <glyph glyph-name="D" unicode="D" horiz-adv-x="603" 
d="M141 64h104c36.667 0 70.5 7.5 101.5 22.5s58 35.333 81 61s41 55.5 54 89.5s19.5 70.333 19.5 109c0 37.333 -6.5 72.833 -19.5 106.5s-31 63 -54 88s-50.333 44.833 -82 59.5s-66.167 22 -103.5 22h-101v-558zM238 686c46.667 0 90.334 -8.49902 131.001 -25.499
s76.167 -40.833 106.5 -71.5s54.166 -66.834 71.499 -108.501s26 -86.834 26 -135.501c0 -50.667 -8.83301 -97.167 -26.5 -139.5s-42 -78.666 -73 -108.999s-67.167 -54 -108.5 -71s-86 -25.5 -134 -25.5h-157v686h164z" />
    <glyph glyph-name="E" unicode="E" horiz-adv-x="505" 
d="M74 0v686h376v-64h-309v-242h275v-64h-275v-252h309v-64h-376z" />
    <glyph glyph-name="F" unicode="F" horiz-adv-x="394" 
d="M371 686v-64h-230v-242h189v-64h-189v-316h-67v686h297z" />
    <glyph glyph-name="G" unicode="G" horiz-adv-x="692" 
d="M586 558c-10.667 10 -22.834 19.6689 -36.501 29.002s-29 17.833 -46 25.5s-35.5 13.834 -55.5 18.501s-41.333 7 -64 7c-37.333 0 -73.333 -7.16699 -108 -21.5s-65.167 -34.666 -91.5 -60.999s-47.333 -58 -63 -95s-23.5 -77.833 -23.5 -122.5
c0 -36 6.5 -71.333 19.5 -106s32 -65.667 57 -93s55.667 -49.333 92 -66s77.5 -25 123.5 -25c32 0 62.833 4.66699 92.5 14s59.834 25.666 90.501 48.999v194h-206v64h278v-291c-25.333 -20.667 -50 -37.167 -74 -49.5s-47 -21.833 -69 -28.5s-42.667 -11 -62 -13
s-36.333 -3 -51 -3c-60 0 -112.5 10.5 -157.5 31.5s-82.833 48.333 -113.5 82s-53.667 71.5 -69 113.5s-23 84 -23 126c0 44.667 8 88.834 24 132.501s39.333 82.667 70 117s68.5 62.166 113.5 83.499s96.5 32 154.5 32c17.333 0 35.833 -1.33301 55.5 -4
s39.667 -7.33398 60 -14.001s41 -15.834 62 -27.501s41.833 -26.834 62.5 -45.501z" />
    <glyph glyph-name="H" unicode="H" horiz-adv-x="691" 
d="M141 686v-310h409v310h67v-686h-67v312h-409v-312h-67v686h67z" />
    <glyph glyph-name="I" unicode="I" horiz-adv-x="227" 
d="M80 686l67 -1v-685l-67 1v685z" />
    <glyph glyph-name="J" unicode="J" horiz-adv-x="403" 
d="M329 685l-0.000976562 -515.999c0 -26.667 -3.83301 -51.334 -11.5 -74.001s-19.167 -42.167 -34.5 -58.5s-34.333 -29.166 -57 -38.499s-49 -14 -79 -14c-16.667 0 -36.167 2.66699 -58.5 8s-47.5 18.666 -75.5 39.999l34 54c13.333 -11.333 28.5 -20.5 45.5 -27.5
s34.167 -10.5 51.5 -10.5c12 0 25 1.83301 39 5.5s26.833 10.5 38.5 20.5s21.334 23.667 29.001 41s11.5 40 11.5 68v503z" />
    <glyph glyph-name="K" unicode="K" horiz-adv-x="546" 
d="M141 0h-67v686h67v-318l277 318h83l-278 -321l314 -365h-89l-307 356v-356z" />
    <glyph glyph-name="L" unicode="L" horiz-adv-x="394" 
d="M74 0v686l67 -1v-621h231v-64h-298z" />
    <glyph glyph-name="M" unicode="M" horiz-adv-x="762" 
d="M162 487h-3l-87 -487h-70l135 702h3l238 -567h4l231 566h3l136 -701h-66l-90 492h-3l-214 -514z" />
    <glyph glyph-name="N" unicode="N" horiz-adv-x="693" 
d="M548 157h4v529l67 -1v-701l-475 546l-3 -1v-529h-67v702z" />
    <glyph glyph-name="O" unicode="O" horiz-adv-x="786" 
d="M98 345c0 -41.333 7.5 -80 22.5 -116s35.667 -67.5 62 -94.5s57.5 -48.167 93.5 -63.5s75 -23 117 -23s81 7.66699 117 23s67.167 36.5 93.5 63.5s47 58.5 62 94.5s22.5 74.667 22.5 116c0 34.667 -6.5 69.5 -19.5 104.5s-32 66.5 -57 94.5s-55.833 50.667 -92.5 68
s-78.667 26 -126 26s-89.333 -8.66699 -126 -26s-67.5 -40 -92.5 -68s-44 -59.5 -57 -94.5s-19.5 -69.833 -19.5 -104.5zM26 342c0 58 11.335 109.5 34.002 154.5s51.834 82.667 87.501 113s75.167 53.333 118.5 69s85.666 23.5 126.999 23.5s83.666 -7.83301 126.999 -23.5
s82.833 -38.667 118.5 -69s64.834 -68 87.501 -113s34 -96.5 34 -154.5c0 -46 -9 -90.667 -27 -134s-43.333 -81.5 -76 -114.5s-71.334 -59.5 -116.001 -79.5s-94 -30 -148 -30s-103.333 10 -148 30s-83.334 46.5 -116.001 79.5s-58 71.167 -76 114.5s-27 88 -27 134z" />
    <glyph glyph-name="P" unicode="P" horiz-adv-x="481" 
d="M141 289c10 -1.33301 19.832 -2.16992 29.499 -2.50293s19.5 -0.5 29.5 -0.5c32 0 59.5 4.83301 82.5 14.5s42 22.334 57 38.001s26 33.334 33 53.001s10.5 39.834 10.5 60.501c0 22 -3.83301 43.333 -11.5 64s-19.167 39.167 -34.5 55.5s-34.166 29.333 -56.499 39
s-47.833 14.5 -76.5 14.5h-63v-336zM73.999 685.996l117.001 0.00292969c48 0 88.667 -7.33301 122 -22s60.5 -33.334 81.5 -56.001s36.333 -47.834 46 -75.501s14.5 -54.834 14.5 -81.501c0 -31.333 -6.16699 -61 -18.5 -89s-29.833 -52.333 -52.5 -73
s-50.334 -37 -83.001 -49s-69 -18 -109 -18c-17.333 0 -34.333 1 -51 3v-225h-67v686z" />
    <glyph glyph-name="Q" unicode="Q" horiz-adv-x="786" 
d="M607 142c30 32 51 65.499 63 100.499s18 68.5 18 100.5c0 40 -7.83301 77.833 -23.5 113.5s-37 67 -64 94s-58.333 48.333 -94 64s-73.5 23.5 -113.5 23.5c-39.333 0 -76.833 -8 -112.5 -24s-67 -37.5 -94 -64.5s-48.5 -58.333 -64.5 -94s-24 -73.167 -24 -112.5
s7.83301 -76.833 23.5 -112.5s37 -67 64 -94s58.333 -48.5 94 -64.5s73.5 -24 113.5 -24c8 0 18 0.5 30 1.5s25.333 3.33301 40 7s30 8.83398 46 15.501s32 15.667 48 27l-97 89l51 42zM606 53.999c-28.667 -21.333 -60.833 -38.334 -96.5 -51.001s-74.5 -19 -116.5 -19
c-50 0 -97.167 9.33301 -141.5 28s-83.333 44.334 -117 77.001s-60.167 70.667 -79.5 114s-29 90 -29 140s9.66699 96.667 29 140s45.833 81.333 79.5 114s72.667 58.334 117 77.001s91.5 28 141.5 28s97.167 -9.33301 141.5 -28s83.333 -44.334 117 -77.001
s60.167 -70.667 79.5 -114s29 -90 29 -140c0 -48 -9.33301 -93 -28 -135s-44 -79 -76 -111l130 -119l-51 -43z" />
    <glyph glyph-name="R" unicode="R" horiz-adv-x="503" 
d="M135 334l83.999 -0.000976562c20.667 0 39.834 3.83301 57.501 11.5s33 18 46 31s23.167 28.333 30.5 46s11 36.834 11 57.501c0 18.667 -3.33301 36.5 -10 53.5s-16.167 32 -28.5 45s-27.833 23.5 -46.5 31.5s-40 12 -64 12h-80v-288zM209.999 685.999
c38 0 71.167 -5.66602 99.5 -16.999s51.833 -26.5 70.5 -45.5s32.667 -40.833 42 -65.5s14 -50.334 14 -77.001c0 -25.333 -4 -49.333 -12 -72s-19.5 -43 -34.5 -61s-33.333 -32.667 -55 -44s-46.5 -18 -74.5 -20l241 -284h-91l-271 326h-4v-326h-67v686h142z" />
    <glyph glyph-name="S" unicode="S" horiz-adv-x="487" 
d="M83 147c14.667 -28.667 35.498 -52.334 62.498 -71.001s58.5 -28 94.5 -28c20.667 0 39.834 3.16699 57.501 9.5s32.834 15 45.501 26s22.667 24.167 30 39.5s11 32 11 50c0 26 -5.66699 47.167 -17 63.5s-26.166 30 -44.499 41s-39.333 20.5 -63 28.5
s-47.5 16.667 -71.5 26c-16 6 -32.5 13.667 -49.5 23s-32.333 21.166 -46 35.499s-24.834 31.5 -33.501 51.5s-13 43.667 -13 71s5.16699 52.5 15.5 75.5s24.833 43 43.5 60s40.667 30.167 66 39.5s53 14 83 14c42 0 78.167 -8.66699 108.5 -26s55.166 -37.333 74.499 -60
l-49 -52c-14 20.667 -32.333 38.167 -55 52.5s-49.334 21.5 -80.001 21.5c-41.333 0 -74.166 -12 -98.499 -36s-36.5 -54.333 -36.5 -91c0 -20.667 4.33301 -38.167 13 -52.5s19.667 -26.5 33 -36.5s28.166 -18.333 44.499 -25s32.5 -12.667 48.5 -18
c20.667 -7.33301 42.834 -15.666 66.501 -24.999s45.167 -21.666 64.5 -36.999s35.5 -34.5 48.5 -57.5s19.5 -51.5 19.5 -85.5c0 -24.667 -4.66699 -48.5 -14 -71.5s-23.166 -43.167 -41.499 -60.5s-41 -31.333 -68 -42s-57.833 -16 -92.5 -16
c-12.667 0 -27.667 1.16699 -45 3.5s-35.5 7.66602 -54.5 15.999s-38 20.333 -57 36s-36.5 36.834 -52.5 63.501z" />
    <glyph glyph-name="T" unicode="T" horiz-adv-x="448" 
d="M256 0h-67v622h-174v64h419v-64h-178v-622z" />
    <glyph glyph-name="U" unicode="U" horiz-adv-x="639" 
d="M565 217c0 -36.667 -6.00195 -69.4971 -18.002 -98.4971s-28.833 -53.5 -50.5 -73.5s-47.5 -35.167 -77.5 -45.5s-63 -15.5 -99 -15.5c-33.333 0 -64.833 4.66699 -94.5 14s-55.834 23.666 -78.501 42.999s-40.5 43.666 -53.5 72.999s-19.5 63.666 -19.5 102.999v469h67
v-471c0 -27.333 4.83301 -51.333 14.5 -72s22.834 -38 39.501 -52s35.834 -24.667 57.501 -32s44.167 -11 67.5 -11c30.667 0 57.334 4.83301 80.001 14.5s41.167 23 55.5 40s25 36.667 32 59s10.5 46.5 10.5 72.5v452h67v-469z" />
    <glyph glyph-name="V" unicode="V" horiz-adv-x="664" 
d="M80 686l252 -548h4l245 548h73l-320 -702l-329 702h75z" />
    <glyph glyph-name="W" unicode="W" horiz-adv-x="875" 
d="M76 686l230 -541l3 1l93 241l-128 299l62 -1l101 -220l95 220l58 1l-120 -295l104 -246h3l222 541h67l-286 -702l-143 330h-3l-131 -330l-296 702h69z" />
    <glyph glyph-name="X" unicode="X" horiz-adv-x="635" 
d="M108 686l198 -266l2 -1l191 267h83l-235 -323l277 -363h-85l-230 307h-2l-221 -307h-81l263 363l-239 323h79z" />
    <glyph glyph-name="Y" unicode="Y" horiz-adv-x="554" 
d="M86 686l199 -355h4l177 355h77l-349 -686h-81l138 258l-243 428h78z" />
    <glyph glyph-name="Z" unicode="Z" horiz-adv-x="558" 
d="M526 686l-395 -622h398v-64h-516l393 622h-359v64h479z" />
    <glyph glyph-name="bracketleft" unicode="[" horiz-adv-x="278" 
d="M35 686h164v-48h-111v-730h111v-48h-164v826z" />
    <glyph glyph-name="backslash" unicode="\" horiz-adv-x="278" 
d="M-16 702l364 -718h-55l-364 718h55z" />
    <glyph glyph-name="bracketright" unicode="]" horiz-adv-x="278" 
d="M243 -140h-164v48h111v730h-111v48h164v-826z" />
    <glyph glyph-name="asciicircum" unicode="^" 
d="M111 243h-64l253 459l253 -459h-64l-189 347z" />
    <glyph glyph-name="underscore" unicode="_" horiz-adv-x="500" 
d="M0 -125v74h500v-74h-500z" />
    <glyph glyph-name="grave" unicode="`" horiz-adv-x="273" 
d="M-14 652l31 58l208 -115l-26 -48z" />
    <glyph glyph-name="a" unicode="a" horiz-adv-x="460" 
d="M205 293c-20 0 -37.833 -3.33398 -53.5 -10.001s-28.834 -15.5 -39.501 -26.5s-18.834 -23.667 -24.501 -38s-8.5 -29.166 -8.5 -44.499s2.66699 -30.666 8 -45.999s13.333 -29.333 24 -42s24.334 -22.834 41.001 -30.501s36.334 -11.5 59.001 -11.5
c22 0 41.333 3.5 58 10.5s30.667 16.167 42 27.5s19.833 24.333 25.5 39s8.5 30 8.5 46c0 15.333 -2.83301 30.5 -8.5 45.5s-14.167 28.5 -25.5 40.5s-25.833 21.667 -43.5 29s-38.5 11 -62.5 11zM89 486.999c16.667 6 36.999 11.9971 60.999 17.9971s49.667 9 77 9
c44 0 78.167 -7 102.5 -21s42.166 -30 53.499 -48s18 -35.667 20 -53s3 -29.333 3 -36v-356h-58v60h-3c-17.333 -27.333 -39.166 -46.166 -65.499 -56.499s-52.5 -15.5 -78.5 -15.5c-24.667 0 -48.167 4.16699 -70.5 12.5s-42 20.333 -59 36s-30.5 34.834 -40.5 57.501
s-15 48 -15 76c0 29.333 5.33301 55.166 16 77.499s24.834 41 42.501 56s37.5 26.333 59.5 34s44.333 11.5 67 11.5c23.333 0 48 -4.66699 74 -14s48.667 -25.666 68 -48.999h2v76c0 28.667 -11 51.834 -33 69.501s-51 26.5 -87 26.5c-23.333 0 -46.5 -3.33301 -69.5 -10
s-43.833 -13.667 -62.5 -21l-29 -12z" />
    <glyph glyph-name="b" unicode="b" horiz-adv-x="598" 
d="M321 458c-28 0 -54.333 -4.99902 -79 -14.999s-46.167 -24.333 -64.5 -43s-33 -40.834 -44 -66.501s-16.5 -53.834 -16.5 -84.501c0 -24 4.66699 -48.333 14 -73s22.5 -46.667 39.5 -66s37.667 -35.166 62 -47.499s51.5 -18.5 81.5 -18.5c33.333 0 62.5 6.5 87.5 19.5
s45.833 29.5 62.5 49.5s29.167 42.333 37.5 67s12.5 49 12.5 73c0 27.333 -4.83301 53.333 -14.5 78s-23 46.5 -40 65.5s-37.333 34 -61 45s-49.5 16.5 -77.5 16.5zM115 405.001l3 1.00098c13.333 21.333 28.5 39 45.5 53s34.667 25 53 33s36.5 13.667 54.5 17
s34.667 5 50 5c37.333 0 71.666 -7 102.999 -21s58.333 -33 81 -57s40.334 -51.5 53.001 -82.5s19 -63.5 19 -97.5c0 -38 -6.83301 -73.333 -20.5 -106s-32.5 -61 -56.5 -85s-52 -42.833 -84 -56.5s-66.333 -20.5 -103 -20.5c-33.333 0 -65.5 6 -96.5 18
s-58.5 30.167 -82.5 54.5s-43.333 55.166 -58 92.499s-22 81.333 -22 132v427h61v-307z" />
    <glyph glyph-name="c" unicode="c" horiz-adv-x="490" 
d="M423 404c-42 36 -88.999 53.999 -140.999 53.999c-26.667 0 -52 -4.83301 -76 -14.5s-45 -23.5 -63 -41.5s-32.333 -39.667 -43 -65s-16 -53.666 -16 -84.999c0 -25.333 4.16699 -50.333 12.5 -75s20.833 -46.834 37.5 -66.501s37.667 -35.667 63 -48
s54.666 -18.5 87.999 -18.5c52.667 0 98 17.667 136 53l37 -46c-16.667 -13.333 -33 -24.166 -49 -32.499s-31.333 -14.833 -46 -19.5s-28.667 -7.66699 -42 -9s-25.333 -2 -36 -2c-44 0 -82.5 8 -115.5 24s-60.5 36.5 -82.5 61.5s-38.5 53.167 -49.5 84.5
s-16.5 62.666 -16.5 93.999c0 35.333 6.66699 68.833 20 100.5s31.666 59.5 54.999 83.5s51.333 43 84 57s68 21 106 21c38.667 0 72.334 -6.16699 101.001 -18.5s53 -27.166 73 -44.499z" />
    <glyph glyph-name="d" unicode="d" horiz-adv-x="602" 
d="M487 250c0 30.667 -5.1709 58.668 -15.5039 84.001s-24.666 47.166 -42.999 65.499s-40 32.666 -65 42.999s-51.833 15.5 -80.5 15.5c-30 0 -57.167 -5.83301 -81.5 -17.5s-45.333 -27 -63 -46s-31.167 -40.833 -40.5 -65.5s-14 -50 -14 -76
c0 -29.333 4.83301 -56.666 14.5 -81.999s23.334 -47.5 41.001 -66.5s38.834 -33.833 63.501 -44.5s52 -16 82 -16c28.667 0 55.334 5.5 80.001 16.5s46 25.833 64 44.5s32.167 40.5 42.5 65.5s15.5 51.5 15.5 79.5zM547.996 712.001l0.00195312 -712.001h-61v84h-2
c-27.333 -33.333 -58.5 -57.666 -93.5 -72.999s-69.5 -23 -103.5 -23c-38.667 0 -74.334 6.83301 -107.001 20.5s-60.834 32.5 -84.501 56.5s-42.167 52 -55.5 84s-20 66.667 -20 104c0 35.333 6.83301 68.833 20.5 100.5s32.334 59.334 56.001 83.001s51.667 42.5 84 56.5
s67.166 21 104.499 21c36 0 71.333 -8.33301 106 -25s65.667 -41.334 93 -74.001h2v297h61z" />
    <glyph glyph-name="e" unicode="e" horiz-adv-x="552" 
d="M283 44c34 0 65.332 8.16797 93.999 24.501s52 38.166 70 65.499h71c-10.667 -21.333 -24.167 -41 -40.5 -59s-34.5 -33.5 -54.5 -46.5s-41.833 -23 -65.5 -30s-48.5 -10.5 -74.5 -10.5c-36 0 -70 6.83301 -102 20.5s-59.833 32.5 -83.5 56.5s-42.334 52 -56.001 84
s-20.5 66 -20.5 102c0 36.667 6.33301 71 19 103s30.334 59.833 53.001 83.5s49.334 42.334 80.001 56.001s64 20.5 100 20.5c40.667 0 77 -6.83301 109 -20.5s59 -32.334 81 -56.001s38.667 -51.5 50 -83.5s17 -66.333 17 -103h-446c0 -28 5.33301 -54.667 16 -80
s25 -47.333 43 -66s39 -33.5 63 -44.5s49.667 -16.5 77 -16.5zM459.999 306.001c-3.33301 22 -10.167 42.167 -20.5 60.5s-23.5 34.333 -39.5 48s-34.833 24.334 -56.5 32.001s-45.167 11.5 -70.5 11.5c-22.667 0 -43.834 -3.83301 -63.501 -11.5
s-37.167 -18.334 -52.5 -32.001s-28.666 -29.667 -39.999 -48s-20 -38.5 -26 -60.5h369z" />
    <glyph glyph-name="f" unicode="f" horiz-adv-x="312" 
d="M292 665c-7.33301 1.33301 -14.166 2.49902 -20.499 3.49902s-13.166 1.5 -20.499 1.5c-25.333 0 -45.333 -4.33301 -60 -13s-25.5 -19.5 -32.5 -32.5s-11.333 -27 -13 -42s-2.5 -28.5 -2.5 -40.5v-40h142v-56h-142v-446h-61v446h-52v56h52v52
c0 8 0.833008 21.333 2.5 40s7.5 37.834 17.5 57.501s25.833 37 47.5 52s52.167 22.5 91.5 22.5c13.333 0 25.166 -0.833008 35.499 -2.5s20.166 -4.16699 29.499 -7.5z" />
    <glyph glyph-name="g" unicode="g" horiz-adv-x="491" 
d="M230 458c-25.333 0 -47 -4.00293 -65 -12.0029s-32.667 -18.167 -44 -30.5s-19.833 -25.833 -25.5 -40.5s-8.5 -28.667 -8.5 -42c0 -14 2.66699 -28.667 8 -44s13.833 -29.5 25.5 -42.5s26.667 -23.833 45 -32.5s40.833 -13 67.5 -13c25.333 0 47 4.16699 65 12.5
s32.667 18.833 44 31.5s19.666 26.334 24.999 41.001s8 28.334 8 41.001c0 16 -3.16699 31.667 -9.5 47s-15.666 29.333 -27.999 42s-27.5 22.834 -45.5 30.501s-38.667 11.5 -62 11.5zM434 468.997c-13.333 -2.66699 -27.999 -3.99609 -43.999 -3.99609
c-6 0 -11.5 0.166992 -16.5 0.5s-10.5 1.5 -16.5 3.5v-4c19.333 -10.667 34.333 -22.667 45 -36s18.667 -26.666 24 -39.999s8.66602 -25.833 9.99902 -37.5s2 -21.167 2 -28.5c0 -22 -3.16699 -41.333 -9.5 -58s-14.666 -31 -24.999 -43s-22 -21.833 -35 -29.5
s-25.833 -13.5 -38.5 -17.5v-4c37.333 -13.333 65.333 -35.333 84 -66s28 -62.667 28 -96c0 -21.333 -4 -43.333 -12 -66s-20.667 -43.5 -38 -62.5s-39.5 -34.5 -66.5 -46.5s-59.833 -18 -98.5 -18c-31.333 0 -59 4 -83 12s-45.167 18 -63.5 30s-33.833 25.333 -46.5 40
s-23.334 28.667 -32.001 42l46 33c6.66699 -10.667 15.5 -22 26.5 -34s23.833 -23 38.5 -33s31.667 -18.167 51 -24.5s41 -9.5 65 -9.5c26.667 0 49.5 4 68.5 12s34.5 18.5 46.5 31.5s20.833 27.667 26.5 44s8.5 33.166 8.5 50.499c0 18.667 -3.5 36.334 -10.5 53.001
s-17 31 -30 43s-28.667 21.5 -47 28.5s-38.833 10.5 -61.5 10.5c-26 0 -50.333 -2.83301 -73 -8.5s-43.667 -13.834 -63 -24.501l25 70c-32 15.333 -55.833 36.166 -71.5 62.499s-23.5 55.166 -23.5 86.499c0 26.667 4.83301 51.167 14.5 73.5s23.5 41.666 41.5 57.999
s39.833 29 65.5 38s54.834 13.5 87.501 13.5c12.667 0 25 -0.5 37 -1.5s23 -1.5 33 -1.5c14 0 27.167 0.5 39.5 1.5s24.166 2.5 35.499 4.5l35.5 6.5c12.333 2.33301 25.5 5.16602 39.5 8.49902z" />
    <glyph glyph-name="h" unicode="h" horiz-adv-x="506" 
d="M54 0l0.000976562 712h61v-273h2c12 16.667 25.333 30 40 40s29.167 17.667 43.5 23s28.166 8.66602 41.499 9.99902s25 2 35 2c23.333 0 45.5 -3.66699 66.5 -11s39.5 -18 55.5 -32s28.833 -31.5 38.5 -52.5s14.5 -45.167 14.5 -72.5v-346h-61v327
c0 26.667 -4.16699 48.5 -12.5 65.5s-18.666 30.333 -30.999 40s-25.833 16.334 -40.5 20.001s-28.334 5.5 -41.001 5.5c-21.333 0 -41.166 -3.66699 -59.499 -11s-34.333 -17.5 -48 -30.5s-24.334 -28.5 -32.001 -46.5s-11.5 -37.333 -11.5 -58v-312h-61z" />
    <glyph glyph-name="i" unicode="i" horiz-adv-x="212" 
d="M152 672l-46 -52l-46 52l46 52zM76 0v502h61v-502h-61z" />
    <glyph glyph-name="j" unicode="j" horiz-adv-x="211" 
d="M-80 -122c7.33301 -2 14.3291 -3.66602 20.9961 -4.99902s13.667 -2 21 -2c29.333 0 51.833 5.83301 67.5 17.5s26.834 26.167 33.501 43.5s10.334 35.5 11.001 54.5s1 36.167 1 51.5v464h61v-513c0 -40 -6.33301 -71.5 -19 -94.5s-27.667 -40.5 -45 -52.5
s-35.166 -19.5 -53.499 -22.5s-33.166 -4.5 -44.499 -4.5c-8.66699 0 -19.5 0.666992 -32.5 2s-26.5 4.66602 -40.5 9.99902zM150.996 672.001l-46 -52l-46 52l46 52z" />
    <glyph glyph-name="k" unicode="k" horiz-adv-x="453" 
d="M326 502h69l-217 -246l265 -256h-80l-248 244v-244h-61v712h61v-454z" />
    <glyph glyph-name="l" unicode="l" horiz-adv-x="201" 
d="M131 0h-61v712h61v-712z" />
    <glyph glyph-name="m" unicode="m" horiz-adv-x="779" 
d="M110 502l-0.000976562 -79.001h3c15.333 30 36 52.667 62 68s54.667 23 86 23c11.333 0 23.666 -1.33301 36.999 -4s26.5 -7.16699 39.5 -13.5s25 -15.166 36 -26.499s20.167 -26 27.5 -44h2c20.667 33.333 45.334 56.333 74.001 69s57 19 85 19
c48.667 0 88 -14.5 118 -43.5s45 -67.833 45 -116.5v-354h-61v339c0 24 -3.33301 43.667 -10 59s-15.167 27.5 -25.5 36.5s-22.166 15.167 -35.499 18.5s-26.666 5 -39.999 5c-10 0 -22.5 -1.66699 -37.5 -5s-29.667 -10.5 -44 -21.5s-26.5 -27 -36.5 -48
s-15 -49.5 -15 -85.5v-298h-61v330c0 8 -0.5 19.167 -1.5 33.5s-5 28.5 -12 42.5s-17.833 26.167 -32.5 36.5s-35.334 15.5 -62.001 15.5c-22.667 0 -42.5 -4.16699 -59.5 -12.5s-31.167 -19.833 -42.5 -34.5s-19.833 -31.5 -25.5 -50.5s-8.5 -38.833 -8.5 -59.5v-301h-61
v502h56z" />
    <glyph glyph-name="n" unicode="n" horiz-adv-x="508" 
d="M54 502h61v-82h2c2 3.33301 6.33301 10 13 20s16.667 20.5 30 31.5s30 20.833 50 29.5s44 13 72 13c22 0 43.333 -3.83301 64 -11.5s39 -19.167 55 -34.5s28.833 -34.5 38.5 -57.5s14.5 -49.5 14.5 -79.5v-331h-61v331c0 43.333 -12 75.333 -36 96s-53 31 -87 31
c-23.333 0 -44.5 -4.5 -63.5 -13.5s-35.333 -21.333 -49 -37s-24.167 -34.167 -31.5 -55.5s-11 -44.333 -11 -69v-283h-61v502z" />
    <glyph glyph-name="o" unicode="o" horiz-adv-x="566" 
d="M84 251c0 -28 5.33203 -54.667 15.999 -80s25 -47.333 43 -66s39 -33.5 63 -44.5s49.667 -16.5 77 -16.5c28 0 54 5.5 78 16.5s45 26 63 45s32.167 41 42.5 66s15.5 51.5 15.5 79.5s-5.16699 54.667 -15.5 80s-24.5 47.333 -42.5 66s-39.167 33.5 -63.5 44.5
s-50.166 16.5 -77.499 16.5s-53 -5.5 -77 -16.5s-45 -25.833 -63 -44.5s-32.333 -40.5 -43 -65.5s-16 -51.833 -16 -80.5zM20.999 251c0 36.667 6.83496 71 20.502 103s32.5 59.833 56.5 83.5s51.833 42.334 83.5 56.001s65.5 20.5 101.5 20.5s69.833 -6.83301 101.5 -20.5
s59.5 -32.334 83.5 -56.001s42.833 -51.5 56.5 -83.5s20.5 -66.333 20.5 -103c0 -36 -6.83301 -70 -20.5 -102s-32.334 -60 -56.001 -84s-51.5 -42.833 -83.5 -56.5s-66 -20.5 -102 -20.5s-70 6.83301 -102 20.5s-59.833 32.5 -83.5 56.5s-42.334 52 -56.001 84
s-20.5 66 -20.5 102z" />
    <glyph glyph-name="p" unicode="p" horiz-adv-x="601" 
d="M316 458c-29.333 0 -56.333 -5.83594 -81 -17.5029s-45.834 -27.167 -63.501 -46.5s-31.5 -41.666 -41.5 -66.999s-15 -51.666 -15 -78.999c0 -30 5.83301 -57.5 17.5 -82.5s27.167 -46.5 46.5 -64.5s41.5 -32 66.5 -42s50.5 -15 76.5 -15
c26.667 0 51.834 4.83301 75.501 14.5s44.334 23.5 62.001 41.5s31.667 39.5 42 64.5s15.5 52.833 15.5 83.5c0 31.333 -5 59.833 -15 85.5s-23.833 47.834 -41.5 66.501s-38.834 33 -63.501 43s-51.667 15 -81 15zM115 501.997l0.00195312 -102h4
c23.333 38 52 66.5 86 85.5s72.667 28.5 116 28.5c39.333 0 75 -6.66699 107 -20s59.167 -31.833 81.5 -55.5s39.666 -51.5 51.999 -83.5s18.5 -66.667 18.5 -104c0 -38.667 -6.66699 -74 -20 -106s-31.5 -59.667 -54.5 -83s-49.833 -41.5 -80.5 -54.5
s-63.667 -19.5 -99 -19.5c-18 0 -36.5 1.83301 -55.5 5.5s-37.667 9.66699 -56 18s-35.833 19 -52.5 32s-31.334 29.167 -44.001 48.5h-3v-279h-61v689h61z" />
    <glyph glyph-name="q" unicode="q" horiz-adv-x="602" 
d="M278 458c-30 0 -57 -5.33203 -81 -15.999s-44.333 -25.334 -61 -44.001s-29.5 -40.834 -38.5 -66.501s-13.5 -53.5 -13.5 -83.5c0 -33.333 5.5 -62.833 16.5 -88.5s25.5 -47 43.5 -64s38.5 -29.833 61.5 -38.5s46.5 -13 70.5 -13c30 0 57.833 5.5 83.5 16.5
s48 25.833 67 44.5s33.833 40.334 44.5 65.001s16 50.667 16 78c0 26.667 -5 52.5 -15 77.5s-24.167 47.333 -42.5 67s-40.333 35.5 -66 47.5s-54.167 18 -85.5 18zM548 502.001v-688.999h-61v279h-3c-13.333 -19.333 -28.333 -35.5 -45 -48.5s-34.167 -23.667 -52.5 -32
s-37 -14.333 -56 -18s-37.5 -5.5 -55.5 -5.5c-35.333 0 -68.5 6.5 -99.5 19.5s-58 31.167 -81 54.5s-41 51 -54 83s-19.5 67.333 -19.5 106s6.5 74.167 19.5 106.5s31 60.166 54 83.499s50.167 41.333 81.5 54s65 19 101 19c26 0 49.667 -3 71 -9s40.333 -14.167 57 -24.5
s31.5 -22.5 44.5 -36.5s24.167 -28.667 33.5 -44h4v102h61z" />
    <glyph glyph-name="r" unicode="r" horiz-adv-x="336" 
d="M316 447c-13.333 4.66699 -27.333 7 -42 7c-21.333 0 -41.5 -5.16699 -60.5 -15.5s-36 -24.5 -51 -42.5s-26.833 -39 -35.5 -63s-13 -49.667 -13 -77v-256h-61v502h58v-106h3c13.333 40 37 70.833 71 92.5s73 32.5 117 32.5c5.33301 0 10.5 -0.166992 15.5 -0.5
s10.167 -0.833008 15.5 -1.5z" />
    <glyph glyph-name="s" unicode="s" horiz-adv-x="384" 
d="M312 409c-11.333 10.667 -22.833 19.333 -34.5 26s-22.667 11.667 -33 15s-20.166 5.5 -29.499 6.5s-17.333 1.5 -24 1.5c-18 0 -33.333 -2.5 -46 -7.5s-22.834 -11.333 -30.501 -19s-13.334 -16.5 -17.001 -26.5s-5.5 -20 -5.5 -30c0 -18.667 4 -33.334 12 -44.001
s18.5 -19.334 31.5 -26.001s27.667 -12 44 -16s32.833 -8.33301 49.5 -13c12 -3.33301 25.333 -8 40 -14s28.334 -14.333 41.001 -25s23.167 -24 31.5 -40s12.5 -36 12.5 -60c0 -22.667 -4.33301 -43.167 -13 -61.5s-20.834 -34 -36.501 -47s-34.5 -23 -56.5 -30
s-46 -10.5 -72 -10.5c-9.33301 0 -20 0.833008 -32 2.5s-25 5.33398 -39 11.001s-28.5 13.5 -43.5 23.5s-29.833 23.333 -44.5 40l40 43c5.33301 -6.66699 11.833 -13.834 19.5 -21.501s16.5 -14.667 26.5 -21s21.5 -11.5 34.5 -15.5s27.167 -6 42.5 -6
c30 0 56 7.83301 78 23.5s33 37.834 33 66.501c0 18 -3.83301 32.833 -11.5 44.5s-17.834 21.167 -30.501 28.5s-27.167 13.333 -43.5 18l-50.5 15c-11.333 3.33301 -24.166 7.83301 -38.499 13.5s-27.833 13.834 -40.5 24.501s-23.334 24.167 -32.001 40.5
s-13 36.5 -13 60.5c0 16 3.16699 32 9.5 48s16 30.5 29 43.5s29.333 23.5 49 31.5s43.167 12 70.5 12c24.667 0 50.334 -4 77.001 -12s53.334 -24 80.001 -48z" />
    <glyph glyph-name="t" unicode="t" horiz-adv-x="281" 
d="M72 625l60.999 0.00195312v-123h136v-56h-136v-312c0 -8.66699 0.666992 -18.334 2 -29.001s4.83301 -20.5 10.5 -29.5s14.5 -16.5 26.5 -22.5s29 -9 51 -9c7.33301 0 14.333 0.666992 21 2s15.334 4.66602 26.001 9.99902v-58c-18.667 -6.66699 -39 -10 -61 -10
c-18.667 0 -36.334 2.5 -53.001 7.5s-31.167 13.167 -43.5 24.5s-22.166 26 -29.499 44s-11 40 -11 66v316h-54l1 56h53v123z" />
    <glyph glyph-name="u" unicode="u" horiz-adv-x="506" 
d="M115 502l-0.000976562 -321.001c0 -8.66699 0.833008 -20.667 2.5 -36s6.16699 -30.5 13.5 -45.5s19 -28 35 -39s38.333 -16.5 67 -16.5c36 0 64.5 7.5 85.5 22.5s36.833 34 47.5 57s17.5 48.167 20.5 75.5s4.5 53 4.5 77v226h61v-502h-61v75h-2
c-11.333 -20 -24.5 -35.833 -39.5 -47.5s-30.167 -20.5 -45.5 -26.5s-29.833 -9.66699 -43.5 -11s-25.167 -2 -34.5 -2c-4.66699 0 -12.167 0.333008 -22.5 1s-22 2.83398 -35 6.50098s-26.167 9.16699 -39.5 16.5s-25.666 17.5 -36.999 30.5s-20.5 29.5 -27.5 49.5
s-10.5 44.333 -10.5 73v337h61z" />
    <glyph glyph-name="v" unicode="v" horiz-adv-x="500" 
d="M251 128l176 374h67l-242 -514h-2l-242 514h62z" />
    <glyph glyph-name="w" unicode="w" horiz-adv-x="841" 
d="M235 -12h-2l-225 514h61l165 -371l187 383l187 -383l165 371h61l-225 -514h-2l-186 397z" />
    <glyph glyph-name="x" unicode="x" horiz-adv-x="485" 
d="M85 502l150 -200h4l146 200h74l-181 -244l199 -258h-84l-155 209h-4l-148 -209h-82l195 256l-188 246h74z" />
    <glyph glyph-name="y" unicode="y" horiz-adv-x="517" 
d="M76 502l195 -354h4l169 354h63l-166.5 -350l-172.5 -339h-69l138 267l-230 422h69z" />
    <glyph glyph-name="z" unicode="z" horiz-adv-x="488" 
d="M57 502h410l-339 -446h322v-56h-444l337 446h-286v56z" />
    <glyph glyph-name="braceleft" unicode="{" horiz-adv-x="338" 
d="M66 299c8 1.33301 15.9971 4 23.9971 8s15.333 10.833 22 20.5s12 23 16 40s6 39.167 6 66.5v154c0 25.333 3.66699 45.5 11 60.5s16 26.5 26 34.5s20.667 13.167 32 15.5s21 3.5 29 3.5h17l24 -48h-26c-14 0 -25 -3 -33 -9s-14 -13 -18 -21s-6.5 -16.5 -7.5 -25.5
s-1.5 -16.5 -1.5 -22.5v-157c0 -33.333 -6.33301 -62.5 -19 -87.5s-29 -42.5 -49 -52.5v-1c10.667 -4.66699 20.334 -12.167 29.001 -22.5s15.834 -22.166 21.501 -35.499s10 -27.333 13 -42s4.5 -28.667 4.5 -42v-156c0 -6 0.5 -13.5 1.5 -22.5s3.5 -17.5 7.5 -25.5
s10 -15 18 -21s19 -9 33 -9h26l-24 -48h-17c-8 0 -17.667 1.16699 -29 3.5s-22 7.5 -32 15.5s-18.667 19.5 -26 34.5s-11 35.167 -11 60.5v153c0 28 -2.16699 50.667 -6.5 68s-9.66602 30.666 -15.999 39.999s-13.5 16 -21.5 20s-16 6.66699 -24 8v42z" />
    <glyph glyph-name="bar" unicode="|" horiz-adv-x="222" 
d="M82 686h58v-686h-58v686z" />
    <glyph glyph-name="braceright" unicode="}" horiz-adv-x="338" 
d="M272 257c-8 -1.33301 -16 -4 -24 -8s-15.167 -10.667 -21.5 -20s-11.666 -22.666 -15.999 -39.999s-6.5 -40 -6.5 -68v-153c0 -25.333 -3.66699 -45.5 -11 -60.5s-16 -26.5 -26 -34.5s-20.667 -13.167 -32 -15.5s-21 -3.5 -29 -3.5h-17l-24 48h26c14 0 25 3 33 9
s14 13 18 21s6.5 16.5 7.5 25.5s1.5 16.5 1.5 22.5v156c0 13.333 1.5 27.333 4.5 42s7.33301 28.667 13 42s12.667 25.166 21 35.499s18.166 17.833 29.499 22.5v1c-20 10 -36.333 27.5 -49 52.5s-19 54.167 -19 87.5v157c0 6 -0.5 13.5 -1.5 22.5s-3.5 17.5 -7.5 25.5
s-10 15 -18 21s-19 9 -33 9h-26l24 48h17c8 0 17.667 -1.16699 29 -3.5s22 -7.5 32 -15.5s18.667 -19.5 26 -34.5s11 -35.167 11 -60.5v-154c0 -27.333 2 -49.5 6 -66.5s9.33301 -30.333 16 -40s14 -16.5 22 -20.5s16 -6.66699 24 -8v-42z" />
    <glyph glyph-name="asciitilde" unicode="~" 
d="M531 275c-17.333 -28 -36.167 -49.3291 -56.5 -63.9961s-43.166 -22 -68.499 -22c-20.667 0 -39.5 3.83301 -56.5 11.5l-50.5 23.5c-23.333 11.333 -43.833 19.666 -61.5 24.999s-33.834 8 -48.501 8c-15.333 0 -30.5 -5.33301 -45.5 -16s-27.833 -29.334 -38.5 -56.001
l-36 42c4.66699 10 10.834 20.167 18.501 30.5s16.5 19.666 26.5 27.999s21.667 15 35 20s28.333 7.5 45 7.5c20.667 0 41 -3.83301 61 -11.5s41.667 -16.834 65 -27.501c18 -8 34.167 -14.833 48.5 -20.5s27.166 -8.5 38.499 -8.5c10 0 19.5 2.33301 28.5 7
s17.167 10.5 24.5 17.5s14 14.833 20 23.5s11 16.667 15 24z" />
    <glyph glyph-name="currency" unicode="&#xa4;" horiz-adv-x="539" 
d="M271 160c26 0 50.333 4.99902 73 14.999s42.5 23.833 59.5 41.5s30.5 38 40.5 61s15 47.5 15 73.5c0 25.333 -5 49.5 -15 72.5s-23.5 43.167 -40.5 60.5s-36.833 31 -59.5 41s-46.667 15 -72 15c-26 0 -50.667 -5 -74 -15s-43.833 -23.667 -61.5 -41
s-31.667 -37.666 -42 -60.999s-15.5 -48 -15.5 -74s5.16699 -50.5 15.5 -73.5s24.333 -43 42 -60s38 -30.5 61 -40.5s47.5 -15 73.5 -15zM74 197.999c-12 14.667 -21.5029 29.1689 -28.5029 43.502s-12.333 28.166 -16 41.499s-6 25.666 -7 36.999s-1.5 21 -1.5 29
c0 36.667 5.5 67.334 16.5 92.001s23.833 45 38.5 61l-56 57l40 40l57 -55c14.667 12 29.667 21.667 45 29s30 12.833 44 16.5s26.667 6 38 7s20.666 1.5 27.999 1.5c6.66699 0 15.334 -0.5 26.001 -1.5s22.834 -3.33301 36.501 -7s27.834 -9.16699 42.501 -16.5
s29.334 -17 44.001 -29l56 56l42 -42l-55 -54c11.333 -14 23 -33.5 35 -58.5s18 -56.5 18 -94.5c0 -20.667 -1.83301 -39.167 -5.5 -55.5s-8.16699 -30.833 -13.5 -43.5s-11 -23.5 -17 -32.5s-11.333 -16.5 -16 -22.5l53 -56l-40 -40l-54 58
c-25.333 -22 -51.5 -37 -78.5 -45s-51.833 -12 -74.5 -12c-20.667 0 -45.5 3.66699 -74.5 11s-56.5 22.666 -82.5 45.999l-54 -58l-40 40z" />
    <glyph glyph-name="brokenbar" unicode="&#xa6;" horiz-adv-x="222" 
d="M82 280h58v-290h-58v290zM82 686h58v-290h-58v290z" />
    <glyph glyph-name="section" unicode="&#xa7;" horiz-adv-x="473" 
d="M283 126c24.667 7.33301 43.834 19.833 57.501 37.5s20.5 38.167 20.5 61.5c0 12.667 -3.16699 23.5 -9.5 32.5s-13.166 17.167 -20.499 24.5l-140 136c-16.667 -5.33301 -30.334 -11.666 -41.001 -18.999s-19 -15 -25 -23s-10.167 -15.833 -12.5 -23.5
s-3.5 -14.5 -3.5 -20.5c0 -12.667 3.16699 -25.334 9.5 -38.001s14.166 -23.667 23.499 -33zM354 564c-4 10.667 -9.66699 21.4932 -17 32.4932s-16 20.833 -26 29.5s-21.167 15.667 -33.5 21s-25.833 8 -40.5 8c-26.667 0 -47.167 -7.66699 -61.5 -23
s-21.5 -33.333 -21.5 -54c0 -19.333 6.33301 -36.5 19 -51.5s28.667 -31.833 48 -50.5l141 -135c14 -13.333 27.333 -29.666 40 -48.999s19 -42.333 19 -69c0 -12.667 -2.16699 -25.667 -6.5 -39s-10.833 -26.166 -19.5 -38.499s-19.5 -23.5 -32.5 -33.5
s-28.5 -18 -46.5 -24l11 -11c16.667 -16.667 31.167 -34.167 43.5 -52.5s18.5 -41.5 18.5 -69.5c0 -11.333 -2.33301 -25 -7 -41s-13 -31.167 -25 -45.5s-28.167 -26.666 -48.5 -36.999s-46.166 -15.5 -77.499 -15.5c-35.333 0 -66.666 9.5 -93.999 28.5
s-48.666 44.5 -63.999 76.5l50 28c9.33301 -27.333 25 -48.333 47 -63s46.333 -22 73 -22c12.667 0 24.167 2.33301 34.5 7s19.166 10.834 26.499 18.501s12.833 16 16.5 25s5.5 18.167 5.5 27.5c0 14 -2.83301 27.333 -8.5 40s-12.834 24.667 -21.501 36
s-17.834 22 -27.501 32s-18.834 19 -27.501 27l-114 110c-9.33301 8.66699 -18.333 17.834 -27 27.501s-16.667 20.334 -24 32.001s-13.166 24.5 -17.499 38.5s-6.5 29.667 -6.5 47c0 24 8 46.833 24 68.5s43 39.834 81 54.501l-14 14c-13.333 13.333 -25.333 27 -36 41
s-16 32.667 -16 56c0 16 2.83301 32.167 8.5 48.5s14.5 31 26.5 44s27.167 23.667 45.5 32s40.5 12.5 66.5 12.5c36 0 68.833 -10.167 98.5 -30.5s52.5 -48.5 68.5 -84.5z" />
    <glyph glyph-name="copyright" unicode="&#xa9;" horiz-adv-x="794" 
d="M528 472c-11.333 9.33301 -27.3311 19.502 -47.998 30.502s-45 16.5 -73 16.5c-22.667 0 -44 -4.16699 -64 -12.5s-37.667 -20 -53 -35s-27.5 -33.333 -36.5 -55s-13.5 -45.5 -13.5 -71.5s4.33301 -49.833 13 -71.5s20.667 -40.334 36 -56.001s33.333 -27.667 54 -36
s43 -12.5 67 -12.5c19.333 0 39.166 3.5 59.499 10.5s39.166 18.833 56.499 35.5l35 -42c-15.333 -12.667 -30 -22.667 -44 -30s-27.333 -13 -40 -17s-24.5 -6.5 -35.5 -7.5s-21.5 -1.5 -31.5 -1.5c-38 0 -71.167 6.66699 -99.5 20s-52 30.833 -71 52.5
s-33.333 46.167 -43 73.5s-14.5 54.666 -14.5 81.999c0 30.667 5.66699 59.667 17 87s27 51.333 47 72s44 37 72 49s58.667 18 92 18c34 0 63.5 -5.5 88.5 -16.5s46.167 -24.167 63.5 -39.5zM703.002 344.002c0 42.667 -7.66699 82.667 -23 120s-36.5 69.833 -63.5 97.5
s-59 49.334 -96 65.001s-76.833 23.5 -119.5 23.5c-43.333 0 -83.5 -7.83301 -120.5 -23.5s-69.167 -37.334 -96.5 -65.001s-48.666 -60.167 -63.999 -97.5s-23 -77.333 -23 -120c0 -42 7.33301 -81.667 22 -119s35.334 -70 62.001 -98s58.667 -50.167 96 -66.5
s78.666 -24.5 123.999 -24.5c44.667 0 85.667 8.16699 123 24.5s69.166 38.5 95.499 66.5s46.833 60.667 61.5 98s22 77 22 119zM401.002 702.002c48.667 0 94.834 -9.33105 138.501 -27.998s81.834 -44.167 114.501 -76.5s58.667 -70.333 78 -114s29 -90.167 29 -139.5
c0 -50 -9.66699 -96.833 -29 -140.5s-45.333 -81.834 -78 -114.501s-70.834 -58.334 -114.501 -77.001s-89.834 -28 -138.501 -28c-49.333 0 -96 9.5 -140 28.5s-82.5 44.667 -115.5 77s-59 70.333 -78 114s-28.5 90.5 -28.5 140.5c0 49.333 9.5 95.666 28.5 138.999
s45 81.333 78 114s71.5 58.334 115.5 77.001s90.667 28 140 28z" />
    <glyph glyph-name="guillemotleft" unicode="&#xab;" horiz-adv-x="444" 
d="M358 390l34 -32l-110 -107l110 -107l-34 -32l-140 139zM214 390l34 -32l-110 -107l110 -107l-34 -32l-140 139z" />
    <glyph glyph-name="logicalnot" unicode="&#xac;" 
d="M493 321h-444v58h502v-280h-58v222z" />
    <glyph glyph-name="registered" unicode="&#xae;" horiz-adv-x="815" 
d="M333 351h58c34.667 0 61.667 8.33301 81 25s29 36.667 29 60c0 8.66699 -1.5 17.834 -4.5 27.501s-8.5 18.667 -16.5 27s-18.667 15.166 -32 20.499s-30 8 -50 8h-65v-168zM392 569c30.667 0 56.499 -4.16699 77.499 -12.5s37.833 -19 50.5 -32
s21.834 -27.167 27.501 -42.5s8.5 -30 8.5 -44c0 -16 -3 -31.167 -9 -45.5s-14.5 -27.333 -25.5 -39s-24.5 -21.167 -40.5 -28.5s-34 -11.333 -54 -12l145 -162l-46 -31l-190 219h-3v-208l-54 -11v449h113zM702.999 344c0 42.667 -7.66699 82.667 -23 120
s-36.5 69.833 -63.5 97.5s-59 49.334 -96 65.001s-76.833 23.5 -119.5 23.5c-43.333 0 -83.5 -7.83301 -120.5 -23.5s-69.167 -37.334 -96.5 -65.001s-48.666 -60.167 -63.999 -97.5s-23 -77.333 -23 -120c0 -42 7.33301 -81.667 22 -119s35.334 -70 62.001 -98
s58.667 -50.167 96 -66.5s78.666 -24.5 123.999 -24.5c44.667 0 85.667 8.16699 123 24.5s69.166 38.5 95.499 66.5s46.833 60.667 61.5 98s22 77 22 119zM400.999 -16c-49.333 0 -96 9.50195 -140 28.502s-82.5 44.667 -115.5 77s-59 70.333 -78 114
s-28.5 90.5 -28.5 140.5c0 49.333 9.5 95.666 28.5 138.999s45 81.333 78 114s71.5 58.334 115.5 77.001s90.667 28 140 28c48.667 0 94.834 -9.33301 138.501 -28s81.834 -44.167 114.501 -76.5s58.667 -70.333 78 -114s29 -90.167 29 -139.5
c0 -50 -9.66699 -96.833 -29 -140.5s-45.333 -81.834 -78 -114.501s-70.834 -58.334 -114.501 -77.001s-89.834 -28 -138.501 -28z" />
    <glyph glyph-name="degree" unicode="&#xb0;" horiz-adv-x="400" 
d="M200 416c-20 0 -38.667 3.66699 -56 11s-32.5 17.5 -45.5 30.5s-23.333 28.167 -31 45.5s-11.5 36 -11.5 56s3.83301 38.667 11.5 56s18 32.5 31 45.5s28.167 23.167 45.5 30.5s36 11 56 11s38.667 -3.66699 56 -11s32.5 -17.5 45.5 -30.5s23.333 -28.167 31 -45.5
s11.5 -36 11.5 -56s-3.83301 -38.667 -11.5 -56s-18 -32.5 -31 -45.5s-28.167 -23.167 -45.5 -30.5s-36 -11 -56 -11zM104 559c0 -11.333 1.83301 -22.5 5.5 -33.5s9.5 -21.167 17.5 -30.5s18 -16.833 30 -22.5s26.333 -8.5 43 -8.5s31 2.83301 43 8.5s22 13.167 30 22.5
s13.833 19.5 17.5 30.5s5.5 22.167 5.5 33.5c0 10.667 -1.83301 21.667 -5.5 33s-9.5 21.666 -17.5 30.999s-18 16.833 -30 22.5s-26.333 8.5 -43 8.5s-31 -2.83301 -43 -8.5s-22 -13.167 -30 -22.5s-13.833 -19.666 -17.5 -30.999s-5.5 -22.333 -5.5 -33z" />
    <glyph glyph-name="plusminus" unicode="&#xb1;" 
d="M49 58h502v-58h-502v58zM271 502h58v-172h222v-58h-222v-175h-58v175h-222v58h222v172z" />
    <glyph glyph-name="mu" unicode="&#xb5;" horiz-adv-x="506" 
d="M115 502l-0.000976562 -320c0 -11.333 0.5 -23 1.5 -35s3.5 -23.667 7.5 -35s10.333 -22 19 -32s20.667 -18.333 36 -25c15.333 -7.33301 33.333 -11 54 -11c37.333 0 66.5 7.66699 87.5 23s36.833 34.666 47.5 57.999s17.167 48.5 19.5 75.5s3.5 52.167 3.5 75.5v226h61
v-502h-61v75h-2c-10 -19.333 -21.667 -34.666 -35 -45.999s-27.166 -20 -41.499 -26s-28.5 -10 -42.5 -12s-26.667 -3 -38 -3c-17.333 0 -35.833 1.83301 -55.5 5.5s-40.167 13.5 -61.5 29.5v-199h-61v678h61z" />
    <glyph glyph-name="paragraph" unicode="&#xb6;" 
d="M266 313c-28 0 -54.5 4.49707 -79.5 13.4971s-46.667 21.667 -65 38s-32.833 35.833 -43.5 58.5s-16 47.334 -16 74.001c0 24 3.83301 47.333 11.5 70s20.167 42.834 37.5 60.501s40 31.834 68 42.501s62.333 16 103 16h223v-869h-58v821h-123v-821h-58v496z" />
    <glyph glyph-name="glyph113" unicode="&#xb7;" horiz-adv-x="300" 
d="M149 201c-11.333 0 -22.333 4.16699 -33 12.5s-16 20.833 -16 37.5s5.5 29.167 16.5 37.5s21.833 12.5 32.5 12.5c13.333 0 25.166 -5 35.499 -15s15.5 -21.667 15.5 -35s-5.16699 -25 -15.5 -35s-22.166 -15 -35.499 -15z" />
    <glyph glyph-name="guillemotright" unicode="&#xbb;" horiz-adv-x="444" 
d="M86 112l-34 32l110 107l-110 107l34 32l140 -139zM230 112l-34 32l110 107l-110 107l34 32l140 -139z" />
    <glyph glyph-name="circumflex" unicode="&#x2c6;" horiz-adv-x="275" 
d="M311 578l-66 -22l-105 71h-4l-105 -71l-66 22l173 123z" />
    <glyph glyph-name="tilde" unicode="&#x2dc;" horiz-adv-x="273" 
d="M-44 608c23.333 27.333 45.168 45.002 65.501 53.002s39.166 12 56.499 12c22 0 42.667 -4.33301 62 -13l30 -15.5c9.33301 -5 19.333 -7.5 30 -7.5c10 0 20.5 2.66699 31.5 8s20.833 13.666 29.5 24.999l59 -25c-6 -7.33301 -13.333 -14.833 -22 -22.5
s-18 -14.667 -28 -21s-20.667 -11.5 -32 -15.5s-23 -6 -35 -6c-14 0 -26.5 2 -37.5 6s-21.5 8.66699 -31.5 14c-8.66699 4 -17.5 7.66699 -26.5 11s-18.833 5 -29.5 5c-15.333 0 -28.333 -3.83301 -39 -11.5s-18.667 -14.834 -24 -21.501z" />
    <glyph glyph-name="afii10023" unicode="&#x401;" horiz-adv-x="498" 
d="M362 826l45 -53l-45 -53l-43 53zM188 826l45 -53l-45 -53l-43 53zM74 0v686h375v-64h-308v-242h275v-64h-275v-252h308v-64h-375z" />
    <glyph glyph-name="afii10051" unicode="&#x402;" horiz-adv-x="641" 
d="M243 624l-0.000976562 -146c16 4.66699 30 8.5 42 11.5s23.167 5.33301 33.5 7s20.166 2.83398 29.499 3.50098s19 1 29 1c51.333 0 91.833 -8 121.5 -24s51.834 -36.5 66.501 -61.5s23.834 -52.833 27.501 -83.5s5.5 -60.334 5.5 -89.001
c0 -49.333 -6 -90.666 -18 -123.999s-27.333 -60 -46 -80s-39.667 -34.167 -63 -42.5s-46.333 -12.5 -69 -12.5c-7.33301 0 -18 0.333008 -32 1s-29 3.33398 -45 8.00098l-11 70c12.667 -4 26 -7.5 40 -10.5s27.667 -4.5 41 -4.5c15.333 0 30.833 2.83301 46.5 8.5
s29.667 15.5 42 29.5s22.5 33.167 30.5 57.5s12 55.166 12 92.499c0 28 -1.5 54.167 -4.5 78.5s-9.66699 45.5 -20 63.5s-25.5 32.333 -45.5 43s-46.667 16 -80 16c-19.333 0 -40 -1.83301 -62 -5.5s-45.667 -9.83398 -71 -18.501v-413h-67v624h-161v62h429v-62h-201z" />
    <glyph glyph-name="afii10052" unicode="&#x403;" horiz-adv-x="404" 
d="M327 893l38 -62l-236 -101l-29 48zM74 0v686h307v-64h-240v-622h-67z" />
    <glyph glyph-name="afii10053" unicode="&#x404;" horiz-adv-x="583" 
d="M541 584c-7.33301 5.33301 -16.1631 11.1689 -26.4961 17.502s-22.333 12.166 -36 17.499s-28.834 9.83301 -45.501 13.5s-35 5.5 -55 5.5c-37.333 0 -72 -6 -104 -18s-60 -29.167 -84 -51.5s-43.5 -49.5 -58.5 -81.5s-23.5 -67.667 -25.5 -107h320v-64h-320
c2.66699 -38.667 11.667 -74.334 27 -107.001s35.333 -61 60 -85s53.167 -42.667 85.5 -56s67.166 -20 104.499 -20c30 0 58.333 5.16699 85 15.5s51 22.166 73 35.499l-10 -83c-26 -11.333 -54 -19.5 -84 -24.5s-56 -7.5 -78 -7.5c-44 0 -86.5 8.66699 -127.5 26
s-77.167 41.833 -108.5 73.5s-56.333 69.667 -75 114s-28 93.5 -28 147.5c0 50.667 8.83301 97.834 26.5 141.501s42.167 81.5 73.5 113.5s68.166 57 110.499 75s88.166 27 137.499 27c32 0 60.667 -3.33301 86 -10s47.333 -14 66 -22z" />
    <glyph glyph-name="afii10054" unicode="&#x405;" horiz-adv-x="487" 
d="M83 147c14.667 -28.667 35.498 -52.334 62.498 -71.001s58.5 -28 94.5 -28c20.667 0 39.834 3.16699 57.501 9.5s32.834 15 45.501 26s22.667 24.167 30 39.5s11 32 11 50c0 26 -5.66699 47.167 -17 63.5s-26.166 30 -44.499 41s-39.333 20.5 -63 28.5
s-47.5 16.667 -71.5 26c-16 6 -32.5 13.667 -49.5 23s-32.333 21.166 -46 35.499s-24.834 31.5 -33.501 51.5s-13 43.667 -13 71s5.16699 52.5 15.5 75.5s24.833 43 43.5 60s40.667 30.167 66 39.5s53 14 83 14c42 0 78.167 -8.66699 108.5 -26s55.166 -37.333 74.499 -60
l-49 -52c-14 20.667 -32.333 38.167 -55 52.5s-49.334 21.5 -80.001 21.5c-41.333 0 -74.166 -12 -98.499 -36s-36.5 -54.333 -36.5 -91c0 -20.667 4.33301 -38.167 13 -52.5s19.667 -26.5 33 -36.5s28.166 -18.333 44.499 -25s32.5 -12.667 48.5 -18
c20.667 -7.33301 42.834 -15.666 66.501 -24.999s45.167 -21.666 64.5 -36.999s35.5 -34.5 48.5 -57.5s19.5 -51.5 19.5 -85.5c0 -24.667 -4.66699 -48.5 -14 -71.5s-23.166 -43.167 -41.499 -60.5s-41 -31.333 -68 -42s-57.833 -16 -92.5 -16
c-12.667 0 -27.667 1.16699 -45 3.5s-35.5 7.66602 -54.5 15.999s-38 20.333 -57 36s-36.5 36.834 -52.5 63.501z" />
    <glyph glyph-name="glyph151" unicode="&#x406;" horiz-adv-x="227" 
d="M80 686l67 -1v-685h-67v686z" />
    <glyph glyph-name="afii10056" unicode="&#x407;" horiz-adv-x="215" 
d="M70 686h67v-686h-67v686zM165 813l50 -47l-50 -47l-47 47zM47 813l50 -47l-50 -47l-47 47z" />
    <glyph glyph-name="afii10057" unicode="&#x408;" horiz-adv-x="403" 
d="M329 686l-0.000976562 -516.999c0 -26.667 -3.83301 -51.334 -11.5 -74.001s-19.167 -42.167 -34.5 -58.5s-34.333 -29.166 -57 -38.499s-49 -14 -79 -14c-16.667 0 -36.167 2.66699 -58.5 8s-47.5 18.666 -75.5 39.999l34 54c13.333 -11.333 28.5 -20.5 45.5 -27.5
s34.167 -10.5 51.5 -10.5c12 0 25 1.83301 39 5.5s26.833 10.5 38.5 20.5s21.334 23.667 29.001 41s11.5 40 11.5 68v503h67z" />
    <glyph glyph-name="afii10058" unicode="&#x409;" horiz-adv-x="891" 
d="M617 64h15.001c46 0 83.667 11.5 113 34.5s44 55.5 44 97.5c0 32 -6.33301 56.833 -19 74.5s-27.834 30.667 -45.501 39s-35.5 13.5 -53.5 15.5s-32.333 3 -43 3h-131zM467.001 392h154.999c48.667 0 88.5 -6.5 119.5 -19.5s55.333 -29.333 73 -49
s29.834 -41.167 36.501 -64.5s10 -45 10 -65c0 -18.667 -3.33301 -39.334 -10 -62.001s-19 -43.667 -37 -63s-42.5 -35.666 -73.5 -48.999s-70.833 -20 -119.5 -20h-51l-246 552l-241 -552h-79l321 702z" />
    <glyph glyph-name="afii10059" unicode="&#x40a;" horiz-adv-x="953" 
d="M597 64l101.001 -0.000976562c49.333 0 87.833 11.833 115.5 35.5s41.5 55.834 41.5 96.501c0 16 -2.33301 31.667 -7 47s-13 29 -25 41s-28.333 21.833 -49 29.5s-47.334 11.5 -80.001 11.5h-97v-261zM141.001 685.999l-0.000976562 -296.998h389v297h67v-297h91
c48.667 0 88.5 -6.33301 119.5 -19s55.333 -28.834 73 -48.501s29.834 -40.834 36.501 -63.501s10 -44 10 -64c0 -22 -4 -44.5 -12 -67.5s-21.167 -43.833 -39.5 -62.5s-42.833 -34 -73.5 -46s-69 -18 -115 -18h-157v325h-389v-325h-67v686h67z" />
    <glyph glyph-name="afii10060" unicode="&#x40b;" horiz-adv-x="644" 
d="M243 478c32 9.33301 58.8301 15.5 80.4971 18.5s42.834 4.5 63.501 4.5c51.333 0 91 -7.16699 119 -21.5s48.5 -32.166 61.5 -53.499s20.667 -44.5 23 -69.5s3.5 -48.167 3.5 -69.5v-287h-67v282c0 18 -1 36.167 -3 54.5s-7.66699 35 -17 50s-23.5 27.167 -42.5 36.5
s-45.167 14 -78.5 14c-19.333 0 -41.666 -1.83301 -66.999 -5.5s-50.666 -9.83398 -75.999 -18.501v-413h-67v622h-161v64h429v-64h-201v-144z" />
    <glyph glyph-name="afii10061" unicode="&#x40c;" horiz-adv-x="559" 
d="M374 900l35 -64l-215 -104l-26 49zM141 0h-67v686h67v-318l276 318h87l-278 -321l314 -365h-92l-307 356v-356z" />
    <glyph glyph-name="afii10062" unicode="&#x40e;" horiz-adv-x="591" 
d="M242 109c-6 -12 -13.832 -22 -23.499 -30s-19.834 -14.167 -30.501 -18.5s-21.5 -7.5 -32.5 -9.5s-20.833 -3 -29.5 -3c-12.667 0 -25.5 2 -38.5 6s-25.167 9.66699 -36.5 17l-34 -54c22.667 -14 43.5 -23 62.5 -27s35.5 -6 49.5 -6c41.333 0 76.833 8.5 106.5 25.5
s51.5 39.833 65.5 68.5l273 608h-70l-192 -426h-6l-217 426h-72l260 -505zM192.001 824c11.333 -21.333 25.999 -37.499 43.999 -48.499s37.333 -16.5 58 -16.5c20 0 39.167 5.5 57.5 16.5s32.833 27.167 43.5 48.5l48 -20c-10 -23.333 -22.5 -41.333 -37.5 -54
s-29.833 -22.167 -44.5 -28.5s-28.167 -10.166 -40.5 -11.499s-21.166 -2 -26.499 -2c-20.667 0 -39 2.83301 -55 8.5s-30 13.167 -42 22.5s-22.333 19.666 -31 30.999s-15.667 22.666 -21 33.999z" />
    <glyph glyph-name="afii10145" unicode="&#x40f;" horiz-adv-x="667" 
d="M593 686v-686h-226v-150h-67v150h-226v686h67v-622h385v622h67z" />
    <glyph glyph-name="afii10017" unicode="&#x410;" horiz-adv-x="730" 
d="M475 333l-113 229l-114 -229h227zM641 0l-134 269h-291l-133 -269h-69l349 702h2l349 -702h-73z" />
    <glyph glyph-name="afii10018" unicode="&#x411;" horiz-adv-x="528" 
d="M141 64h111.002c30.667 0 56.334 4.33301 77.001 13s37.167 19.667 49.5 33s21 28 26 44s7.5 31 7.5 45c0 15.333 -2.83301 31 -8.5 47s-14.834 30.5 -27.501 43.5s-28.834 23.667 -48.501 32s-43.834 12.5 -72.501 12.5h-114v-270zM74.002 686l335.997 0.000976562v-64
h-269v-224h91c50.667 0 92.334 -6.66699 125.001 -20s58.334 -29.833 77.001 -49.5s31.667 -41.167 39 -64.5s11 -45 11 -65c0 -18 -3.16699 -38.333 -9.5 -61s-18.666 -44.334 -36.999 -65.001s-44 -38 -77 -52s-76.167 -21 -129.5 -21h-157v686z" />
    <glyph glyph-name="afii10019" unicode="&#x412;" horiz-adv-x="520" 
d="M141 64l131 -0.00390625c18.667 0 36 2.83301 52 8.5s30 13.834 42 24.501s21.333 23.5 28 38.5s10 31.5 10 49.5c0 18.667 -3.16699 35.834 -9.5 51.501s-15.5 29.334 -27.5 41.001s-26.167 20.834 -42.5 27.501s-34.5 10 -54.5 10h-129v-251zM141 378.996
l115 -0.000976562c24.667 0 45.334 3.83301 62.001 11.5s30.167 17.5 40.5 29.5s17.666 25 21.999 39s6.5 27.333 6.5 40c0 16.667 -3.16699 32.334 -9.5 47.001s-15.333 27.667 -27 39s-26.167 20.333 -43.5 27s-37 10 -59 10h-107v-243zM74 685.995h174.999
c32 0 60.833 -4.66699 86.5 -14s47.5 -22.166 65.5 -38.499s31.833 -35.333 41.5 -57s14.5 -44.834 14.5 -69.501c0 -32 -7.33301 -62 -22 -90s-39 -49.667 -73 -65v-3c32.667 -11.333 59.834 -30.666 81.501 -57.999s32.5 -62 32.5 -104
c0 -27.333 -4.83301 -52.333 -14.5 -75s-23.667 -42.334 -42 -59.001s-40.833 -29.667 -67.5 -39s-56.667 -14 -90 -14h-188v686z" />
    <glyph glyph-name="afii10020" unicode="&#x413;" horiz-adv-x="404" 
d="M74 0v686h307v-64h-240v-622h-67z" />
    <glyph glyph-name="afii10021" unicode="&#x414;" horiz-adv-x="711" 
d="M582 64l-224 497h-2l-225 -497h451zM5 0v64h57l294 638h2l293 -638h55v-64h-701z" />
    <glyph glyph-name="afii10022" unicode="&#x415;" horiz-adv-x="505" 
d="M74 0v686h376v-64h-309v-242h275v-64h-275v-252h309v-64h-376z" />
    <glyph glyph-name="afii10024" unicode="&#x416;" horiz-adv-x="850" 
d="M94 0h-88l303 365l-268 321h83l267 -318v318h67v-318l267 318h83l-268 -321l303 -365h-88l-297 356v-356h-67v356z" />
    <glyph glyph-name="afii10025" unicode="&#x417;" horiz-adv-x="500" 
d="M48 616c20 23.333 44.999 43.5 74.999 60.5s66 25.5 108 25.5c36 0 67 -5.5 93 -16.5s47.5 -25.167 64.5 -42.5s29.667 -36.666 38 -57.999s12.5 -42.666 12.5 -63.999c0 -36 -10.167 -67.667 -30.5 -95s-47.5 -47.666 -81.5 -60.999
c23.333 -6.66699 43.5 -16.334 60.5 -29.001s30.833 -27.334 41.5 -44.001s18.5 -34.5 23.5 -53.5s7.5 -38.167 7.5 -57.5c0 -28 -5 -54 -15 -78s-24.167 -44.833 -42.5 -62.5s-40.833 -31.5 -67.5 -41.5s-57 -15 -91 -15c-12.667 0 -27.667 1.16699 -45 3.5
s-35.5 7.66602 -54.5 15.999s-38 20.333 -57 36s-36.5 36.834 -52.5 63.501l52 44c14.667 -28.667 35.5 -52.334 62.5 -71.001s58.5 -28 94.5 -28c20 0 38.667 2.83301 56 8.5s32.5 14.167 45.5 25.5s23.333 25.333 31 42s11.5 36 11.5 58
c0 19.333 -3.16699 37.833 -9.5 55.5s-16.333 33 -30 46s-30.834 23.333 -51.501 31s-45.334 11.5 -74.001 11.5h-31v64h26c24.667 0 46.334 3.66699 65.001 11s34.334 17 47.001 29s22 25.833 28 41.5s9 32.167 9 49.5c0 14 -2.66699 28 -8 42s-13.5 26.5 -24.5 37.5
s-25 20 -42 27s-37.167 10.5 -60.5 10.5c-31.333 0 -58.166 -7 -80.499 -21s-40.5 -31.667 -54.5 -53z" />
    <glyph glyph-name="afii10026" unicode="&#x418;" horiz-adv-x="693" 
d="M141 151h2l469 551h7v-702h-67v538h-2l-469 -554h-7v702h67v-535z" />
    <glyph glyph-name="afii10027" unicode="&#x419;" horiz-adv-x="694" 
d="M242 831c8.66699 -21.333 22.334 -38.5 41.001 -51.5s39.667 -19.5 63 -19.5s44.333 6.5 63 19.5s32.334 30.167 41.001 51.5l54 -21c-14.667 -36 -36.834 -62 -66.501 -78s-60.167 -24 -91.5 -24s-61.833 8 -91.5 24s-51.834 42 -66.501 78zM141 151h2l470 551h7v-702
h-67v538h-2l-470 -554h-7v702h67v-535z" />
    <glyph glyph-name="afii10028" unicode="&#x41a;" horiz-adv-x="546" 
d="M141 0h-67v686h67v-318l277 318h83l-278 -321l314 -365h-89l-307 356v-356z" />
    <glyph glyph-name="afii10029" unicode="&#x41b;" horiz-adv-x="699" 
d="M615 0l-268 561h-4l-266 -561h-74l341 702h2l341 -702h-72z" />
    <glyph glyph-name="afii10030" unicode="&#x41c;" horiz-adv-x="740" 
d="M641 534l-268 -554h-2l-266 553l-4 -1v-532h-69v686h71l265 -565h4l271 565h71v-686h-69v533z" />
    <glyph glyph-name="afii10031" unicode="&#x41d;" horiz-adv-x="691" 
d="M141 686v-310h409v310h67v-686h-67v312h-409v-312h-67v686h67z" />
    <glyph glyph-name="afii10032" unicode="&#x41e;" horiz-adv-x="786" 
d="M98 345c0 -41.333 7.5 -80 22.5 -116s35.667 -67.5 62 -94.5s57.5 -48.167 93.5 -63.5s75 -23 117 -23s81 7.66699 117 23s67.167 36.5 93.5 63.5s47 58.5 62 94.5s22.5 74.667 22.5 116c0 34.667 -6.5 69.5 -19.5 104.5s-32 66.5 -57 94.5s-55.833 50.667 -92.5 68
s-78.667 26 -126 26s-89.333 -8.66699 -126 -26s-67.5 -40 -92.5 -68s-44 -59.5 -57 -94.5s-19.5 -69.833 -19.5 -104.5zM26 342c0 58 11.335 109.5 34.002 154.5s51.834 82.667 87.501 113s75.167 53.333 118.5 69s85.666 23.5 126.999 23.5s83.666 -7.83301 126.999 -23.5
s82.833 -38.667 118.5 -69s64.834 -68 87.501 -113s34 -96.5 34 -154.5c0 -46 -9 -90.667 -27 -134s-43.333 -81.5 -76 -114.5s-71.334 -59.5 -116.001 -79.5s-94 -30 -148 -30s-103.333 10 -148 30s-83.334 46.5 -116.001 79.5s-58 71.167 -76 114.5s-27 88 -27 134z" />
    <glyph glyph-name="afii10033" unicode="&#x41f;" horiz-adv-x="666" 
d="M74 0v686h518v-686h-67v624h-384v-624h-67z" />
    <glyph glyph-name="afii10034" unicode="&#x420;" horiz-adv-x="481" 
d="M141 289c10 -1.33301 19.832 -2.16992 29.499 -2.50293s19.5 -0.5 29.5 -0.5c32 0 59.5 4.83301 82.5 14.5s42 22.334 57 38.001s26 33.334 33 53.001s10.5 39.834 10.5 60.501c0 22 -3.83301 43.333 -11.5 64s-19.167 39.167 -34.5 55.5s-34.166 29.333 -56.499 39
s-47.833 14.5 -76.5 14.5h-63v-336zM73.999 685.996l117.001 0.00292969c48 0 88.667 -7.33301 122 -22s60.5 -33.334 81.5 -56.001s36.333 -47.834 46 -75.501s14.5 -54.834 14.5 -81.501c0 -31.333 -6.16699 -61 -18.5 -89s-29.833 -52.333 -52.5 -73
s-50.334 -37 -83.001 -49s-69 -18 -109 -18c-17.333 0 -34.333 1 -51 3v-225h-67v686z" />
    <glyph glyph-name="afii10035" unicode="&#x421;" horiz-adv-x="587" 
d="M547 584c-24 18.667 -49.498 32.333 -76.498 41s-54.833 13 -83.5 13c-49.333 0 -92.166 -9 -128.499 -27s-66.333 -41.333 -90 -70s-41.334 -60.667 -53.001 -96s-17.5 -70.333 -17.5 -105c0 -39.333 7.5 -76.666 22.5 -111.999s35.833 -66.333 62.5 -93
s57.667 -47.834 93 -63.501s73.666 -23.5 114.999 -23.5c20 0 43.667 4.16699 71 12.5s54 22.5 80 42.5l-10 -87c-20 -8.66699 -43.167 -16.167 -69.5 -22.5s-55.5 -9.5 -87.5 -9.5c-55.333 0 -104.5 11 -147.5 33s-79.5 50.333 -109.5 85s-52.833 73.5 -68.5 116.5
s-23.5 85.167 -23.5 126.5c0 47.333 9 92.5 27 135.5s43.167 81 75.5 114s70.666 59.167 114.999 78.5s92.5 29 144.5 29c19.333 0 42.333 -2 69 -6s53 -12.667 79 -26z" />
    <glyph glyph-name="afii10036" unicode="&#x422;" horiz-adv-x="448" 
d="M256 0h-67v622h-174v64h419v-64h-178v-622z" />
    <glyph glyph-name="afii10037" unicode="&#x423;" horiz-adv-x="589" 
d="M277 181l-260.001 505h72l217 -426h6l192 426h70l-273 -608c-14 -28.667 -35.833 -51.5 -65.5 -68.5s-65.167 -25.5 -106.5 -25.5c-14 0 -30.5 2 -49.5 6s-39.833 13 -62.5 27l34 54c11.333 -7.33301 23.5 -13 36.5 -17s25.833 -6 38.5 -6c8.66699 0 18.5 1 29.5 3
s21.833 5.16699 32.5 9.5s20.834 10.5 30.501 18.5s17.5 18 23.5 30z" />
    <glyph glyph-name="afii10038" unicode="&#x424;" horiz-adv-x="755" 
d="M411 107c37.333 1.33301 71.166 8.50195 101.499 21.502s56.166 30.333 77.499 52s37.833 46.5 49.5 74.5s17.5 57.333 17.5 88s-5.83301 60 -17.5 88s-28.167 52.667 -49.5 74s-47.166 38.666 -77.499 51.999s-64.166 20.666 -101.499 21.999v-472zM344 579.002
c-37.333 -2 -70.9971 -9.66895 -100.997 -23.002s-55.833 -30.5 -77.5 -51.5s-38.334 -45.5 -50.001 -73.5s-17.5 -57.333 -17.5 -88c0 -31.333 5.83301 -60.833 17.5 -88.5s28.167 -52.167 49.5 -73.5s47.166 -38.666 77.499 -51.999s64.166 -20.666 101.499 -21.999v472z
M411.003 643c48.667 -2 92.666 -11.6689 131.999 -29.002s72.833 -39.666 100.5 -66.999s48.834 -58.5 63.501 -93.5s22 -71.833 22 -110.5c0 -37.333 -7.33301 -73.666 -22 -108.999s-35.667 -66.833 -63 -94.5s-60.666 -50.167 -99.999 -67.5s-83.666 -27 -132.999 -29
v-98h-67v98c-49.333 2 -93.5 11.667 -132.5 29s-72.333 39.833 -100 67.5s-48.834 59 -63.501 94s-22 71.5 -22 109.5c0 38.667 7.5 75.667 22.5 111s36.167 66.5 63.5 93.5s60.666 49 99.999 66s83.333 26.833 132 29.5v103h67v-103z" />
    <glyph glyph-name="afii10039" unicode="&#x425;" horiz-adv-x="635" 
d="M108 686l198 -266l2 -1l191 267h83l-235 -323l277 -363h-85l-230 307h-2l-221 -307h-81l263 363l-239 323h79z" />
    <glyph glyph-name="afii10040" unicode="&#x426;" horiz-adv-x="662" 
d="M592 686v-826h-67v140h-451v686h67v-622h384v622h67z" />
    <glyph glyph-name="afii10041" unicode="&#x427;" horiz-adv-x="593" 
d="M518 685l0.00488281 -684.998h-67v292c-10.667 -2.66699 -23.334 -5.5 -38.001 -8.5s-30.167 -5.66699 -46.5 -8s-33.333 -4.33301 -51 -6s-34.834 -2.5 -51.501 -2.5c-50.667 0 -89.834 7.5 -117.501 22.5s-47.834 33.667 -60.501 56s-20.167 46.166 -22.5 71.499
s-3.5 48.666 -3.5 69.999v199l67 -1v-200c0 -18.667 0.833008 -37.167 2.5 -55.5s7.5 -34.833 17.5 -49.5s25.5 -26.5 46.5 -35.5s50.833 -13.5 89.5 -13.5c21.333 0 46.166 1.5 74.499 4.5s59.5 9.16699 93.5 18.5v332z" />
    <glyph glyph-name="afii10042" unicode="&#x428;" horiz-adv-x="949" 
d="M508 686v-622h300v622h67v-686h-801v686h67v-622h300v622h67z" />
    <glyph glyph-name="afii10043" unicode="&#x429;" horiz-adv-x="949" 
d="M508 686v-622h300v622h67v-826h-67v140h-734v686h67v-622h300v622h67z" />
    <glyph glyph-name="afii10044" unicode="&#x42a;" horiz-adv-x="626" 
d="M249 64h110.999c52.667 0 93.834 12.833 123.501 38.5s44.5 59.167 44.5 100.5c0 18.667 -3.66699 36.5 -11 53.5s-18 31.833 -32 44.5s-31.167 22.667 -51.5 30s-43.833 11 -70.5 11h-114v-278zM181.999 622l-164.996 -0.00195312v64h232v-280h91
c39.333 0 73.166 -4 101.499 -12s52.166 -18.167 71.499 -30.5s34.666 -26.166 45.999 -41.499s20.166 -30.5 26.499 -45.5s10.333 -29.167 12 -42.5s2.5 -23.666 2.5 -30.999c0 -23.333 -4.16699 -47 -12.5 -71s-22.5 -45.833 -42.5 -65.5s-46.667 -35.667 -80 -48
s-75.333 -18.5 -126 -18.5h-157v622z" />
    <glyph glyph-name="afii10045" unicode="&#x42b;" horiz-adv-x="730" 
d="M589 686l67 -1v-685h-67v686zM141 64h110.999c52.667 0 93.834 12.833 123.501 38.5s44.5 59.167 44.5 100.5c0 18.667 -3.66699 36.5 -11 53.5s-18 31.833 -32 44.5s-31.167 22.667 -51.5 30s-43.833 11 -70.5 11h-114v-278zM73.999 686l67.0039 -1.00195v-279h91
c39.333 0 73.166 -4 101.499 -12s52.166 -18.167 71.499 -30.5s34.666 -26.166 45.999 -41.499s20.166 -30.5 26.499 -45.5s10.333 -29.167 12 -42.5s2.5 -23.666 2.5 -30.999c0 -23.333 -4.16699 -47 -12.5 -71s-22.5 -45.833 -42.5 -65.5s-46.667 -35.667 -80 -48
s-75.333 -18.5 -126 -18.5h-157v686z" />
    <glyph glyph-name="afii10046" unicode="&#x42c;" horiz-adv-x="518" 
d="M141 64h110.999c52.667 0 93.834 12.833 123.501 38.5s44.5 59.167 44.5 100.5c0 18.667 -3.66699 36.5 -11 53.5s-18 31.833 -32 44.5s-31.167 22.667 -51.5 30s-43.833 11 -70.5 11h-114v-278zM73.999 686l67.0039 -0.00195312v-280h91c39.333 0 73.166 -4 101.499 -12
s52.166 -18.167 71.499 -30.5s34.666 -26.166 45.999 -41.499s20.166 -30.5 26.499 -45.5s10.333 -29.167 12 -42.5s2.5 -23.666 2.5 -30.999c0 -23.333 -4.16699 -47 -12.5 -71s-22.5 -45.833 -42.5 -65.5s-46.667 -35.667 -80 -48s-75.333 -18.5 -126 -18.5h-157v686z" />
    <glyph glyph-name="afii10047" unicode="&#x42d;" horiz-adv-x="567" 
d="M41 670c18.667 8 40.6699 15.3301 66.0029 21.9971s54 10 86 10c49.333 0 95.166 -9 137.499 -27s79.166 -43 110.499 -75s55.833 -69.833 73.5 -113.5s26.5 -90.834 26.5 -141.501c0 -54 -9.33301 -103.167 -28 -147.5s-43.667 -82.333 -75 -114
s-67.5 -56.167 -108.5 -73.5s-83.5 -26 -127.5 -26c-22 0 -48 2.5 -78 7.5s-58 13.167 -84 24.5l-10 83c22 -13.333 46.333 -25.166 73 -35.499s55 -15.5 85 -15.5c37.333 0 72.166 6.66699 104.499 20s60.833 32 85.5 56s44.5 52.333 59.5 85s24.167 68.334 27.5 107.001
h-320v64h320c-2 39.333 -10.5 75 -25.5 107s-34.5 59.167 -58.5 81.5s-52.167 39.5 -84.5 51.5s-66.833 18 -103.5 18c-20 0 -38.333 -1.83301 -55 -5.5s-31.834 -8.16699 -45.501 -13.5s-25.667 -11.166 -36 -17.499s-19.166 -12.166 -26.499 -17.499z" />
    <glyph glyph-name="afii10048" unicode="&#x42e;" horiz-adv-x="1002" 
d="M609 638c-40 0 -77.999 -7.66797 -113.999 -23.001s-67.333 -36.333 -94 -63s-47.834 -58 -63.501 -94s-23.5 -74.333 -23.5 -115s7.83301 -78.834 23.5 -114.501s36.834 -66.834 63.501 -93.501s57.834 -47.834 93.501 -63.501s73.834 -23.5 114.501 -23.5
s79 7.83301 115 23.5s67.333 36.834 94 63.501s47.667 58 63 94s23 74 23 114c0 40.667 -7.83301 78.834 -23.5 114.501s-36.834 66.834 -63.501 93.501s-57.834 47.834 -93.501 63.501s-73.834 23.5 -114.501 23.5zM244.001 379.999
c6.66699 55.333 22.665 103.169 47.998 143.502s55.333 73.833 90 100.5s72 46.334 112 59.001s78.333 19 115 19c50 0 97.333 -9.33301 142 -28s83.667 -44.334 117 -77.001s59.666 -70.667 78.999 -114s29 -90 29 -140c0 -49.333 -9.66699 -95.833 -29 -139.5
s-45.666 -81.834 -78.999 -114.501s-72.166 -58.334 -116.499 -77.001s-91.833 -28 -142.5 -28c-46 0 -90 8 -132 24s-79.333 38.667 -112 68s-59.667 64.333 -81 105s-34.666 85.667 -39.999 135h-103v-316h-67v686h67v-306h103z" />
    <glyph glyph-name="afii10049" unicode="&#x42f;" horiz-adv-x="511" 
d="M290 622c-24 0 -45.334 -3.99902 -64.001 -11.999s-34.167 -18.5 -46.5 -31.5s-21.833 -28 -28.5 -45s-10 -34.833 -10 -53.5c0 -20.667 3.66699 -39.834 11 -57.501s17.5 -33 30.5 -46s28.333 -23.333 46 -31s36.834 -11.5 57.501 -11.5h84v288h-80z
M436.999 0.000976562l-67 -0.000976562v326h-4l-271 -326h-91l241 284c-28 2 -53 8.66699 -75 20s-40.5 26 -55.5 44s-26.333 38.333 -34 61s-11.5 46.667 -11.5 72c0 26.667 4.66699 52.334 14 77.001s23.333 46.5 42 65.5s42.167 34.167 70.5 45.5s61.5 17 99.5 17h142
v-686z" />
    <glyph glyph-name="afii10065" unicode="&#x430;" horiz-adv-x="460" 
d="M205 293c-20 0 -37.833 -3.33398 -53.5 -10.001s-28.834 -15.5 -39.501 -26.5s-18.834 -23.667 -24.501 -38s-8.5 -29.166 -8.5 -44.499s2.66699 -30.666 8 -45.999s13.333 -29.333 24 -42s24.334 -22.834 41.001 -30.501s36.334 -11.5 59.001 -11.5
c22 0 41.333 3.5 58 10.5s30.667 16.167 42 27.5s19.833 24.333 25.5 39s8.5 30 8.5 46c0 15.333 -2.83301 30.5 -8.5 45.5s-14.167 28.5 -25.5 40.5s-25.833 21.667 -43.5 29s-38.5 11 -62.5 11zM89 486.999c16.667 6 36.999 11.9971 60.999 17.9971s49.667 9 77 9
c44 0 78.167 -7 102.5 -21s42.166 -30 53.499 -48s18 -35.667 20 -53s3 -29.333 3 -36v-356h-58v60h-3c-17.333 -27.333 -39.166 -46.166 -65.499 -56.499s-52.5 -15.5 -78.5 -15.5c-24.667 0 -48.167 4.16699 -70.5 12.5s-42 20.333 -59 36s-30.5 34.834 -40.5 57.501
s-15 48 -15 76c0 29.333 5.33301 55.166 16 77.499s24.834 41 42.501 56s37.5 26.333 59.5 34s44.333 11.5 67 11.5c23.333 0 48 -4.66699 74 -14s48.667 -25.666 68 -48.999h2v76c0 28.667 -11 51.834 -33 69.501s-51 26.5 -87 26.5c-23.333 0 -46.5 -3.33301 -69.5 -10
s-43.833 -13.667 -62.5 -21l-29 -12z" />
    <glyph glyph-name="afii10066" unicode="&#x431;" horiz-adv-x="562" 
d="M92 245c0 -29.333 5.16602 -56.334 15.499 -81.001s24.333 -45.834 42 -63.501s38.334 -31.5 62.001 -41.5s48.5 -15 74.5 -15c25.333 0 49.666 4.66699 72.999 14s43.833 22.833 61.5 40.5s31.667 38.834 42 63.501s15.5 52.334 15.5 83.001
c0 28.667 -4.66699 55.334 -14 80.001s-22.166 46 -38.499 64s-36 32 -59 42s-48.167 15 -75.5 15c-28 0 -54.167 -4.83301 -78.5 -14.5s-45.333 -23.167 -63 -40.5s-31.667 -38.333 -42 -63s-15.5 -52.334 -15.5 -83.001zM291.999 501.999
c29.333 0 58.832 -5.33105 88.499 -15.998s56.334 -26.834 80.001 -48.501s43 -48.5 58 -80.5s22.5 -69.333 22.5 -112c0 -40.667 -7.16699 -77 -21.5 -109s-33.333 -59 -57 -81s-51 -38.667 -82 -50s-62.833 -17 -95.5 -17c-34 0 -67 6.5 -99 19.5
s-60.167 32.833 -84.5 59.5s-43.833 60.667 -58.5 102s-22 90.666 -22 147.999c0 50.667 5 95.167 15 133.5s25 72.166 45 101.499s44.667 55 74 77s63.333 41.667 102 59l203 92l34 -56c-55.333 -26 -107.5 -48.833 -156.5 -68.5s-92.5 -41.167 -130.5 -64.5
s-69 -51.666 -93 -84.999s-38.333 -76.333 -43 -129l-2 -23h4c10 26 23 48.333 39 67s33.667 34 53 46s40 20.833 62 26.5s43.667 8.5 65 8.5z" />
    <glyph glyph-name="afii10067" unicode="&#x432;" horiz-adv-x="450" 
d="M115 56l127.999 0.000976562c20.667 0 38.334 2.5 53.001 7.5s26.5 11.5 35.5 19.5s15.5 17.167 19.5 27.5s6 21.166 6 32.499c0 6 -1 14.167 -3 24.5s-7.16699 20.5 -15.5 30.5s-20.833 18.667 -37.5 26s-39.667 11 -69 11h-117v-179zM114.999 287.001l114 -0.00292969
c18 0 33.5 2.33301 46.5 7s23.667 10.834 32 18.501s14.5 16.334 18.5 26.001s6 19.834 6 30.501c0 19.333 -7.66699 37 -23 53s-38.333 24 -69 24h-125v-159zM228.999 501.998c32.667 0 59.6641 -4.33301 80.9971 -13s38.333 -19.334 51 -32.001s21.5 -26.5 26.5 -41.5
s7.5 -28.5 7.5 -40.5c0 -18.667 -5.33301 -38.167 -16 -58.5s-28 -36.5 -52 -48.5v-2c16 -4.66699 29.833 -11.5 41.5 -20.5s21.334 -19.167 29.001 -30.5s13.334 -23.333 17.001 -36s5.5 -25.334 5.5 -38.001c0 -14 -2.66699 -29.167 -8 -45.5
s-14.666 -31.666 -27.999 -45.999s-31.833 -26.166 -55.5 -35.499s-53.5 -14 -89.5 -14h-185v502h175z" />
    <glyph glyph-name="afii10068" unicode="&#x433;" horiz-adv-x="340" 
d="M323 502v-56h-208v-446h-61v502h269z" />
    <glyph glyph-name="afii10069" unicode="&#x434;" horiz-adv-x="507" 
d="M396 56l-143 324h-2l-138 -324h283zM3 0v56h46l202 458h2l205 -458h46v-56h-501z" />
    <glyph glyph-name="afii10070" unicode="&#x435;" horiz-adv-x="552" 
d="M283 44c34 0 65.332 8.16797 93.999 24.501s52 38.166 70 65.499h71c-10.667 -21.333 -24.167 -41 -40.5 -59s-34.5 -33.5 -54.5 -46.5s-41.833 -23 -65.5 -30s-48.5 -10.5 -74.5 -10.5c-36 0 -70 6.83301 -102 20.5s-59.833 32.5 -83.5 56.5s-42.334 52 -56.001 84
s-20.5 66 -20.5 102c0 36.667 6.33301 71 19 103s30.334 59.833 53.001 83.5s49.334 42.334 80.001 56.001s64 20.5 100 20.5c40.667 0 77 -6.83301 109 -20.5s59 -32.334 81 -56.001s38.667 -51.5 50 -83.5s17 -66.333 17 -103h-446c0 -28 5.33301 -54.667 16 -80
s25 -47.333 43 -66s39 -33.5 63 -44.5s49.667 -16.5 77 -16.5zM459.999 306.001c-3.33301 22 -10.167 42.167 -20.5 60.5s-23.5 34.333 -39.5 48s-34.833 24.334 -56.5 32.001s-45.167 11.5 -70.5 11.5c-22.667 0 -43.834 -3.83301 -63.501 -11.5
s-37.167 -18.334 -52.5 -32.001s-28.666 -29.667 -39.999 -48s-20 -38.5 -26 -60.5h369z" />
    <glyph glyph-name="afii10072" unicode="&#x436;" horiz-adv-x="678" 
d="M367 0h-61v256l-227 -256h-74l240 268l-208 234h67l202 -232v232h61v-232l202 232h68l-209 -234l240 -268h-74l-227 256v-256z" />
    <glyph glyph-name="afii10073" unicode="&#x437;" horiz-adv-x="392" 
d="M27 450c27.333 26.667 54.6689 44.001 82.002 52.001s52.333 12 75 12c28.667 0 53.167 -4.33301 73.5 -13s36.833 -19.667 49.5 -33s22 -27.833 28 -43.5s9 -30.834 9 -45.501c0 -26 -7.16699 -48.833 -21.5 -68.5s-33.5 -34.167 -57.5 -43.5v-2
c32 -8.66699 56.167 -24.167 72.5 -46.5s24.5 -48.5 24.5 -78.5c0 -19.333 -3.5 -38 -10.5 -56s-17.667 -34.167 -32 -48.5s-32.833 -25.833 -55.5 -34.5s-49.334 -13 -80.001 -13c-9.33301 0 -20 0.833008 -32 2.5s-25 5.33398 -39 11.001s-28.5 13.5 -43.5 23.5
s-29.833 23.333 -44.5 40l40 43c13.333 -17.333 30.333 -32.333 51 -45s44.667 -19 72 -19c30 0 56 8.33301 78 25s33 40 33 70c0 22.667 -5 40.334 -15 53.001s-22.167 22 -36.5 28s-29.333 9.66699 -45 11s-29.167 2 -40.5 2h-20v56h20c24.667 0 44.667 2.66699 60 8
s27.333 12.166 36 20.499s14.667 17.666 18 27.999s5 20.166 5 29.499c0 21.333 -8 40.5 -24 57.5s-41 25.5 -75 25.5c-6 0 -13.5 -0.5 -22.5 -1.5s-18.833 -3.16699 -29.5 -6.5s-21.834 -8.66602 -33.501 -15.999s-23.5 -17 -35.5 -29z" />
    <glyph glyph-name="afii10074" unicode="&#x438;" horiz-adv-x="521" 
d="M462 514h5v-514h-61v374l-347 -386h-5v514h61v-375z" />
    <glyph glyph-name="afii10075" unicode="&#x439;" horiz-adv-x="521" 
d="M164 687c8.66699 -16.667 20.998 -31.001 36.998 -43.001s35.667 -18 59 -18s43 6 59 18s28.333 26.333 37 43l44 -18c-12.667 -28 -31.167 -50.167 -55.5 -66.5s-52.5 -24.5 -84.5 -24.5c-19.333 0 -36.666 2.83301 -51.999 8.5s-28.666 12.834 -39.999 21.501
s-21 18.5 -29 29.5s-14.333 21.5 -19 31.5zM461.998 513.999h5v-514h-61v374l-347 -386h-5v514h61v-375z" />
    <glyph glyph-name="afii10076" unicode="&#x43a;" horiz-adv-x="456" 
d="M115 0h-61v502h61v-238l213 238h72l-221 -240l262 -262h-81l-245 250v-250z" />
    <glyph glyph-name="afii10077" unicode="&#x43b;" horiz-adv-x="480" 
d="M236 514l237 -514h-60l-176 374h-4l-167 -374h-63l231 514h2z" />
    <glyph glyph-name="afii10078" unicode="&#x43c;" horiz-adv-x="535" 
d="M435 355l-170 -367h-2l-166 367l-4 -1v-354h-61v502h61l169 -374h4l173 374h62v-502h-62v354z" />
    <glyph glyph-name="afii10079" unicode="&#x43d;" horiz-adv-x="506" 
d="M115 502v-220h276v220h61v-502h-61v226h-276v-226h-61v502h61z" />
    <glyph glyph-name="afii10080" unicode="&#x43e;" horiz-adv-x="566" 
d="M84 251c0 -28 5.33203 -54.667 15.999 -80s25 -47.333 43 -66s39 -33.5 63 -44.5s49.667 -16.5 77 -16.5c28 0 54 5.5 78 16.5s45 26 63 45s32.167 41 42.5 66s15.5 51.5 15.5 79.5s-5.16699 54.667 -15.5 80s-24.5 47.333 -42.5 66s-39.167 33.5 -63.5 44.5
s-50.166 16.5 -77.499 16.5s-53 -5.5 -77 -16.5s-45 -25.833 -63 -44.5s-32.333 -40.5 -43 -65.5s-16 -51.833 -16 -80.5zM20.999 251c0 36.667 6.83496 71 20.502 103s32.5 59.833 56.5 83.5s51.833 42.334 83.5 56.001s65.5 20.5 101.5 20.5s69.833 -6.83301 101.5 -20.5
s59.5 -32.334 83.5 -56.001s42.833 -51.5 56.5 -83.5s20.5 -66.333 20.5 -103c0 -36 -6.83301 -70 -20.5 -102s-32.334 -60 -56.001 -84s-51.5 -42.833 -83.5 -56.5s-66 -20.5 -102 -20.5s-70 6.83301 -102 20.5s-59.833 32.5 -83.5 56.5s-42.334 52 -56.001 84
s-20.5 66 -20.5 102z" />
    <glyph glyph-name="afii10081" unicode="&#x43f;" horiz-adv-x="501" 
d="M447 502v-502h-61v446h-271v-446h-61v502h393z" />
    <glyph glyph-name="afii10082" unicode="&#x440;" horiz-adv-x="601" 
d="M316 458c-29.333 0 -56.333 -5.83594 -81 -17.5029s-45.834 -27.167 -63.501 -46.5s-31.5 -41.666 -41.5 -66.999s-15 -51.666 -15 -78.999c0 -30 5.83301 -57.5 17.5 -82.5s27.167 -46.5 46.5 -64.5s41.5 -32 66.5 -42s50.5 -15 76.5 -15
c26.667 0 51.834 4.83301 75.501 14.5s44.334 23.5 62.001 41.5s31.667 39.5 42 64.5s15.5 52.833 15.5 83.5c0 31.333 -5 59.833 -15 85.5s-23.833 47.834 -41.5 66.501s-38.834 33 -63.501 43s-51.667 15 -81 15zM115 501.997l0.00195312 -102h4
c23.333 38 52 66.5 86 85.5s72.667 28.5 116 28.5c39.333 0 75 -6.66699 107 -20s59.167 -31.833 81.5 -55.5s39.666 -51.5 51.999 -83.5s18.5 -66.667 18.5 -104c0 -38.667 -6.66699 -74 -20 -106s-31.5 -59.667 -54.5 -83s-49.833 -41.5 -80.5 -54.5
s-63.667 -19.5 -99 -19.5c-18 0 -36.5 1.83301 -55.5 5.5s-37.667 9.66699 -56 18s-35.833 19 -52.5 32s-31.334 29.167 -44.001 48.5h-3v-279h-61v689h61z" />
    <glyph glyph-name="afii10083" unicode="&#x441;" horiz-adv-x="490" 
d="M423 404c-42 36 -88.999 53.999 -140.999 53.999c-26.667 0 -52 -4.83301 -76 -14.5s-45 -23.5 -63 -41.5s-32.333 -39.667 -43 -65s-16 -53.666 -16 -84.999c0 -25.333 4.16699 -50.333 12.5 -75s20.833 -46.834 37.5 -66.501s37.667 -35.667 63 -48
s54.666 -18.5 87.999 -18.5c52.667 0 98 17.667 136 53l37 -46c-16.667 -13.333 -33 -24.166 -49 -32.499s-31.333 -14.833 -46 -19.5s-28.667 -7.66699 -42 -9s-25.333 -2 -36 -2c-44 0 -82.5 8 -115.5 24s-60.5 36.5 -82.5 61.5s-38.5 53.167 -49.5 84.5
s-16.5 62.666 -16.5 93.999c0 35.333 6.66699 68.833 20 100.5s31.666 59.5 54.999 83.5s51.333 43 84 57s68 21 106 21c38.667 0 72.334 -6.16699 101.001 -18.5s53 -27.166 73 -44.499z" />
    <glyph glyph-name="afii10084" unicode="&#x442;" horiz-adv-x="357" 
d="M5 446v56h346v-56h-145v-446h-61v446h-140z" />
    <glyph glyph-name="afii10085" unicode="&#x443;" horiz-adv-x="548" 
d="M256 47l-235.997 455.001h70l198 -382h4l171 382h65l-136.5 -307c-43.667 -102 -89.834 -202.333 -138.501 -301c-9.33301 -18 -20.333 -32.167 -33 -42.5s-25.834 -18.166 -39.501 -23.499s-26.667 -8.83301 -39 -10.5s-22.833 -2.5 -31.5 -2.5s-19.5 0.666992 -32.5 2
s-26.5 4.66602 -40.5 9.99902l19 51c7.33301 -2 14.333 -3.66699 21 -5s13.667 -2 21 -2c28.667 0 51.167 5.66699 67.5 17s28.166 24.666 35.499 39.999z" />
    <glyph glyph-name="afii10086" unicode="&#x444;" horiz-adv-x="605" 
d="M333 56c28.667 1.33301 54.667 8 78 20s43.166 27 59.499 45s28.833 38.333 37.5 61s13 45.667 13 69c0 24 -4.33301 47.333 -13 70s-21.167 43 -37.5 61s-36.166 32.833 -59.499 44.5s-49.333 18.167 -78 19.5v-390zM272 446
c-28.667 -1.33301 -54.668 -7.83301 -78.001 -19.5s-43.166 -26.5 -59.499 -44.5s-28.833 -38.333 -37.5 -61s-13 -46 -13 -70c0 -23.333 4.33301 -46.333 13 -69s21.167 -43 37.5 -61s36 -33 59 -45s49.167 -18.667 78.5 -20v390zM332.999 686v-184
c38 -2 72.5 -10.5 103.5 -25.5s57.5 -34 79.5 -57s38.833 -49 50.5 -78s17.5 -59.167 17.5 -90.5c0 -30 -5.66699 -59.5 -17 -88.5s-27.833 -55.167 -49.5 -78.5s-48 -42.666 -79 -57.999s-66.167 -24 -105.5 -26v-187h-61v187c-39.333 2 -74.5 10.667 -105.5 26
s-57.333 34.666 -79 57.999s-38.167 49.5 -49.5 78.5s-17 58.5 -17 88.5c0 31.333 5.83301 61.5 17.5 90.5s28.5 55 50.5 78s48.5 42 79.5 57s65.5 23.5 103.5 25.5v184h61z" />
    <glyph glyph-name="afii10087" unicode="&#x445;" horiz-adv-x="485" 
d="M85 502l150 -200h4l146 200h74l-181 -244l199 -258h-84l-155 209h-4l-148 -209h-82l195 256l-188 246h74z" />
    <glyph glyph-name="afii10088" unicode="&#x446;" horiz-adv-x="498" 
d="M447 502v-619h-61v117h-332v502h61v-446h271v446h61z" />
    <glyph glyph-name="afii10089" unicode="&#x447;" horiz-adv-x="462" 
d="M408 502l-0.00195312 -501.999h-61v208c-17.333 -4.66699 -38.5 -9.5 -63.5 -14.5s-50.167 -7.5 -75.5 -7.5c-39.333 0 -70.166 6 -92.499 18s-39.166 27.167 -50.499 45.5s-18.333 38.666 -21 60.999s-4 43.5 -4 63.5v128h61v-121c0 -18 0.666992 -35.333 2 -52
s5.5 -31.5 12.5 -44.5s18.333 -23.333 34 -31s37.5 -11.5 65.5 -11.5c15.333 0 33.5 1.33301 54.5 4s46.833 8 77.5 16v240h61z" />
    <glyph glyph-name="afii10090" unicode="&#x448;" horiz-adv-x="709" 
d="M385 502v-446h209v446h61v-502h-601v502h61v-446h209v446h61z" />
    <glyph glyph-name="afii10091" unicode="&#x449;" horiz-adv-x="711" 
d="M385 502v-446h209v446h61v-619h-61v117h-540v502h61v-446h209v446h61z" />
    <glyph glyph-name="afii10092" unicode="&#x44a;" horiz-adv-x="524" 
d="M212 56l103 -0.000976562c22 0 40.833 2.83301 56.5 8.5s28.667 13.167 39 22.5s17.833 19.833 22.5 31.5s7 23.834 7 36.501s-2.33301 25 -7 37s-12.167 22.667 -22.5 32s-23.333 17 -39 23s-34.5 9 -56.5 9h-103v-200zM212 311.999h111.003
c29.333 0 55.166 -4.5 77.499 -13.5s41.166 -20.667 56.499 -35s26.833 -31 34.5 -50s11.5 -38.5 11.5 -58.5c0 -12.667 -2.5 -27.834 -7.5 -45.501s-14.167 -34.667 -27.5 -51s-32.333 -30.166 -57 -41.499s-56.334 -17 -95.001 -17h-165v446h-136v56h197v-190z" />
    <glyph glyph-name="afii10093" unicode="&#x44b;" horiz-adv-x="585" 
d="M470 0v502h61v-502h-61zM115 56l98 -0.000976562c22 0 40.833 2.83301 56.5 8.5s28.667 13.167 39 22.5s17.833 19.833 22.5 31.5s7 23.834 7 36.501s-2.33301 25 -7 37s-12.167 22.667 -22.5 32s-23.333 17 -39 23s-34.5 9 -56.5 9h-98v-200zM115 501.999
l0.000976562 -190h106c29.333 0 55.166 -4.5 77.499 -13.5s41.166 -20.667 56.499 -35s26.833 -31 34.5 -50s11.5 -38.5 11.5 -58.5c0 -19.333 -3.83301 -38.333 -11.5 -57s-19.167 -35.167 -34.5 -49.5s-34.666 -26 -57.999 -35s-51 -13.5 -83 -13.5h-160v502h61z" />
    <glyph glyph-name="afii10094" unicode="&#x44c;" horiz-adv-x="427" 
d="M115 56l103 -0.000976562c22 0 40.833 2.83301 56.5 8.5s28.667 13.167 39 22.5s17.833 19.833 22.5 31.5s7 23.834 7 36.501s-2.33301 25 -7 37s-12.167 22.667 -22.5 32s-23.333 17 -39 23s-34.5 9 -56.5 9h-103v-200zM115 501.999l0.000976562 -190h111
c29.333 0 55.166 -4.5 77.499 -13.5s41.166 -20.667 56.499 -35s26.833 -31 34.5 -50s11.5 -38.5 11.5 -58.5c0 -19.333 -3.83301 -38.333 -11.5 -57s-19.167 -35.167 -34.5 -49.5s-34.666 -26 -57.999 -35s-51 -13.5 -83 -13.5h-165v502h61z" />
    <glyph glyph-name="afii10095" unicode="&#x44d;" horiz-adv-x="493" 
d="M141 282l268 0.000976562c-4 28.667 -12.5 54 -25.5 76s-28.667 40.5 -47 55.5s-39 26.167 -62 33.5s-46.833 11 -71.5 11s-49.167 -4.16699 -73.5 -12.5s-47.166 -20.833 -68.499 -37.5l-36 47c31.333 22.667 62.833 38.167 94.5 46.5s59.167 12.5 82.5 12.5
c36.667 0 71.5 -6.16699 104.5 -18.5s61.667 -30 86 -53s43.666 -50.833 57.999 -83.5s21.5 -69 21.5 -109c0 -38.667 -6.66699 -74.167 -20 -106.5s-31.833 -60 -55.5 -83s-51.667 -40.833 -84 -53.5s-67.833 -19 -106.5 -19c-24 0 -51.167 4 -81.5 12
s-62.833 24.667 -97.5 50l29 47c18 -13.333 40 -25.5 66 -36.5s55.667 -16.5 89 -16.5c26.667 0 51.5 4.33301 74.5 13s43.333 21 61 37s32 35.167 43 57.5s17.5 47.166 19.5 74.499h-268v56z" />
    <glyph glyph-name="afii10096" unicode="&#x44e;" horiz-adv-x="712" 
d="M432 458c-26.667 0 -51.833 -5.33301 -75.5 -16s-44.5 -25.334 -62.5 -44.001s-32.167 -40.667 -42.5 -66s-15.5 -52.333 -15.5 -81s5.16699 -55.5 15.5 -80.5s24.333 -46.833 42 -65.5s38.334 -33.5 62.001 -44.5s49.167 -16.5 76.5 -16.5c26.667 0 52 5.5 76 16.5
s44.833 25.833 62.5 44.5s31.667 40.5 42 65.5s15.5 51.833 15.5 80.5s-5.16699 55.667 -15.5 81s-24.5 47.333 -42.5 66s-38.833 33.334 -62.5 44.001s-48.834 16 -75.501 16zM175.001 282c4 39.333 14.6689 73.502 32.002 102.502s38.166 53.167 62.499 72.5
s50.833 33.666 79.5 42.999s56.334 14 83.001 14c36 0 69.667 -6.83301 101 -20.5s58.666 -32.334 81.999 -56.001s41.833 -51.5 55.5 -83.5s20.5 -66.333 20.5 -103c0 -36 -6.66699 -70 -20 -102s-31.833 -60 -55.5 -84s-51.167 -42.833 -82.5 -56.5s-65 -20.5 -101 -20.5
c-34 0 -65.667 6 -95 18s-55.333 28.5 -78 49.5s-41.334 46.167 -56.001 75.5s-24 61 -28 95h-60v-226h-61v502h61v-220h60z" />
    <glyph glyph-name="afii10097" unicode="&#x44f;" horiz-adv-x="413" 
d="M299 446l-73.999 0.000976562c-20.667 0 -38.5 -2.66699 -53.5 -8s-27.333 -12.333 -37 -21s-16.834 -18.834 -21.501 -30.501s-7 -23.5 -7 -35.5c0 -28 11 -51.333 33 -70s53 -28 93 -28h67v193zM360.001 0.000976562l-60.999 -0.00195312v239h-3l-209 -239h-81l185 209
c-23.333 1.33301 -44.166 6 -62.499 14s-33.833 18.5 -46.5 31.5s-22.334 28 -29.001 45s-10 34.5 -10 52.5c0 16 3.16699 32.833 9.5 50.5s16.666 33.834 30.999 48.501s33.5 26.834 57.5 36.501s54 14.5 90 14.5h129v-502z" />
    <glyph glyph-name="afii10071" unicode="&#x451;" horiz-adv-x="551" 
d="M91 306c6 22 14.668 42.167 26.001 60.5s24.666 34.333 39.999 48s32.833 24.334 52.5 32.001s40.834 11.5 63.501 11.5c25.333 0 48.833 -3.83301 70.5 -11.5s40.5 -18.334 56.5 -32.001s29.167 -29.667 39.5 -48s17.166 -38.5 20.499 -60.5h-369zM283.001 44
c-27.333 0 -52.999 5.49902 -76.999 16.499s-45 25.833 -63 44.5s-32.333 40.667 -43 66s-16 52 -16 80h446c0 36.667 -5.66699 71 -17 103s-28 59.833 -50 83.5s-49 42.334 -81 56.001s-68.333 20.5 -109 20.5c-36 0 -69.333 -6.83301 -100 -20.5
s-57.334 -32.334 -80.001 -56.001s-40.334 -51.5 -53.001 -83.5s-19 -66.333 -19 -103c0 -36 6.83301 -70 20.5 -102s32.334 -60 56.001 -84s51.5 -42.833 83.5 -56.5s66 -20.5 102 -20.5c26 0 50.833 3.5 74.5 10.5s45.5 17 65.5 30s38.167 28.5 54.5 46.5
s29.833 37.667 40.5 59h-71c-18 -27.333 -41.333 -49.166 -70 -65.499s-60 -24.5 -94 -24.5zM359.002 677.999l45 -53l-45 -53l-43 53zM185.002 677.999l45 -53l-45 -53l-43 53z" />
    <glyph glyph-name="afii10099" unicode="&#x452;" horiz-adv-x="586" 
d="M193 712l-0.000976562 -70.0029h199v-60h-199v-141h2c11.333 16 23.833 28.833 37.5 38.5s27.167 17 40.5 22s26 8.33301 38 10s21.667 2.5 29 2.5c22 0 44.333 -3.33301 67 -10s43.167 -19.167 61.5 -37.5s33.5 -43.666 45.5 -75.999s18 -74.166 18 -125.499
c0 -54 -4 -102.333 -12 -145s-18.833 -80.667 -32.5 -114s-29.5 -63.166 -47.5 -89.499s-37.333 -50.5 -58 -72.5l-14 -15l-50 31l14 15c17.333 18.667 34.333 39.167 51 61.5s31.334 48.5 44.001 78.5s22.834 65 30.501 105s11.5 87 11.5 141c0 18 -1.16699 38.333 -3.5 61
s-7.83301 44 -16.5 64s-21.5 37 -38.5 51s-39.833 21 -68.5 21c-18.667 0 -36.834 -2.83301 -54.501 -8.5s-33.5 -14.834 -47.5 -27.501s-25.333 -28.667 -34 -48s-13 -42.666 -13 -69.999v-304h-61v582h-78v60h78v70h61z" />
    <glyph glyph-name="afii10100" unicode="&#x453;" horiz-adv-x="340" 
d="M286 710l35 -64l-215 -104l-26 49zM323 502v-56h-208v-446h-61v502h269z" />
    <glyph glyph-name="afii10101" unicode="&#x454;" horiz-adv-x="499" 
d="M85 226c2 -27.333 8.5 -52.167 19.5 -74.5s25.333 -41.5 43 -57.5s38 -28.333 61 -37s47.833 -13 74.5 -13c33.333 0 63 5.5 89 16.5s48 23.167 66 36.5l29 -47c-34.667 -25.333 -67.167 -42 -97.5 -50s-57.5 -12 -81.5 -12c-38.667 0 -74.167 6.33301 -106.5 19
s-60.333 30.5 -84 53.5s-42.167 50.667 -55.5 83s-20 67.833 -20 106.5c0 40 7.16699 76.333 21.5 109s33.666 60.5 57.999 83.5s52.833 40.667 85.5 53s67.667 18.5 105 18.5c23.333 0 50.833 -4.16699 82.5 -12.5s63.167 -23.833 94.5 -46.5l-36 -47
c-21.333 16.667 -44.166 29.167 -68.499 37.5s-48.833 12.5 -73.5 12.5s-48.5 -3.66699 -71.5 -11s-43.667 -18.5 -62 -33.5s-34 -33.5 -47 -55.5s-21.5 -47.333 -25.5 -76h268v-56h-268z" />
    <glyph glyph-name="afii10102" unicode="&#x455;" horiz-adv-x="384" 
d="M312 409c-11.333 10.667 -22.833 19.333 -34.5 26s-22.667 11.667 -33 15s-20.166 5.5 -29.499 6.5s-17.333 1.5 -24 1.5c-18 0 -33.333 -2.5 -46 -7.5s-22.834 -11.333 -30.501 -19s-13.334 -16.5 -17.001 -26.5s-5.5 -20 -5.5 -30c0 -18.667 4 -33.334 12 -44.001
s18.5 -19.334 31.5 -26.001s27.667 -12 44 -16s32.833 -8.33301 49.5 -13c12 -3.33301 25.333 -8 40 -14s28.334 -14.333 41.001 -25s23.167 -24 31.5 -40s12.5 -36 12.5 -60c0 -22.667 -4.33301 -43.167 -13 -61.5s-20.834 -34 -36.501 -47s-34.5 -23 -56.5 -30
s-46 -10.5 -72 -10.5c-9.33301 0 -20 0.833008 -32 2.5s-25 5.33398 -39 11.001s-28.5 13.5 -43.5 23.5s-29.833 23.333 -44.5 40l40 43c5.33301 -6.66699 11.833 -13.834 19.5 -21.501s16.5 -14.667 26.5 -21s21.5 -11.5 34.5 -15.5s27.167 -6 42.5 -6
c30 0 56 7.83301 78 23.5s33 37.834 33 66.501c0 18 -3.83301 32.833 -11.5 44.5s-17.834 21.167 -30.501 28.5s-27.167 13.333 -43.5 18l-50.5 15c-11.333 3.33301 -24.166 7.83301 -38.499 13.5s-27.833 13.834 -40.5 24.501s-23.334 24.167 -32.001 40.5
s-13 36.5 -13 60.5c0 16 3.16699 32 9.5 48s16 30.5 29 43.5s29.333 23.5 49 31.5s43.167 12 70.5 12c24.667 0 50.334 -4 77.001 -12s53.334 -24 80.001 -48z" />
    <glyph glyph-name="afii10103" unicode="&#x456;" horiz-adv-x="212" 
d="M152 672l-46 -52l-46 52l46 52zM76 0v502h61v-502h-61z" />
    <glyph glyph-name="afii10104" unicode="&#x457;" horiz-adv-x="185" 
d="M103 672l46 52l46 -52l-46 -52zM-10 672l46 52l46 -52l-46 -52zM60 0v502h61v-502h-61z" />
    <glyph glyph-name="afii10105" unicode="&#x458;" horiz-adv-x="205" 
d="M-80 -122c7.33301 -2 14.3291 -3.66602 20.9961 -4.99902s13.667 -2 21 -2c29.333 0 51.833 5.83301 67.5 17.5s26.834 26.167 33.501 43.5s10.334 35.5 11.001 54.5s1 36.167 1 51.5v464h61v-513c0 -40 -6.33301 -71.5 -19 -94.5s-27.667 -40.5 -45 -52.5
s-35.166 -19.5 -53.499 -22.5s-33.166 -4.5 -44.499 -4.5c-8.66699 0 -19.5 0.666992 -32.5 2s-26.5 4.66602 -40.5 9.99902z" />
    <glyph glyph-name="afii10106" unicode="&#x459;" horiz-adv-x="662" 
d="M442 56l8 -0.000976562c20 0 37.5 2.83301 52.5 8.5s27.5 13.167 37.5 22.5s17.5 19.833 22.5 31.5s7.5 23.834 7.5 36.501s-2.33301 25 -7 37s-12.167 22.667 -22.5 32s-23.333 17 -39 23s-34.5 9 -56.5 9h-94zM326 311.999h127.998c31.333 0 58.333 -4.83301 81 -14.5
s41.334 -22 56.001 -37s25.5 -31.833 32.5 -50.5s10.5 -37 10.5 -55c0 -19.333 -3.83301 -38.333 -11.5 -57s-19.167 -35.167 -34.5 -49.5s-34.666 -26 -57.999 -35s-51 -13.5 -83 -13.5h-51l-161 366l-159 -366h-72l231 514z" />
    <glyph glyph-name="afii10107" unicode="&#x45a;" horiz-adv-x="778" 
d="M449 56h103c25.333 0 46 3.33301 62 10s28.667 14.667 38 24s15.833 19.5 19.5 30.5s5.5 20.833 5.5 29.5c0 12 -2.33301 23.833 -7 35.5s-12.167 22 -22.5 31s-23.333 16.167 -39 21.5s-34.5 8 -56.5 8h-103v-190zM449 502l0.00195312 -200.003h111
c29.333 0 55.166 -4.33301 77.499 -13s41.166 -20 56.499 -34s26.833 -30.167 34.5 -48.5s11.5 -37.166 11.5 -56.499c0 -14 -2.83301 -29.667 -8.5 -47s-15.667 -33.666 -30 -48.999s-33.5 -28.166 -57.5 -38.499s-54.333 -15.5 -91 -15.5h-165v246h-273v-246h-61v502h61
v-200h273v200h61z" />
    <glyph glyph-name="afii10108" unicode="&#x45b;" horiz-adv-x="579" 
d="M193 712l-0.00195312 -70.001h199v-60h-199v-141h2c6 8.66699 13.167 17.334 21.5 26.001s18.5 16.5 30.5 23.5s25.833 12.667 41.5 17s33.834 6.5 54.501 6.5c22.667 0 45.167 -2.5 67.5 -7.5s42.333 -14 60 -27s32 -31 43 -54s16.5 -52.5 16.5 -88.5v-337h-61v350
c0 18 -3.33301 33.667 -10 47s-15.667 24.5 -27 33.5s-24.666 15.833 -39.999 20.5s-32 7 -50 7c-18.667 0 -37 -3 -55 -9s-34 -14.833 -48 -26.5s-25.167 -25.667 -33.5 -42s-12.5 -34.833 -12.5 -55.5v-325h-61v582h-78v60h78v70h61z" />
    <glyph glyph-name="afii10109" unicode="&#x45c;" horiz-adv-x="451" 
d="M115 0h-61v502h61v-238l213 238h72l-221 -240l262 -262h-81l-245 250v-250zM323 710l35 -64l-215 -104l-26 49z" />
    <glyph glyph-name="afii10110" unicode="&#x45e;" horiz-adv-x="543" 
d="M201 -72c-7.33301 -15.333 -19.1689 -28.667 -35.502 -40s-38.833 -17 -67.5 -17c-7.33301 0 -14.333 0.666992 -21 2s-13.667 3 -21 5l-19 -51c14 -5.33301 27.5 -8.66602 40.5 -9.99902s23.833 -2 32.5 -2s19.167 0.833008 31.5 2.5s25.333 5.16699 39 10.5
s26.834 13.166 39.501 23.499s23.667 24.5 33 42.5c48.667 98.667 94.834 199 138.501 301l136.5 307h-65l-171 -382h-4l-198 382h-70l236 -455zM180.997 686.999c8.66699 -16.667 20.998 -31.001 36.998 -43.001s35.667 -18 59 -18s43 6 59 18s28.333 26.333 37 43l44 -18
c-12.667 -28 -31.167 -50.167 -55.5 -66.5s-52.5 -24.5 -84.5 -24.5c-19.333 0 -36.666 2.83301 -51.999 8.5s-28.666 12.834 -39.999 21.501s-21 18.5 -29 29.5s-14.333 21.5 -19 31.5z" />
    <glyph glyph-name="afii10193" unicode="&#x45f;" horiz-adv-x="501" 
d="M447 502v-502h-166v-127h-61v127h-166v502h61v-446h271v446h61z" />
    <glyph glyph-name="afii10050" unicode="&#x490;" horiz-adv-x="419" 
d="M74 0v686h267v70h67v-134h-267v-622h-67z" />
    <glyph glyph-name="afii10098" unicode="&#x491;" horiz-adv-x="344" 
d="M272 502v66h61v-122h-218v-446h-61v502h218z" />
    <glyph glyph-name="endash" unicode="&#x2013;" 
d="M49 222v58h502v-58h-502z" />
    <glyph glyph-name="emdash" unicode="&#x2014;" horiz-adv-x="650" 
d="M0 276h650v-50h-650v50z" />
    <glyph glyph-name="quoteleft" unicode="&#x2018;" horiz-adv-x="222" 
d="M98 489c-19.333 11.333 -33.166 23.3301 -41.499 35.9971s-12.5 24.667 -12.5 36c0 8.66699 2 17.834 6 27.501s8.83301 19.334 14.5 29.001s12 19 19 28l19.5 25.5l23 31l34 -19l-17 -25l-25.5 -38c-8.33301 -12.667 -12.5 -24.667 -12.5 -36
c0 -6.66699 3.16699 -14.167 9.5 -22.5s15.166 -14.166 26.499 -17.499z" />
    <glyph glyph-name="quoteright" unicode="&#x2019;" horiz-adv-x="222" 
d="M62 509l11.999 16.998c17.333 24.667 28.833 42.334 34.5 53.001s8.5 19.334 8.5 26.001s-2.66699 13.667 -8 21s-14.666 14.666 -27.999 21.999l43 54c16 -9.33301 29 -20.166 39 -32.499s15 -25.5 15 -39.5c0 -18 -6.5 -36.5 -19.5 -55.5l-37.5 -52.5l-25 -33z" />
    <glyph glyph-name="quotesinglbase" unicode="&#x201a;" horiz-adv-x="229" 
d="M44 -116l13.001 16l27.5 34.5c7 9 12.333 16.5 16 22.5s6.16699 10.5 7.5 13.5s2 5.5 2 7.5c0 8 -3 15.833 -9 23.5s-10.667 12.5 -14 14.5l-9 7l41 40l9 -9c9.33301 -9.33301 18.166 -19.5 26.499 -30.5s12.5 -23.167 12.5 -36.5c0 -12 -6 -26 -18 -42
s-31.333 -38 -58 -66l-17 -18z" />
    <glyph glyph-name="quotedblleft" unicode="&#x201c;" horiz-adv-x="333" 
d="M283 679l-20 -24.999c-16 -20 -27.667 -35.167 -35 -45.5s-11 -19.5 -11 -27.5c0 -7.33301 3.16699 -15 9.5 -23s13.833 -14.333 22.5 -19l-41 -39c-13.333 9.33301 -24.666 20.666 -33.999 33.999s-14 26 -14 38c0 16.667 7.66699 34.167 23 52.5
s33.666 38.833 54.999 61.5l15 16zM146 679.001l-20 -24.999c-16 -20 -27.667 -35.167 -35 -45.5s-11 -19.5 -11 -27.5c0 -7.33301 3.16699 -15 9.5 -23s13.833 -14.333 22.5 -19l-41 -39c-13.333 9.33301 -24.666 20.5 -33.999 33.5s-14 25.833 -14 38.5
c0 8.66699 2.33301 17.667 7 27s10.667 18.666 18 27.999s15.666 19 24.999 29l28 30l15 16z" />
    <glyph glyph-name="quotedblright" unicode="&#x201d;" horiz-adv-x="333" 
d="M50 523l20 24.999c16 20 27.667 35.167 35 45.5s11 19.5 11 27.5c0 7.33301 -3.16699 15 -9.5 23s-13.833 14.333 -22.5 19l41 39c12 -9.33301 23 -20.666 33 -33.999s15 -26 15 -38c0 -13.333 -7 -29.333 -21 -48s-33 -40.667 -57 -66l-15 -16zM187 522.999l19 22.998
c18.667 22.667 31.167 39.334 37.5 50.001s9.5 19 9.5 25c0 7.33301 -3.16699 15 -9.5 23s-13.833 14.333 -22.5 19l41 39c12 -9.33301 23 -20.666 33 -33.999s15 -26 15 -38c0 -13.333 -7 -29.333 -21 -48s-33 -40.667 -57 -66l-15 -16z" />
    <glyph glyph-name="quotedblbase" unicode="&#x201e;" horiz-adv-x="333" 
d="M50 -116l17.0029 20.0029c10.667 12 19.167 22.167 25.5 30.5s11.166 15.166 14.499 20.499s5.66602 9.66602 6.99902 12.999s2 6.66602 2 9.99902c0 9.33301 -2 16.5 -6 21.5s-10 10.833 -18 17.5l-7 6l41 40l8 -8c11.333 -11.333 20.666 -22.5 27.999 -33.5
s11 -22.5 11 -34.5c0 -10.667 -6.16699 -24.167 -18.5 -40.5s-33.5 -40.833 -63.5 -73.5l-11 -12zM187.003 -115.997l13.001 16l27.5 34.5c7 9 12.333 16.5 16 22.5s6.16699 10.5 7.5 13.5s2 5.5 2 7.5c0 8 -3 15.833 -9 23.5s-10.667 12.5 -14 14.5l-9 7l41 40l9 -9
c9.33301 -9.33301 18.166 -19.5 26.499 -30.5s12.5 -23.167 12.5 -36.5c0 -12 -6 -26 -18 -42s-31.333 -38 -58 -66l-17 -18z" />
    <glyph glyph-name="dagger" unicode="&#x2020;" horiz-adv-x="500" 
d="M221 440h-155v50h155v196h58v-196h155v-50h-155v-624h-58v624z" />
    <glyph glyph-name="daggerdbl" unicode="&#x2021;" horiz-adv-x="500" 
d="M221 142h-155v50h155v248h-155v50h155v196h58v-196h155v-50h-155v-248h155v-50h-155v-326h-58v326z" />
    <glyph glyph-name="bullet" unicode="&#x2022;" horiz-adv-x="499" 
d="M421 343c0 -24 -4.5 -46.333 -13.5 -67s-21.167 -38.834 -36.5 -54.501s-33.333 -28 -54 -37s-43 -13.5 -67 -13.5s-46.5 4.5 -67.5 13.5s-39.167 21.333 -54.5 37s-27.5 33.834 -36.5 54.501s-13.5 43 -13.5 67c0 23.333 4.33301 45.333 13 66s20.667 38.834 36 54.501
s33.5 28 54.5 37s43.833 13.5 68.5 13.5c24 0 46.333 -4.5 67 -13.5s38.667 -21.333 54 -37s27.5 -33.834 36.5 -54.501s13.5 -42.667 13.5 -66z" />
    <glyph glyph-name="ellipsis" unicode="&#x2026;" horiz-adv-x="1000" 
d="M833 112l52 -59l-52 -59l-52 59zM500 112l52 -59l-52 -59l-52 59zM167 112l52 -59l-52 -59l-52 59z" />
    <glyph glyph-name="perthousand" unicode="&#x2030;" horiz-adv-x="1228" 
d="M1122 170c0 16.667 -3.33301 32.502 -10 47.502s-15.5 28 -26.5 39s-24 19.833 -39 26.5s-30.833 10 -47.5 10c-17.333 0 -33.333 -3.33301 -48 -10s-27.667 -15.667 -39 -27s-20.166 -24.333 -26.499 -39s-9.5 -30.334 -9.5 -47.001s3.16699 -32.334 9.5 -47.001
s15.166 -27.667 26.499 -39s24.333 -20.333 39 -27s30.667 -10 48 -10c16.667 0 32.5 3.33301 47.5 10s28 15.5 39 26.5s19.833 24 26.5 39s10 30.833 10 47.5zM828 170.002c0 23.333 4.5 45.333 13.5 66s21.167 38.834 36.5 54.501s33.333 28 54 37s43 13.5 67 13.5
c23.333 0 45.333 -4.5 66 -13.5s38.834 -21.333 54.501 -37s28 -33.834 37 -54.501s13.5 -42.667 13.5 -66c0 -24 -4.5 -46.333 -13.5 -67s-21.333 -38.667 -37 -54s-33.834 -27.5 -54.501 -36.5s-42.667 -13.5 -66 -13.5c-24 0 -46.333 4.5 -67 13.5
s-38.667 21.167 -54 36.5s-27.5 33.333 -36.5 54s-13.5 43 -13.5 67zM336 514.002c0 16.667 -3.33301 32.502 -10 47.502s-15.5 28.167 -26.5 39.5s-24 20.166 -39 26.499s-30.833 9.5 -47.5 9.5c-17.333 0 -33.333 -3.33301 -48 -10s-27.667 -15.5 -39 -26.5
s-20.166 -24 -26.499 -39s-9.5 -30.833 -9.5 -47.5s3.16699 -32.5 9.5 -47.5s15.166 -28 26.499 -39s24.333 -19.833 39 -26.5s30.667 -10 48 -10c16.667 0 32.5 3.16699 47.5 9.5s28 15.166 39 26.499s19.833 24.333 26.5 39s10 30.667 10 48zM630 686.004
l-396.999 -702.001h-49l337 580l-2 2c-15.333 -10 -29.166 -16.833 -41.499 -20.5s-26.833 -5.5 -43.5 -5.5c-11.333 0 -21.5 1.83301 -30.5 5.5s-17.167 8.16699 -24.5 13.5l-2 -2c2 -5.33301 3.66699 -11 5 -17s2 -14.667 2 -26c0 -23.333 -4.66699 -45.5 -14 -66.5
s-21.833 -39.167 -37.5 -54.5s-33.834 -27.5 -54.501 -36.5s-42.334 -13.5 -65.001 -13.5c-24 0 -46.333 4.5 -67 13.5s-38.667 21.333 -54 37s-27.5 33.834 -36.5 54.501s-13.5 42.667 -13.5 66c0 24 4.5 46.333 13.5 67s21.167 38.667 36.5 54s33.333 27.5 54 36.5
s43 13.5 67 13.5c48.667 0 89.667 -17.667 123 -53l4 -3l17.5 -15c7 -6 14.667 -11.833 23 -17.5s17.833 -10.5 28.5 -14.5s22.667 -6 36 -6c27.333 0 52 10.333 74 31s42 47 60 79h51zM727.001 170.003c0 16.667 -3.33301 32.502 -10 47.502s-15.5 28 -26.5 39
s-24 19.833 -39 26.5s-30.833 10 -47.5 10c-17.333 0 -33.333 -3.33301 -48 -10s-27.667 -15.667 -39 -27s-20.166 -24.333 -26.499 -39s-9.5 -30.334 -9.5 -47.001s3.16699 -32.334 9.5 -47.001s15.166 -27.667 26.499 -39s24.333 -20.333 39 -27s30.667 -10 48 -10
c16.667 0 32.5 3.33301 47.5 10s28 15.5 39 26.5s19.833 24 26.5 39s10 30.833 10 47.5zM433.001 170.005c0 23.333 4.5 45.333 13.5 66s21.167 38.834 36.5 54.501s33.333 28 54 37s43 13.5 67 13.5c23.333 0 45.333 -4.5 66 -13.5s38.834 -21.333 54.501 -37
s28 -33.834 37 -54.501s13.5 -42.667 13.5 -66c0 -24 -4.5 -46.333 -13.5 -67s-21.333 -38.667 -37 -54s-33.834 -27.5 -54.501 -36.5s-42.667 -13.5 -66 -13.5c-24 0 -46.333 4.5 -67 13.5s-38.667 21.167 -54 36.5s-27.5 33.333 -36.5 54s-13.5 43 -13.5 67z" />
    <glyph glyph-name="guilsinglleft" unicode="&#x2039;" horiz-adv-x="278" 
d="M192 390l34 -32l-110 -107l110 -107l-34 -32l-140 139z" />
    <glyph glyph-name="guilsinglright" unicode="&#x203a;" horiz-adv-x="278" 
d="M86 112l-34 32l110 107l-110 107l34 32l140 -139z" />
    <glyph glyph-name="Euro" unicode="&#x20ac;" horiz-adv-x="664" 
d="M451 223l-258.999 0.000976562c11.333 -25.333 26 -48.833 44 -70.5s38.667 -40.167 62 -55.5s48.833 -27.333 76.5 -36s56.5 -13 86.5 -13c20 0 43.667 4.16699 71 12.5s54 22.5 80 42.5l-10 -87c-20 -8.66699 -43.167 -16.167 -69.5 -22.5s-55.5 -9.5 -87.5 -9.5
c-42 0 -80.5 6.5 -115.5 19.5s-66.333 30.5 -94 52.5s-51.334 47.333 -71.001 76s-35.167 59 -46.5 91h-88l40 58h32c-4 20.667 -6 42 -6 64c0 9.33301 0.333008 18.666 1 27.999s1.66699 18.666 3 27.999h-70l40 58h45c12 34 28.833 65.833 50.5 95.5
s47.167 55.5 76.5 77.5s62.333 39.167 99 51.5s75.667 18.5 117 18.5c19.333 0 42.333 -2 69 -6s53 -12.667 79 -26l11 -86c-24 18.667 -49.5 32.334 -76.5 41.001s-54.833 13 -83.5 13c-35.333 0 -67.333 -4.83301 -96 -14.5s-54 -22.667 -76 -39s-41 -35.333 -57 -57
s-28.667 -44.5 -38 -68.5h301l-40 -58h-277c-4 -21.333 -6 -41.666 -6 -60.999c0 -20.667 2 -40.334 6 -59.001h317z" />
    <glyph glyph-name="numero" unicode="&#x2116;" horiz-adv-x="1113" 
d="M548 157h4v529h67v-702l-475 546l-3 -1v-529h-67v702zM719 70v58h315v-58h-315zM984 413c0 16 -3 30.833 -9 44.5s-14 25.667 -24 36s-21.833 18.333 -35.5 24s-28.167 8.5 -43.5 8.5c-16 0 -30.833 -3 -44.5 -9s-25.5 -14 -35.5 -24s-17.833 -21.833 -23.5 -35.5
s-8.5 -28.5 -8.5 -44.5c0 -32 10.667 -58.667 32 -80s48 -32 80 -32c15.333 0 29.833 2.83301 43.5 8.5s25.5 13.5 35.5 23.5s18 21.833 24 35.5s9 28.5 9 44.5zM705 413c0 22.667 4.33301 44.166 13 64.499s20.667 38 36 53s33 26.833 53 35.5s41.667 13 65 13
c22.667 0 44.167 -4.33301 64.5 -13s38 -20.5 53 -35.5s27 -32.5 36 -52.5s13.5 -41.667 13.5 -65s-4.5 -45.166 -13.5 -65.499s-21.167 -37.833 -36.5 -52.5s-33 -26.167 -53 -34.5s-41.333 -12.5 -64 -12.5s-44.167 4.16699 -64.5 12.5s-38 20 -53 35s-27 32.5 -36 52.5
s-13.5 41.667 -13.5 65z" />
    <glyph glyph-name="trademark" unicode="&#x2122;" horiz-adv-x="978" 
d="M504 702l170 -326l163 326l111 -437l-62 -12l-67 287l-149 -296l-150 296l-64 -287l-62 12zM80 630l11 56h308v-56h-125v-365l-63 -12v377h-131z" />
    <glyph glyph-name="periodcentered" unicode="&#x2219;" horiz-adv-x="506" 
d="M115 502l-0.000976562 -320c0 -11.333 0.5 -23 1.5 -35s3.5 -23.667 7.5 -35s10.333 -22 19 -32s20.667 -18.333 36 -25c15.333 -7.33301 33.333 -11 54 -11c37.333 0 66.5 7.66699 87.5 23s36.833 34.666 47.5 57.999s17.167 48.5 19.5 75.5s3.5 52.167 3.5 75.5v226h61
v-502h-61v75h-2c-10 -19.333 -21.667 -34.666 -35 -45.999s-27.166 -20 -41.499 -26s-28.5 -10 -42.5 -12s-26.667 -3 -38 -3c-17.333 0 -35.833 1.83301 -55.5 5.5s-40.167 13.5 -61.5 29.5v-199h-61v678h61z" />
    <glyph glyph-name=".null" horiz-adv-x="0" 
 />
    <glyph glyph-name="nonmarkingreturn" horiz-adv-x="233" 
 />
    <glyph glyph-name="hyphenminus" horiz-adv-x="333" 
d="M294 224h-255v54h255v-54z" />
    <glyph glyph-name="quilsinglleft" horiz-adv-x="278" 
d="M192 390l34 -32l-110 -107l110 -107l-34 -32l-140 139z" />
    <glyph glyph-name="quilsinglright" horiz-adv-x="278" 
d="M86 112l-34 32l110 107l-110 107l34 32l140 -139z" />
    <glyph glyph-name="afii10055" horiz-adv-x="227" 
d="M80 686l67 8v-694l-67 -8v694z" />
    </font>
</defs>
</svg>
