<?xml version="1.0" encoding="utf-8"?>
<!-- Generator: Adobe Illustrator 21.0.0, SVG Export Plug-In . SVG Version: 6.00 Build 0)  -->
<svg version="1.1" id="Слой_1" xmlns="http://www.w3.org/2000/svg" xmlns:xlink="http://www.w3.org/1999/xlink" x="0px" y="0px"
	 viewBox="0 0 6 10" style="enable-background:new 0 0 6 10;" xml:space="preserve">
<style type="text/css">
	.st0{fill:#B41F2F;}
</style>
<g>
	<g>
		<path class="st0" d="M0.9,0C0.9,0,1,0,1.1,0.1l4.8,4.7C6,4.8,6,4.9,6,5c0,0.1,0,0.2-0.1,0.2L1.1,9.9C1,10,0.9,10,0.9,10
			c-0.1,0-0.2,0-0.2-0.1L0.1,9.4C0,9.3,0,9.3,0,9.2C0,9.1,0,9,0.1,8.9L4.2,5L0.1,1.1C0,1,0,0.9,0,0.8c0-0.1,0-0.2,0.1-0.2l0.5-0.5
			C0.7,0,0.8,0,0.9,0L0.9,0z"/>
	</g>
</g>
</svg>
