<?xml version="1.0" encoding="utf-8"?>
<!-- Generator: Adobe Illustrator 21.0.0, SVG Export Plug-In . SVG Version: 6.00 Build 0)  -->
<svg version="1.1" id="Layer_1" xmlns="http://www.w3.org/2000/svg" xmlns:xlink="http://www.w3.org/1999/xlink" x="0px" y="0px"
	 viewBox="0 0 64 64" style="enable-background:new 0 0 64 64;" xml:space="preserve">
<style type="text/css">
	.st0{fill:#B6202F;}
</style>
<g>
	<g>
		<path class="st0" d="M19,41.7c0.4,0.1,0.8-0.1,0.9-0.5l2.6-7.7c0.1,0,0.1,0,0.2,0H33c0.1,0,0.1,0,0.2,0l2.6,7.7
			c0.1,0.3,0.4,0.5,0.7,0.5c0.1,0,0.2,0,0.2,0c0.4-0.1,0.6-0.5,0.5-0.9l-8.6-25.7c-0.2-0.6-1.2-0.6-1.4,0l-8.6,25.7
			C18.5,41.2,18.7,41.6,19,41.7z M27.9,17.6l4.8,14.5H23L27.9,17.6z"/>
		<path class="st0" d="M43.3,41c0.3,0,0.6,0,0.9,0c0.3,0,0.6,0,0.8,0h2c0.4,0,0.7-0.3,0.7-0.7v-0.7l0-9.3c0-1.9,0-3.5-1-4.5
			c-0.6-0.6-1.3-0.8-2.4-0.8c-1.5,0-2.2,0.6-3,1.4l0.4,0.6l0.6,0.5c0.8-0.7,1.1-1,2.1-1c0.6,0,1.1,0.1,1.4,0.4
			c0.5,0.5,0.6,1.8,0.5,3.3c-4.5,0.4-7.4,4.4-7.4,7.2C38.8,41,41.9,41,43.3,41z M46.2,31.5v8H45c-0.3,0-0.6,0-0.9,0
			c-0.3,0-0.6,0-0.9,0c-2,0-3-0.4-3-2.3C40.3,35,42.7,31.9,46.2,31.5z"/>
		<path class="st0" d="M47.7,43.9H16.8c-0.4,0-0.7,0.3-0.7,0.7c0,0.4,0.3,0.7,0.7,0.7h30.9c0.4,0,0.7-0.3,0.7-0.7
			C48.4,44.2,48.1,43.9,47.7,43.9z"/>
	</g>
	<path class="st0" d="M54.6,9.4C42.2-3.1,21.9-3.1,9.4,9.4L9.2,9.5l1.1,1.1l0.2-0.2c11.9-11.9,31.3-11.9,43.1,0
		c11.9,11.9,11.9,31.3,0,43.1l-0.2,0.2l1.1,1.1l0.2-0.2C67.1,42.1,67.1,21.8,54.6,9.4z"/>
</g>
</svg>
