<?xml version="1.0" encoding="utf-8"?>
<!-- Generator: Adobe Illustrator 21.0.0, SVG Export Plug-In . SVG Version: 6.00 Build 0)  -->
<svg version="1.1" id="Layer_1" xmlns="http://www.w3.org/2000/svg" xmlns:xlink="http://www.w3.org/1999/xlink" x="0px" y="0px"
	 viewBox="0 0 64 64" style="enable-background:new 0 0 64 64;" xml:space="preserve">
<style type="text/css">
	.st0{fill:#B6202F;}
</style>
<g>
	<path class="st0" d="M54.6,9.4C42.1-3.1,21.8-3.1,9.4,9.4s-12.5,32.8,0,45.3l0.2,0.2l1.1-1.1l-0.2-0.2c-11.9-11.9-11.9-31.3,0-43.1
		c11.9-11.9,31.3-11.9,43.1,0l0.2,0.2l1.1-1.1L54.6,9.4z"/>
	<path class="st0" d="M44.1,23.8c0,2.1,1.7,3.8,3.8,3.8c2.1,0,3.8-1.7,3.8-3.8c0-2.1-1.7-3.8-3.8-3.8c-1.2,0-2.3,0.5-3,1.5l0,0.1
		l-0.1,0c-2.2-1-4.6-1.5-7-1.5c-2.2,0-4.3,0.4-6.3,1.2l-0.4,0.2l5.7-5.7l0.1,0c0.3,0.1,0.6,0.2,1,0.2c1.2,0,2.2-1,2.2-2.2
		c0-1.2-1-2.2-2.2-2.2c-1.2,0-2.2,1-2.2,2.2c0,0.3,0.1,0.7,0.2,1l0,0.1l0,0l-7.5,7.5l-0.1,0c-0.6-0.4-1.3-0.6-2.1-0.6
		c-2.1,0-3.8,1.7-3.8,3.8c0,0.7,0.2,1.5,0.6,2.1l0,0.1L23,27.6l-7.5,7.5l-0.1,0c-0.3-0.1-0.6-0.2-1-0.2c-1.2,0-2.2,1-2.2,2.2
		c0,1.2,1,2.2,2.2,2.2s2.2-1,2.2-2.2c0-0.3-0.1-0.7-0.2-1l0-0.1l0,0l5.7-5.7L22,30.7c-0.8,2-1.2,4.1-1.2,6.3c0,3.2,0.9,6.3,2.6,9
		l0,0.1l-0.1,0.1c-0.6,0.7-1,1.6-1,2.6c0,2.1,1.7,3.8,3.8,3.8s3.8-1.7,3.8-3.8c0-2.1-1.7-3.8-3.8-3.8c-0.5,0-1.1,0.1-1.6,0.3l-0.1,0
		l0-0.1c-1.5-2.5-2.3-5.3-2.3-8.2c0-2.9,0.8-5.7,2.3-8.2l0-0.1l0.1,0c0.5,0.2,1,0.3,1.6,0.3c2.1,0,3.8-1.7,3.8-3.8
		c0-0.5-0.1-1.1-0.3-1.6l0-0.1l0.1,0c2.5-1.5,5.3-2.3,8.2-2.3c2.2,0,4.4,0.5,6.4,1.4l0.1,0l0,0.1C44.2,23.2,44.1,23.5,44.1,23.8z
		 M47.9,21.4C47.9,21.4,47.9,21.4,47.9,21.4c0.6,0,1.3,0.3,1.7,0.7c0.5,0.5,0.7,1.1,0.7,1.7c0,1.3-1.1,2.4-2.4,2.4
		c-1.3,0-2.4-1.1-2.4-2.4C45.5,22.5,46.6,21.4,47.9,21.4z M26.1,46.3c1.3,0,2.4,1.1,2.4,2.4c0,1.3-1.1,2.4-2.4,2.4s-2.4-1.1-2.4-2.4
		C23.7,47.4,24.8,46.3,26.1,46.3z M27.9,27.1c-0.5,0.5-1.1,0.7-1.7,0.7c-1.3,0-2.4-1.1-2.4-2.4s1.1-2.4,2.4-2.4
		c0.6,0,1.3,0.3,1.7,0.7c0.5,0.5,0.7,1.1,0.7,1.7C28.6,26,28.3,26.6,27.9,27.1z"/>
</g>
</svg>
