<?xml version="1.0" encoding="utf-8"?>
<!-- Generator: Adobe Illustrator 21.0.0, SVG Export Plug-In . SVG Version: 6.00 Build 0)  -->
<svg version="1.1" id="Layer_1" xmlns="http://www.w3.org/2000/svg" xmlns:xlink="http://www.w3.org/1999/xlink" x="0px" y="0px"
	 viewBox="0 0 20 20" style="enable-background:new 0 0 20 20;" xml:space="preserve">
<style type="text/css">
	.st0{fill:#B41F2F;}
</style>
<g>
	<path class="st0" d="M16.8,1.5H3.2C1.4,1.5,0,2.9,0,4.7v10.5c0,1.8,1.4,3.2,3.2,3.2h13.6c1.8,0,3.2-1.5,3.2-3.2V4.7
		C20,2.9,18.6,1.5,16.8,1.5z M19.2,15.2c0,1.3-1.1,2.4-2.3,2.4H3.2c-1.3,0-2.3-1.1-2.3-2.4V4.7c0-1.3,1.1-2.4,2.3-2.4h13.6
		c1.3,0,2.3,1.1,2.3,2.4V15.2z"/>
	<path class="st0" d="M11.3,10.2l4.6,4.6c0.1,0.1,0.2,0.1,0.3,0.1c0.1,0,0.2-0.1,0.3-0.1c0.1-0.1,0.1-0.2,0.1-0.3
		c0-0.1-0.1-0.2-0.1-0.3l-4.6-4.6l4.6-4c0.2-0.2,0.2-0.4,0-0.6c-0.2-0.2-0.4-0.2-0.6,0l-6,5.2L4,5.1c-0.2-0.1-0.4-0.1-0.6,0
		C3.4,5.2,3.3,5.3,3.4,5.4c0,0.1,0.1,0.2,0.1,0.3l4.6,4l-4.6,4.6c-0.1,0.2-0.1,0.4,0,0.6c0.2,0.2,0.4,0.2,0.6,0l4.6-4.6l1,0.9
		c0.2,0.1,0.4,0.1,0.6,0L11.3,10.2z"/>
</g>
</svg>
