<?xml version="1.0" encoding="utf-8"?>
<!-- Generator: Adobe Illustrator 21.0.0, SVG Export Plug-In . SVG Version: 6.00 Build 0)  -->
<svg version="1.1" id="Layer_1" xmlns="http://www.w3.org/2000/svg" xmlns:xlink="http://www.w3.org/1999/xlink" x="0px" y="0px"
	 viewBox="0 0 20 20" style="enable-background:new 0 0 20 20;" xml:space="preserve">
<style type="text/css">
	.st0{fill:#B6202F;}
</style>
<g>
	<path class="st0" d="M19.7,0H0.3C0.2,0,0,0.2,0,0.3v19.3C0,19.8,0.2,20,0.3,20h19.3c0.2,0,0.3-0.2,0.3-0.3V0.3
		C20,0.2,19.8,0,19.7,0z M19.3,0.7v18.6H0.7V0.7H19.3z"/>
	<path class="st0" d="M11.2,13.6c-0.2,0-0.3,0.2-0.3,0.3v0.7c0,0.2,0.2,0.3,0.3,0.3s0.3-0.2,0.3-0.3V14
		C11.5,13.8,11.4,13.6,11.2,13.6z"/>
	<path class="st0" d="M6.2,11h1.9v6.4c0,0.2,0.2,0.3,0.3,0.3h2.7c0.2,0,0.3-0.2,0.3-0.3v-1.3c0-0.2-0.2-0.3-0.3-0.3
		s-0.3,0.2-0.3,0.3V17h-2v-6.3c0-0.2-0.2-0.3-0.3-0.3H6.5v-2h1.9c0.2,0,0.3-0.2,0.3-0.3V5.6C8.8,4.2,10,3,11.5,3h2v1.8h-1.3
		c-0.7,0-1.3,0.6-1.3,1.3v1.9c0,0.2,0.2,0.3,0.3,0.3h2.2l-0.3,2h-1.9c-0.2,0-0.3,0.2-0.3,0.3v1.9c0,0.2,0.2,0.3,0.3,0.3
		s0.3-0.2,0.3-0.3V11h1.9c0.2,0,0.3-0.1,0.3-0.3L14.1,8c0-0.1,0-0.2-0.1-0.3c-0.1-0.1-0.2-0.1-0.3-0.1h-2.3V6c0-0.3,0.3-0.6,0.6-0.6
		h1.7c0.2,0,0.3-0.2,0.3-0.3V2.6c0-0.2-0.2-0.3-0.3-0.3h-2.4c-1.9,0-3.4,1.5-3.4,3.4v2H6.2C6,7.6,5.8,7.8,5.8,7.9v2.7
		C5.8,10.9,6,11,6.2,11z"/>
</g>
</svg>
