<?xml version="1.0" encoding="utf-8"?>
<!-- Generator: Adobe Illustrator 21.0.0, SVG Export Plug-In . SVG Version: 6.00 Build 0)  -->
<svg version="1.1" id="Layer_1" xmlns="http://www.w3.org/2000/svg" xmlns:xlink="http://www.w3.org/1999/xlink" x="0px" y="0px"
	 viewBox="0 0 20 20" style="enable-background:new 0 0 20 20;" xml:space="preserve">
<style type="text/css">
	.st0{fill:#B6202F;}
</style>
<g>
	<path class="st0" d="M19.7,0H0.4C0.2,0,0,0.2,0,0.3v19.3C0,19.8,0.2,20,0.4,20h19.3c0.2,0,0.3-0.2,0.3-0.3V0.3
		C20,0.2,19.9,0,19.7,0z M19.3,0.7v18.6H0.7V0.7H19.3z"/>
	<path class="st0" d="M9.8,8.9c-0.2,0-0.3,0.2-0.3,0.3c0,0.2,0.2,0.3,0.3,0.3l0.6,0c0.2,0,0.3-0.2,0.3-0.3c0-0.1,0-0.2-0.1-0.2
		c-0.1-0.1-0.2-0.1-0.2-0.1L9.8,8.9z"/>
	<path class="st0" d="M5.2,15.3c0.6,0.2,1.2,0.3,1.9,0.3c0.5,0,1-0.1,1.4-0.2c1.1-0.3,2.1-0.9,2.8-1.7c0.9-1.1,1.3-2.6,1.1-4.4
		c0-0.2-0.2-0.3-0.3-0.3l-0.6,0c-0.2,0-0.3,0.2-0.3,0.3c0,0.1,0,0.2,0.1,0.2c0.1,0.1,0.2,0.1,0.2,0.1l0.3,0c0.1,1.5-0.3,2.7-1,3.6
		c-1.1,1.5-3.3,2-5.3,1.4c-2-0.6-3.3-2.6-3.3-4.6c0-1.2,0.4-2.4,1.3-3.4c0.9-0.9,2.1-1.5,3.3-1.5C7.9,5,9,5.4,10,6.1
		C9.7,6.4,9.4,6.7,9.1,7C7.9,6.3,6.9,6.2,6,6.5C5,6.8,4.3,7.4,3.8,8.4c-0.5,0.9-0.5,1.9-0.2,2.8c0.3,0.9,1,1.7,1.9,2.1
		c0.9,0.4,2,0.5,2.9,0.1c0.9-0.3,1.6-1.1,1.9-2.2c0-0.1,0-0.2-0.1-0.3c-0.1-0.1-0.2-0.1-0.3-0.1c-0.4,0-0.9,0-1.4,0
		c-0.4,0-0.9,0-1.3,0c0-0.4,0-0.8,0-1.1l1.4,0C8.9,9.6,9,9.4,9,9.3c0-0.2-0.2-0.3-0.3-0.3L7,8.9c-0.2,0-0.3,0.2-0.3,0.3
		c0,0.6,0,1.1,0,1.8c0,0.2,0.1,0.3,0.3,0.3c0.6,0,1.1,0,1.7,0c0.3,0,0.6,0,0.8,0c-0.3,0.7-0.8,1.1-1.4,1.3c-0.7,0.3-1.6,0.3-2.4-0.1
		c-0.8-0.4-1.3-1-1.5-1.7l0,0C4,10.2,4,9.4,4.4,8.7c0.4-0.7,1-1.3,1.8-1.5C7,6.9,7.9,7.1,9,7.7c0.1,0.1,0.3,0.1,0.4,0
		c0.5-0.5,0.9-0.9,1.3-1.4c0.1-0.1,0.1-0.2,0.1-0.3c0-0.1-0.1-0.2-0.1-0.2c-1.2-1-2.6-1.5-4-1.4C5.3,4.4,4,5.1,2.9,6.1
		c-1,1.1-1.6,2.5-1.5,3.9C1.4,12.3,3,14.6,5.2,15.3z"/>
	<path class="st0" d="M13.8,11.1l0.1,0c0.3,0,0.7,0,1,0l0,0.3c0,0.3,0,0.5,0,0.8c0,0.2,0.2,0.3,0.3,0.3h0.5c0.3,0,0.7,0,1,0
		c0.1,0,0.2,0,0.2-0.1c0.1-0.1,0.1-0.1,0.1-0.2v0c0-0.4,0-0.7,0-1.1l1.2,0c0.2,0,0.3-0.2,0.3-0.3V9.3c0-0.2-0.2-0.3-0.3-0.3
		c-0.4,0-0.8,0-1.2,0V8.8c0-0.4,0-0.7,0-1.1c0-0.2-0.2-0.3-0.3-0.3h-1.5c-0.2,0-0.3,0.2-0.3,0.3c0,0.4,0,0.8,0,1.2l-1.2,0
		c-0.2,0-0.3,0.2-0.3,0.3v1.5C13.4,10.9,13.6,11.1,13.8,11.1z M14.1,10.4V9.6l1.2,0c0.2,0,0.3-0.2,0.3-0.3c0-0.3,0-0.7,0-1.2h0.8
		c0,0.2,0,0.5,0,0.7l0,0.4c0,0.2,0.2,0.3,0.3,0.3c0.4,0,0.7,0,1.2,0v0.8l-1.2,0c-0.2,0-0.3,0.2-0.3,0.3c0,0.4,0,0.8,0,1.2h-0.8
		l0-1.2c0-0.2-0.2-0.3-0.3-0.3C14.9,10.4,14.5,10.4,14.1,10.4z"/>
</g>
</svg>
