<?xml version="1.0" encoding="utf-8"?>
<!-- Generator: Adobe Illustrator 21.0.0, SVG Export Plug-In . SVG Version: 6.00 Build 0)  -->
<svg version="1.1" id="Слой_1" xmlns="http://www.w3.org/2000/svg" xmlns:xlink="http://www.w3.org/1999/xlink" x="0px" y="0px"
	 viewBox="0 0 57 72" style="enable-background:new 0 0 57 72;" xml:space="preserve">
<style type="text/css">
	.st0{fill:#B51F2F;}
	.st1{fill:#FFFFFF;}
</style>
<g>
	<path class="st0" d="M56.6,38.1c-1.1-6.9-4.7-13-9.7-17.4c-4.7-4.1-10.8-6.7-17.5-6.9c-1.4,0-2.9,0-4.3,0.2l0,0
		c2.3-3.9,2.6-8.1-0.3-14c0.2,3.5-1.6,7.8-4,11.6c-0.5-1.4-0.7-2.7-0.5-3.9c-1.5,2.5-1.8,4.4-1.2,6.3c-0.1,0.2-0.3,0.4-0.4,0.5
		c0,0-0.1,0-0.1,0c-1.9-3.7-3.3-7.8-2.8-10.9c-2.2,3.6-2.9,6.6-2.4,9.4c-3.6-1.4-7-3.3-8.7-5.8c1.5,6.4,4.4,9.4,8.7,11
		c-4.6,3-8.3,7.3-10.6,12.4c-0.9,2-1.6,4.1-2,6.4C0.3,38.7,0.1,40.4,0,42c-0.1,2.7,0.2,5.4,0.8,7.9C1,50.5,1.1,51,1.3,51.6
		c0.6-0.5,1.4-0.8,2.2-0.8c1.3,0,2.9,0.7,3.2,2.5h-1c-0.3-1.1-1.3-1.5-2.2-1.5c-0.8,0-1.4,0.4-1.9,0.9c0.4,1.3,1,2.5,1.5,3.6
		c0.1,0.1,0.1,0.3,0.2,0.4c0,0,0.1,0,0.1,0c0.8,0,1.7-0.4,2.1-1.4H3.1v-1h3.6c0,0.6-0.1,1-0.2,1.2v0c-0.4,1.2-1.6,2-2.7,2.1
		C8.7,65.9,17.4,71.7,27.6,72c9.1,0.3,17.3-3.8,22.7-10.4c3.8-4.6,6.3-10.5,6.6-17c0-0.3,0-0.6,0-0.8C57,41.8,56.9,39.9,56.6,38.1z"
		/>
	<path class="st1" d="M3.5,51.7c0.9,0,1.9,0.4,2.2,1.5h1c-0.4-1.8-1.9-2.5-3.2-2.5c-0.9,0-1.6,0.3-2.2,0.8c0.1,0.4,0.2,0.7,0.4,1.1
		C2.1,52.1,2.7,51.7,3.5,51.7z"/>
	<path class="st1" d="M6.6,55.5L6.6,55.5c0.1-0.2,0.1-0.6,0.2-1.2H3.1v1h2.5c-0.4,1-1.3,1.4-2.1,1.4c0,0-0.1,0-0.1,0
		c0.2,0.3,0.3,0.6,0.5,0.9C5,57.4,6.2,56.6,6.6,55.5z"/>
	<path class="st1" d="M9.2,54.1h1.1c0.8,0,1.2-0.6,1.2-1.2c0-0.6-0.4-1.2-1.2-1.2H8.9v5.8h-1v-6.8h2.5c1.5,0,2.2,1.1,2.2,2.2
		c0,1-0.6,1.9-1.7,2.1l2.1,2.6h-1.3l-2.5-3V54.1z"/>
	<path class="st1" d="M17.3,55.6h-2.4c-0.3,0.6-0.6,1.4-0.8,2H13l2.7-6.9h0.7l2.7,6.9h-1L17.3,55.6z M15.2,54.6h1.7l-0.8-2.4
		L15.2,54.6z"/>
	<path class="st1" d="M20,57.6v-6.8l0.8,0l3.3,4.8v-4.8h1v6.8h-0.8L21,52.8v4.7H20z"/>
	<path class="st1" d="M30.2,55.6h-2.4c-0.3,0.6-0.6,1.4-0.8,2h-1.1l2.7-6.9h0.7l2.7,6.9h-1L30.2,55.6z M28.2,54.6h1.7L29,52.2
		L28.2,54.6z"/>
	<path class="st1" d="M33.7,57.6v-5.9h-2v-0.9h5.1v0.9h-2v5.9H33.7z"/>
</g>
</svg>
