<?xml version="1.0" encoding="utf-8"?>
<!-- Generator: Adobe Illustrator 21.0.0, SVG Export Plug-In . SVG Version: 6.00 Build 0)  -->
<svg version="1.1" id="Слой_1" xmlns="http://www.w3.org/2000/svg" xmlns:xlink="http://www.w3.org/1999/xlink" x="0px" y="0px"
	 viewBox="0 0 92 35" style="enable-background:new 0 0 92 35;" xml:space="preserve">
<style type="text/css">
	.st0{fill:#B41F2F;}
	.st1{fill:#FFFFFF;}
</style>
<g>
	<path class="st0" d="M27.7,18.5c-0.6-3.4-2.3-6.3-4.7-8.5c-2.3-2-5.3-3.2-8.6-3.3c-0.7,0-1.4,0-2.1,0.1l0,0c1.1-1.9,1.2-4-0.2-6.8
		c0.1,1.7-0.8,3.8-2,5.7C9.9,5,9.8,4.3,9.9,3.8C9.1,5,9,5.9,9.3,6.9C9.2,7,9.2,7,9.1,7.1c0,0,0,0-0.1,0C8.1,5.3,7.4,3.3,7.6,1.8
		C6.6,3.6,6.2,5,6.5,6.4C4.7,5.7,3.1,4.8,2.2,3.6C3,6.7,4.4,8.2,6.5,8.9c-2.2,1.5-4.1,3.5-5.2,6c-0.4,1-0.8,2-1,3.1
		C0.1,18.8,0,19.6,0,20.4c0,1.3,0.1,2.6,0.4,3.8c0.1,0.3,0.1,0.5,0.2,0.8c0.3-0.3,0.7-0.4,1.1-0.4c0.6,0,1.4,0.3,1.6,1.2H2.8
		c-0.1-0.5-0.6-0.7-1.1-0.7c-0.4,0-0.7,0.2-0.9,0.5c0.2,0.6,0.5,1.2,0.8,1.8c0,0.1,0.1,0.1,0.1,0.2c0,0,0,0,0.1,0
		c0.4,0,0.8-0.2,1-0.7H1.5v-0.5h1.8c0,0.3,0,0.5-0.1,0.6v0c-0.2,0.6-0.8,1-1.3,1c2.3,4.1,6.6,6.8,11.6,7c4.4,0.1,8.5-1.8,11.1-5
		c1.9-2.3,3.1-5.1,3.2-8.3c0-0.1,0-0.3,0-0.4C27.9,20.3,27.8,19.4,27.7,18.5z"/>
	<path class="st1" d="M1.7,25.1c0.4,0,0.9,0.2,1.1,0.7h0.5c-0.2-0.9-0.9-1.2-1.6-1.2c-0.4,0-0.8,0.2-1.1,0.4
		c0.1,0.2,0.1,0.4,0.2,0.5C1,25.3,1.3,25.1,1.7,25.1z"/>
	<path class="st1" d="M3.2,27L3.2,27c0-0.1,0.1-0.3,0.1-0.6H1.5v0.5h1.2c-0.2,0.5-0.6,0.7-1,0.7c0,0,0,0-0.1,0
		c0.1,0.2,0.2,0.3,0.2,0.4C2.4,27.9,3,27.5,3.2,27z"/>
	<path class="st1" d="M4.5,26.3h0.6c0.4,0,0.6-0.3,0.6-0.6c0-0.3-0.2-0.6-0.6-0.6H4.3V28H3.9v-3.3h1.2c0.7,0,1.1,0.5,1.1,1.1
		c0,0.5-0.3,0.9-0.9,1l1,1.2H5.7l-1.2-1.4V26.3z"/>
	<path class="st1" d="M8.5,27H7.3c-0.1,0.3-0.3,0.7-0.4,1H6.4l1.3-3.3H8L9.4,28H8.9L8.5,27z M7.5,26.6h0.8l-0.4-1.2L7.5,26.6z"/>
	<path class="st1" d="M9.8,28v-3.3l0.4,0l1.6,2.3v-2.3h0.5V28h-0.4l-1.6-2.3V28H9.8z"/>
	<path class="st1" d="M14.8,27h-1.2c-0.1,0.3-0.3,0.7-0.4,1h-0.5l1.3-3.3h0.3l1.3,3.3h-0.5L14.8,27z M13.8,26.6h0.8l-0.4-1.2
		L13.8,26.6z"/>
	<path class="st1" d="M16.5,28v-2.9h-1v-0.4h2.5v0.4h-1V28H16.5z"/>
</g>
<g>
	<path class="st0" d="M43.6,20c-0.4-1.7-2-2.3-3.4-2.3c-2.1,0-3.7,1.6-3.7,3.8c0,2.2,1.6,3.9,3.7,3.9c1.3,0,2.7-0.6,3.3-2.1h-3.9
		v-1.5h5.7c-0.1,0.9-0.2,1.5-0.3,1.8v0c-0.7,2-2.9,3.3-4.8,3.3c-3,0-5.2-2.2-5.2-5.3c0-3.1,2.3-5.3,5.2-5.3c2,0,4.5,1,5,3.8H43.6z"
		/>
	<path class="st0" d="M49.1,21.5h1.8c1.3,0,1.9-0.9,1.9-1.8c0-0.9-0.6-1.8-1.9-1.8h-2.3v9h-1.5V16.3h3.8c2.3,0,3.4,1.7,3.4,3.4
		c0,1.5-0.9,2.9-2.7,3.2l3.3,4h-2l-3.8-4.6V21.5z"/>
	<path class="st0" d="M61.8,23.7H58c-0.4,1-0.9,2.2-1.3,3.1h-1.6l4.2-10.7h1.1l4.2,10.7H63L61.8,23.7z M58.6,22.3h2.6l-1.3-3.7
		L58.6,22.3z"/>
	<path class="st0" d="M66.1,26.8V16.2l1.2,0l5.1,7.4v-7.4h1.5v10.5h-1.2l-5.1-7.4v7.4H66.1z"/>
	<path class="st0" d="M81.9,23.7h-3.8c-0.4,1-0.9,2.2-1.3,3.1h-1.6l4.2-10.7h1.1l4.2,10.7h-1.6L81.9,23.7z M78.7,22.3h2.6l-1.3-3.7
		L78.7,22.3z"/>
	<path class="st0" d="M87.3,26.8v-9.2h-3.2v-1.4H92v1.4h-3.2v9.2H87.3z"/>
</g>
</svg>
