<?xml version="1.0" encoding="utf-8"?>
<!-- Generator: Adobe Illustrator 21.0.0, SVG Export Plug-In . SVG Version: 6.00 Build 0)  -->
<svg version="1.1" id="Layer_1" xmlns="http://www.w3.org/2000/svg" xmlns:xlink="http://www.w3.org/1999/xlink" x="0px" y="0px"
	 viewBox="0 0 20 20" style="enable-background:new 0 0 20 20;" xml:space="preserve">
<style type="text/css">
	.st0{fill:#B6202F;}
</style>
<g>
	<path class="st0" d="M19.7,0H0.3C0.2,0,0,0.2,0,0.3v19.3C0,19.8,0.2,20,0.3,20h19.3c0.2,0,0.3-0.2,0.3-0.3V0.3
		C20,0.2,19.8,0,19.7,0z M19.3,0.7v18.6H0.7V0.7H19.3z"/>
	<path class="st0" d="M6.8,16.7h6.4c1.9,0,3.5-1.6,3.5-3.5V6.8c0-1.9-1.6-3.5-3.5-3.5H6.8c-1.9,0-3.5,1.6-3.5,3.5v6.4
		C3.3,15.1,4.9,16.7,6.8,16.7z M6.8,4h6.4C14.7,4,16,5.3,16,6.8v6.4c0,1.5-1.3,2.8-2.8,2.8H6.8C5.3,16,4,14.7,4,13.2V6.8
		C4,5.3,5.3,4,6.8,4z"/>
	<path class="st0" d="M13.9,7.1c0.6,0,1-0.5,1-1s-0.5-1-1-1c-0.6,0-1,0.5-1,1S13.4,7.1,13.9,7.1z M13.6,6.1c0-0.2,0.1-0.3,0.3-0.3
		c0.2,0,0.3,0.1,0.3,0.3c0,0.2-0.1,0.3-0.3,0.3C13.7,6.4,13.6,6.3,13.6,6.1z"/>
	<path class="st0" d="M7,15.3c0.2,0,0.3-0.2,0.3-0.3S7.2,14.6,7,14.6c-0.9,0-1.6-0.7-1.6-1.6V9.4c0-0.2-0.2-0.3-0.3-0.3
		c-0.2,0-0.3,0.2-0.3,0.3V13C4.7,14.2,5.8,15.3,7,15.3z"/>
	<path class="st0" d="M5.1,8.1c0.2,0,0.3-0.2,0.3-0.3V7c0-0.2-0.2-0.3-0.3-0.3C4.9,6.7,4.7,6.8,4.7,7v0.8C4.7,8,4.9,8.1,5.1,8.1z"/>
	<path class="st0" d="M12.9,8.7L12.9,8.7c0.1,0.1,0.2,0.2,0.3,0.2c0,0,0.1,0,0.1,0c0.2-0.1,0.3-0.3,0.2-0.5
		c-0.1-0.3-0.3-0.6-0.6-0.9c-0.1-0.1-0.3-0.2-0.5,0c-0.1,0.1-0.1,0.1-0.1,0.2c0,0.1,0,0.2,0.1,0.3C12.6,8.2,12.8,8.5,12.9,8.7z"/>
	<path class="st0" d="M10,7.8c-1.2,0-2.2,1-2.2,2.2s1,2.2,2.2,2.2s2.2-1,2.2-2.2S11.2,7.8,10,7.8z M10,11.5c-0.8,0-1.5-0.7-1.5-1.5
		S9.2,8.5,10,8.5s1.5,0.7,1.5,1.5S10.8,11.5,10,11.5z"/>
	<path class="st0" d="M10,13.8c2.1,0,3.8-1.7,3.8-3.8c0-0.2-0.2-0.3-0.3-0.3s-0.3,0.2-0.3,0.3c0,1.7-1.4,3.2-3.2,3.2
		S6.8,11.7,6.8,10S8.3,6.8,10,6.8c0.5,0,0.9,0.1,1.3,0.3c0.2,0.1,0.4,0,0.5-0.2c0.1-0.2,0-0.4-0.2-0.5c-0.5-0.2-1.1-0.4-1.6-0.4
		c-2.1,0-3.8,1.7-3.8,3.8S7.9,13.8,10,13.8z"/>
</g>
</svg>
