<?xml version="1.0" encoding="utf-8"?>
<!-- Generator: Adobe Illustrator 21.0.0, SVG Export Plug-In . SVG Version: 6.00 Build 0)  -->
<svg version="1.1" id="Слой_1" xmlns="http://www.w3.org/2000/svg" xmlns:xlink="http://www.w3.org/1999/xlink" x="0px" y="0px"
	 viewBox="0 0 106 20" style="enable-background:new 0 0 106 20;" xml:space="preserve">
<style type="text/css">
	.st0{fill:#992432;}
</style>
<g>
	<path class="st0" d="M16,7.3C15.2,4.1,12.1,3,9.6,3c-3.8,0-6.8,3-6.8,7.1c0,4.1,3,7.2,6.8,7.2c2.4,0,5-1.1,6.2-4H8.6v-2.8h10.6
		c-0.1,1.7-0.3,2.7-0.5,3.4v0c-1.3,3.8-5.4,6.2-8.9,6.2C4.1,20,0,15.9,0,10.1c0-5.8,4.2-9.9,9.6-9.9c3.8,0,8.3,1.9,9.3,7.1H16z"/>
	<path class="st0" d="M26.2,9.9h3.3c2.4,0,3.6-1.7,3.6-3.4c0-1.7-1.2-3.4-3.6-3.4h-4.3v16.8h-2.8V0.3h7.2c4.3,0,6.4,3.1,6.4,6.2
		c0,2.8-1.7,5.4-5.1,6l6.2,7.4h-3.7l-7.2-8.6V9.9z"/>
	<path class="st0" d="M49.7,14.1h-7c-0.8,1.8-1.7,4.1-2.4,5.8h-3.1L45.2,0h2.1l7.9,19.9h-3L49.7,14.1z M43.8,11.4h4.9l-2.4-6.9
		L43.8,11.4z"/>
	<path class="st0" d="M57.7,19.9V0.2l2.2,0l9.6,13.8V0.3h2.8v19.6H70L60.5,6.2v13.7H57.7z"/>
	<path class="st0" d="M87.3,14.1h-7c-0.8,1.8-1.7,4.1-2.4,5.8h-3.1L82.7,0h2.1l7.9,19.9h-3L87.3,14.1z M81.3,11.4h4.9l-2.4-6.9
		L81.3,11.4z"/>
	<path class="st0" d="M97.2,19.9V2.9h-5.9V0.3H106v2.6h-5.9v17.1H97.2z"/>
</g>
</svg>
