<?xml version="1.0" encoding="utf-8"?>
<!-- Generator: Adobe Illustrator 21.0.0, SVG Export Plug-In . SVG Version: 6.00 Build 0)  -->
<svg version="1.1" id="Layer_1" xmlns="http://www.w3.org/2000/svg" xmlns:xlink="http://www.w3.org/1999/xlink" x="0px" y="0px"
	 viewBox="0 0 64 64" style="enable-background:new 0 0 64 64;" xml:space="preserve">
<style type="text/css">
	.st0{fill:#B6202F;}
</style>
<g>
	<g>
		<path class="st0" d="M19.9,20.4c-0.4,0-0.7,0.3-0.7,0.7v0.6h-0.4c-2,0-3.6,1.6-3.6,3.6v15.8c0,2,1.6,3.6,3.6,3.6h26.7
			c2,0,3.6-1.6,3.6-3.6V25.3c0-1-0.4-1.8-1-2.5c-0.7-0.7-1.6-1-2.5-1h-6.4l-1.8-3.9c-0.1-0.3-0.4-0.4-0.6-0.4h-9
			c-0.3,0-0.5,0.2-0.6,0.4l-1.8,3.9h-4.7v-0.6C20.6,20.7,20.3,20.4,19.9,20.4z M28.2,18.7h8.1l1.3,2.9H26.9L28.2,18.7z M45.6,23.1
			c1.2,0,2.2,1,2.2,2.2l0,15.8c0,1.2-1,2.2-2.2,2.2H18.9c-1.2,0-2.2-1-2.2-2.2V25.3c0-1.2,1-2.2,2.2-2.2H45.6z"/>
		<path class="st0" d="M22.7,25.5h-3c-0.4,0-0.7,0.3-0.7,0.7c0,0.4,0.3,0.7,0.7,0.7h3c0.4,0,0.7-0.3,0.7-0.7
			C23.4,25.8,23.1,25.5,22.7,25.5z"/>
		<path class="st0" d="M32.3,25.5c-4.2,0-7.6,3.4-7.6,7.6c0,4.2,3.4,7.6,7.6,7.6c4.2,0,7.6-3.4,7.6-7.6
			C39.9,28.9,36.5,25.5,32.3,25.5z M32.3,39.4c-3.4,0-6.2-2.8-6.2-6.2c0-3.4,2.8-6.2,6.2-6.2c3.4,0,6.2,2.8,6.2,6.2
			C38.5,36.6,35.7,39.4,32.3,39.4z"/>
		<path class="st0" d="M32.3,29.3c-0.4,0-0.7,0.3-0.7,0.7c0,0.4,0.3,0.7,0.7,0.7c1.3,0,2.4,1.1,2.4,2.4c0,0.4,0.3,0.7,0.7,0.7
			c0.4,0,0.7-0.3,0.7-0.7C36.1,31.1,34.4,29.3,32.3,29.3z"/>
	</g>
	<path class="st0" d="M32,0h-0.2v1.5H32c16.8,0,30.5,13.7,30.5,30.5c0,16.8-13.7,30.5-30.5,30.5h-0.2V64H32c17.6,0,32-14.4,32-32
		C64,14.4,49.6,0,32,0z"/>
</g>
</svg>
