<?xml version="1.0" encoding="utf-8"?>
<!-- Generator: Adobe Illustrator 21.0.0, SVG Export Plug-In . SVG Version: 6.00 Build 0)  -->
<svg version="1.1" id="Layer_1" xmlns="http://www.w3.org/2000/svg" xmlns:xlink="http://www.w3.org/1999/xlink" x="0px" y="0px"
	 viewBox="0 0 64 64" style="enable-background:new 0 0 64 64;" xml:space="preserve">
<style type="text/css">
	.st0{fill:#B6202F;}
</style>
<g>
	<path class="st0" d="M31.8,48.4c-1.3,0-1.8-0.7-2.1-1.8h-0.9c-0.4,0-0.7-0.3-0.7-0.7s0.3-0.7,0.7-0.7h1.5c0.3,0,0.6,0.3,0.7,0.6
		c0,0,0,0.2,0,0.3c0.2,0.9,0.3,0.9,0.7,0.9c0.5,0,0.6,0,0.8-1c0-0.1,0-0.2,0-0.2c0-0.4,0.3-0.6,0.7-0.6h1.5c0.4,0,0.7,0.3,0.7,0.7
		s-0.3,0.7-0.7,0.7h-0.9C33.6,47.7,33.1,48.4,31.8,48.4z M34.4,44.6c-0.9,0-2.7,0-4.1,0l-1.6,0c-0.4,0-0.7-0.3-0.7-0.7
		s0.3-0.7,0.7-0.7l1.6,0c1.7,0,4.2,0,4.6,0c0,0,0,0,0,0c0.4,0,0.7,0.3,0.7,0.7c0,0.4-0.3,0.7-0.7,0.7C34.8,44.6,34.6,44.6,34.4,44.6
		z M20.1,44c-0.2,0-0.4-0.1-0.5-0.2c-0.3-0.3-0.3-0.7,0-1l3.7-3.7c0.3-0.3,0.7-0.3,1,0c0.3,0.3,0.3,0.7,0,1l-3.7,3.7
		C20.5,43.9,20.3,44,20.1,44z M44.1,43.6c-0.2,0-0.4-0.1-0.5-0.2l-3.7-3.7c-0.3-0.3-0.3-0.7,0-1c0.3-0.3,0.7-0.3,1,0l3.7,3.7
		c0.3,0.3,0.3,0.7,0,1C44.5,43.5,44.3,43.6,44.1,43.6z M35.2,42.7L35.2,42.7l-6.7,0c-0.3,0-0.6-0.2-0.7-0.6
		c-0.1-0.4-0.5-2.4-0.5-2.6c-0.3-1.7-1.1-2.8-2.1-4c-1.1-1.4-2.3-3-2.3-5.4c0-4.8,3.9-8.5,9-8.5c5.1,0,9,3.7,9,8.5
		c0,2.6-1.1,4.2-2.2,5.7l0,0c-0.8,1-1.6,2.2-2.3,4c-0.1,0.2-0.4,1.6-0.4,1.8l-0.1,0.5C35.9,42.4,35.6,42.7,35.2,42.7z M29.1,41.3
		l5.5,0c0.1-0.5,0.4-1.7,0.5-1.9c0,0,0,0,0-0.1c0.7-1.9,1.6-3.2,2.4-4.3l0,0c1-1.4,1.9-2.7,1.9-4.9c0-4.1-3.3-7.1-7.6-7.1
		c-4.3,0-7.6,3-7.6,7.1c0,1.9,1,3.1,2,4.5c1,1.3,2.1,2.7,2.4,4.7C28.7,39.5,28.9,40.5,29.1,41.3z M20.3,32.1h-5.2
		c-0.4,0-0.7-0.3-0.7-0.7s0.3-0.7,0.7-0.7h5.2c0.4,0,0.7,0.3,0.7,0.7S20.7,32.1,20.3,32.1z M48.9,31.7h-5.2c-0.4,0-0.7-0.3-0.7-0.7
		c0-0.4,0.3-0.7,0.7-0.7h5.2c0.4,0,0.7,0.3,0.7,0.7C49.6,31.4,49.3,31.7,48.9,31.7z M23.6,23.8c-0.2,0-0.4-0.1-0.5-0.2l-3.7-3.7
		c-0.3-0.3-0.3-0.7,0-1c0.3-0.3,0.7-0.3,1,0l3.7,3.7c0.3,0.3,0.3,0.7,0,1C24,23.7,23.8,23.8,23.6,23.8z M40.1,23.5
		c-0.2,0-0.4-0.1-0.5-0.2c-0.3-0.3-0.3-0.7,0-1l3.7-3.7c0.3-0.3,0.7-0.3,1,0c0.3,0.3,0.3,0.7,0,1l-3.7,3.7
		C40.5,23.4,40.3,23.5,40.1,23.5z M31.8,20.2c-0.4,0-0.7-0.3-0.7-0.7v-5.2c0-0.4,0.3-0.7,0.7-0.7c0.4,0,0.7,0.3,0.7,0.7v5.2
		C32.5,19.9,32.2,20.2,31.8,20.2z"/>
	<path class="st0" d="M53.7,53.4l-0.2,0.2c-11.9,11.9-31.3,11.9-43.2,0c-11.9-11.9-11.9-31.3,0-43.1l0.2-0.2L9.5,9.2L9.4,9.4
		c-12.5,12.5-12.5,32.8,0,45.3s32.8,12.5,45.3,0l0.2-0.2L53.7,53.4z"/>
</g>
</svg>
