<?xml version="1.0" encoding="utf-8"?>
<!-- Generator: Adobe Illustrator 21.0.0, SVG Export Plug-In . SVG Version: 6.00 Build 0)  -->
<svg version="1.1" id="Layer_1" xmlns="http://www.w3.org/2000/svg" xmlns:xlink="http://www.w3.org/1999/xlink" x="0px" y="0px"
	 viewBox="0 0 20 20" style="enable-background:new 0 0 20 20;" xml:space="preserve">
<style type="text/css">
	.st0{fill:#B6202F;}
</style>
<g>
	<path class="st0" d="M11.9,6.4c0.2,0.1,0.4,0.2,0.6,0.3c0.2,0.1,0.3,0.3,0.5,0.4l0,0c0.1,0.1,0.3,0.3,0.4,0.5
		c0.1,0.2,0.2,0.4,0.3,0.6c0.1,0.2,0.2,0.2,0.4,0.2c0.1,0,0.1,0,0.2,0c0.1,0,0.2-0.1,0.2-0.2c0-0.1,0-0.2,0-0.3
		c-0.1-0.2-0.2-0.5-0.4-0.7c-0.1-0.2-0.3-0.4-0.4-0.5l0,0l-0.1-0.1c-0.2-0.2-0.4-0.4-0.6-0.5c-0.2-0.1-0.4-0.3-0.7-0.4
		c-0.1,0-0.2,0-0.3,0c-0.1,0-0.2,0.1-0.2,0.2C11.6,6,11.7,6.3,11.9,6.4z"/>
	<path class="st0" d="M11.9,4.4c0.4,0.1,0.8,0.3,1.2,0.5c0.4,0.2,0.7,0.5,1.1,0.8c0.3,0.3,0.6,0.7,0.8,1.1c0.2,0.4,0.4,0.8,0.5,1.2
		c0,0.1,0.1,0.2,0.2,0.2c0.1,0,0.1,0.1,0.2,0.1c0,0,0.1,0,0.1,0c0.2-0.1,0.3-0.3,0.3-0.5c-0.1-0.5-0.3-1-0.6-1.4
		c-0.3-0.5-0.6-0.9-0.9-1.2c-0.4-0.4-0.8-0.7-1.2-0.9c-0.4-0.3-0.9-0.5-1.4-0.6c-0.2-0.1-0.4,0.1-0.5,0.3
		C11.6,4.1,11.7,4.4,11.9,4.4z"/>
	<path class="st0" d="M12,2.5c0.7,0.1,1.3,0.4,1.9,0.7c0.6,0.3,1.2,0.7,1.7,1.2c0.5,0.5,0.9,1,1.2,1.7c0.3,0.6,0.6,1.3,0.7,1.9
		c0,0.2,0.2,0.3,0.4,0.3c0,0,0.1,0,0.1,0c0.2,0,0.4-0.3,0.3-0.5c-0.1-0.8-0.4-1.5-0.8-2.2c-0.4-0.7-0.8-1.3-1.4-1.8
		c-0.5-0.5-1.2-1-1.8-1.4c-0.7-0.4-1.4-0.6-2.2-0.8c-0.2,0-0.4,0.1-0.5,0.3C11.6,2.3,11.7,2.5,12,2.5z"/>
	<path class="st0" d="M19.8,16.2l-5-3.7c-0.1-0.1-0.3-0.1-0.5,0l0,0l-1,1c-0.8,0.8-2.2,0.8-3.7-0.2C9,13,8.4,12.6,7.9,12.1
		C7.4,11.6,7,11,6.6,10.5c-0.9-1.6-1-2.9-0.2-3.7l1-1c0.2-0.1,0.2-0.4,0-0.5l-3.7-5C3.7,0,3.4-0.1,3.2,0.1c0,0,0,0,0,0L1.5,1.8l0,0
		L1.4,1.9C0,3.3-0.3,5.1,0.3,7.2c0.7,2.1,2.4,4.5,5,7.2l0.1,0.1c0.1,0.1,0.3,0.3,0.4,0.4c2.6,2.5,4.9,4.1,7,4.7
		c0.7,0.2,1.3,0.3,1.9,0.3c1.3,0,2.4-0.5,3.3-1.4l0.4-0.5l0,0c0,0,0-0.1,0-0.1l0,0c0,0,0-0.1,0-0.1c0-0.1,0-0.1,0-0.1l0,0
		c0,0,0-0.1,0-0.1l-3.8-2.8c-0.1-0.1-0.2-0.1-0.3-0.1c-0.1,0-0.2,0.1-0.3,0.2c-0.1,0.1-0.1,0.2-0.1,0.3s0.1,0.2,0.2,0.3l3.4,2.5
		l-0.1,0.1c-1.1,1.1-2.6,1.4-4.4,0.9c-1.9-0.6-4.2-2.1-6.6-4.5C6.4,14.3,6.2,14.1,6,14l-0.1-0.1C3.4,11.3,1.8,9,1.1,7
		C0.5,5.1,0.8,3.6,2,2.4l0.1-0.1l2.5,3.4c0.1,0.1,0.2,0.1,0.3,0.2c0.1,0,0.2,0,0.3-0.1c0.1-0.1,0.1-0.2,0.2-0.3c0-0.1,0-0.2-0.1-0.3
		L2.6,1.8L3.4,1l3.2,4.4L5.9,6.2C4.7,7.3,4.8,9,5.9,10.9c0.4,0.6,0.9,1.2,1.4,1.8c0.5,0.5,1.2,1,1.8,1.4c1.9,1.2,3.6,1.2,4.7,0.1
		l0.8-0.8l4.8,3.5c0.2,0.1,0.4,0.1,0.6-0.1c0.1-0.1,0.1-0.2,0.1-0.3S19.9,16.3,19.8,16.2z"/>
</g>
</svg>
