<?xml version="1.0" encoding="utf-8"?>
<!-- Generator: Adobe Illustrator 21.0.0, SVG Export Plug-In . SVG Version: 6.00 Build 0)  -->
<svg version="1.1" id="Layer_1" xmlns="http://www.w3.org/2000/svg" xmlns:xlink="http://www.w3.org/1999/xlink" x="0px" y="0px"
	 viewBox="0 0 64 64" style="enable-background:new 0 0 64 64;" xml:space="preserve">
<style type="text/css">
	.st0{fill:#B6202F;}
</style>
<g>
	<g>
		<path class="st0" d="M49.4,46.7H17.3V14.6c0-0.4-0.3-0.7-0.7-0.7c-0.4,0-0.7,0.3-0.7,0.7v32.8c0,0.4,0.3,0.7,0.7,0.7h32.8
			c0.4,0,0.7-0.3,0.7-0.7C50.1,47,49.8,46.7,49.4,46.7z"/>
		<path class="st0" d="M19.9,44.6C19.9,44.6,19.9,44.6,19.9,44.6c3.8-0.4,6.9-1.2,9.6-2.4c2.7,1.6,5.9,2.4,9.5,2.4
			c1.2,0,2.5-0.1,3.8-0.3c0.4-0.1,0.7-0.4,0.6-0.8c-0.1-0.4-0.4-0.7-0.8-0.6c-4.5,0.6-8.3,0.1-11.5-1.5c12-6.4,11.8-19.6,11.8-19.7
			c0-0.4-0.4-0.7-0.7-0.7c-0.4,0-0.7,0.3-0.7,0.7c0,0.6,0.2,13.2-11.8,18.9c-0.6-0.4-1.1-0.8-1.6-1.2c-7-6.2-7-17.9-7-18
			c0-0.4-0.3-0.7-0.7-0.7c0,0,0,0,0,0c-0.4,0-0.7,0.3-0.7,0.7c0,0.5-0.1,12.5,7.5,19.1c0.3,0.3,0.7,0.6,1,0.8
			c-2.3,0.9-5,1.6-8.2,1.9c-0.4,0-0.7,0.4-0.6,0.8C19.2,44.4,19.5,44.6,19.9,44.6z"/>
	</g>
	<path class="st0" d="M54.6,9.4l-0.2-0.2l-1.1,1.1l0.2,0.2c11.9,11.9,11.9,31.3,0,43.1c-11.9,11.9-31.3,11.9-43.1,0l-0.2-0.2
		l-1.1,1.1l0.2,0.2c12.5,12.5,32.8,12.5,45.3,0S67.1,21.9,54.6,9.4z"/>
</g>
</svg>
