<?xml version="1.0" encoding="utf-8"?>
<!-- Generator: Adobe Illustrator 21.0.0, SVG Export Plug-In . SVG Version: 6.00 Build 0)  -->
<svg version="1.1" id="Layer_1" xmlns="http://www.w3.org/2000/svg" xmlns:xlink="http://www.w3.org/1999/xlink" x="0px" y="0px"
	 viewBox="0 0 20 20" style="enable-background:new 0 0 20 20;" xml:space="preserve">
<style type="text/css">
	.st0{fill:#B41F2F;}
</style>
<g>
	<path class="st0" d="M0.5,10.1c0,5.2,4.3,9.5,9.6,9.5c0.5,0,1.1,0,1.6-0.1c0.1,0,0.2-0.1,0.3-0.2s0.1-0.2,0.1-0.3
		c0-0.1-0.1-0.2-0.2-0.3c-0.1-0.1-0.2-0.1-0.4-0.1c-0.5,0.1-1,0.1-1.5,0.1c-4.8,0-8.6-3.8-8.6-8.5c0-0.5,0-1.1,0.1-1.6
		c0-0.1,0-0.2,0-0.3C1.2,7.5,0.9,6.7,0.9,5.8c0-2.7,2.2-4.9,5-4.9c0.3,0,0.5-0.2,0.5-0.5S6.2,0,5.9,0C2.7,0,0,2.6,0,5.8
		c0,0.9,0.2,1.8,0.6,2.6l0,0.1l0,0.1C0.6,9.1,0.5,9.6,0.5,10.1z"/>
	<path class="st0" d="M19.5,11.9L19.5,11.9l0-0.1c0.1-0.6,0.1-1.1,0.1-1.7c0-5.2-4.3-9.5-9.6-9.5c-0.5,0-1,0-1.5,0.1
		C8.4,0.8,8.2,1,8.2,1.3c0,0.1,0.1,0.2,0.2,0.3c0.1,0.1,0.2,0.1,0.3,0.1c0.4-0.1,0.9-0.1,1.3-0.1c4.8,0,8.6,3.8,8.6,8.5
		c0,0.6-0.1,1.2-0.2,1.7c0,0.1,0,0.2,0,0.3c0.3,0.7,0.5,1.3,0.5,2.1c0,2.7-2.2,4.9-5,4.9c-0.3,0-0.5,0.2-0.5,0.5
		c0,0.3,0.2,0.5,0.5,0.5c3.3,0,5.9-2.6,5.9-5.8C20,13.4,19.8,12.6,19.5,11.9z"/>
	<path class="st0" d="M7.9,13.7c0.6,0.3,1.3,0.4,2.2,0.4c0.7,0,1.4-0.1,1.9-0.3c0.5-0.2,0.9-0.5,1.2-0.9c0.3-0.4,0.4-0.8,0.4-1.2
		c0-0.4-0.1-0.7-0.2-1c-0.1-0.3-0.4-0.5-0.6-0.7c-0.3-0.2-0.6-0.3-1-0.5c-0.4-0.1-0.9-0.3-1.4-0.4C9.8,9.2,9.5,9.1,9.3,9.1
		C9.1,9,8.9,8.9,8.7,8.8C8.5,8.7,8.3,8.6,8.2,8.4C8.1,8.3,8,8.1,8,7.8c0-0.4,0.2-0.7,0.6-0.9c0.3-0.2,0.8-0.3,1.3-0.3
		c0.6,0,1,0.1,1.3,0.3c0.3,0.2,0.5,0.5,0.7,0.8c0.1,0.2,0.2,0.3,0.3,0.4c0.1,0.1,0.2,0.1,0.3,0.1c0.2,0,0.3-0.1,0.4-0.2
		c0.1-0.1,0.2-0.2,0.2-0.4c0-0.2-0.1-0.4-0.2-0.6c-0.1-0.2-0.3-0.4-0.5-0.6c-0.3-0.2-0.6-0.4-1-0.5c-0.4-0.1-0.9-0.2-1.4-0.2
		C9.4,5.9,8.7,6,8.2,6.1C7.8,6.3,7.4,6.6,7.1,6.9C6.9,7.2,6.8,7.6,6.8,8c0,0.4,0.1,0.8,0.3,1.1c0.2,0.3,0.6,0.5,1,0.7
		c0.4,0.2,1,0.4,1.7,0.5c0.5,0.1,0.9,0.2,1.2,0.3c0.3,0.1,0.6,0.3,0.8,0.5c0.2,0.2,0.4,0.5,0.4,0.9c0,0.4-0.2,0.8-0.6,1.1
		c-0.4,0.3-0.9,0.4-1.5,0.4c-0.5,0-0.8-0.1-1.1-0.2c-0.3-0.1-0.5-0.3-0.7-0.5c-0.2-0.2-0.3-0.4-0.4-0.7c-0.1-0.2-0.2-0.3-0.3-0.4
		c-0.1-0.1-0.2-0.1-0.3-0.1c-0.2,0-0.3,0-0.4,0.2c-0.1,0.1-0.2,0.2-0.2,0.4c0,0.3,0.1,0.6,0.4,1C7.2,13.3,7.5,13.5,7.9,13.7z"/>
</g>
</svg>
