<?xml version="1.0" encoding="utf-8"?>
<!-- Generator: Adobe Illustrator 21.0.0, SVG Export Plug-In . SVG Version: 6.00 Build 0)  -->
<svg version="1.1" id="Layer_1" xmlns="http://www.w3.org/2000/svg" xmlns:xlink="http://www.w3.org/1999/xlink" x="0px" y="0px"
	 viewBox="0 0 64 64" style="enable-background:new 0 0 64 64;" xml:space="preserve">
<style type="text/css">
	.st0{fill:#B6202F;}
</style>
<g>
	<g>
		<path class="st0" d="M48.7,31.2c0-0.4,0.1-0.8,0.1-1.2c0-6.5-5.3-11.8-11.8-11.8c-3.8,0-7.3,1.8-9.5,4.9c-0.7-0.2-1.5-0.3-2.2-0.3
			c-4.5,0-8.2,3.5-8.5,7.9c-3,0.3-5.2,2.8-5.2,5.8c0,3.2,2.6,5.9,5.9,5.9h7.9c1.5,1.7,3.6,2.6,5.8,2.6c1.6,0,3.2-0.5,4.6-1.5
			c1.3,0.9,2.9,1.5,4.6,1.5c2.2,0,4.4-0.9,5.8-2.6h0c3.2,0,5.9-2.6,5.9-5.9C52,34.3,50.7,32.2,48.7,31.2z M46.1,41.1h-0.6
			c0,0-1.5,2.6-5.2,2.6c-2.8,0-4.6-1.8-4.6-1.8s-1.7,1.8-4.6,1.8c-3.4,0-5.2-2.6-5.2-2.6h-8.5c-2.5,0-4.6-2.1-4.6-4.6
			c0-2.5,2.1-4.6,4.6-4.6H18v-0.7c0-4,3.2-7.2,7.2-7.2c1.4,0,2.8,0.5,2.8,0.5s2.9-5.1,9-5.1c5.8,0,10.5,4.7,10.5,10.5
			c0,1.1-0.2,2.1-0.2,2.1s3.5,1.1,3.5,4.5C50.7,39.1,48.7,41.1,46.1,41.1z"/>
		<path class="st0" d="M19.3,32h1.3c0-2.9,2.3-5.2,5.2-5.2v-1.3C22.3,25.4,19.3,28.3,19.3,32z"/>
	</g>
	<path class="st0" d="M62.5,31.7V32c0,16.8-13.7,30.5-30.5,30.5C15.2,62.5,1.5,48.8,1.5,32v-0.2H0V32c0,17.6,14.4,32,32,32
		c17.6,0,32-14.4,32-32v-0.2H62.5z"/>
</g>
</svg>
