<?xml version="1.0" encoding="utf-8"?>
<!-- Generator: Adobe Illustrator 21.0.0, SVG Export Plug-In . SVG Version: 6.00 Build 0)  -->
<svg version="1.1" id="Layer_1" xmlns="http://www.w3.org/2000/svg" xmlns:xlink="http://www.w3.org/1999/xlink" x="0px" y="0px"
	 viewBox="0 0 20 20" style="enable-background:new 0 0 20 20;" xml:space="preserve">
<style type="text/css">
	.st0{fill:#B41F2F;}
</style>
<g>
	<g>
		<g>
			<g>
				<path class="st0" d="M15,4.6L6.8,9.8c-0.5,0.3-0.7,0.9-0.5,1.4l0.9,3.2c0.1,0.3,0.3,0.5,0.6,0.5c0,0,0,0,0,0
					c0.3,0,0.5-0.2,0.6-0.5l0.2-1.8c0-0.2,0.1-0.5,0.3-0.6l6.8-6.5c0.2-0.2,0.2-0.5,0.1-0.7C15.6,4.5,15.3,4.5,15,4.6z M8.4,11.4
					c-0.3,0.3-0.5,0.7-0.6,1.1l-0.1,0.9L7.1,11c-0.1-0.2,0-0.4,0.2-0.5l6-3.8L8.4,11.4z"/>
				<path class="st0" d="M19.7,1.2c-0.3-0.2-0.6-0.3-0.9-0.2L0.6,8.3C0.2,8.4,0,8.8,0,9.1C0,9.5,0.2,9.9,0.6,10l4.2,1.6l1.7,5.5
					c0.1,0.3,0.3,0.5,0.6,0.6c0.3,0.1,0.6,0,0.8-0.2l2.5-2.1c0.1-0.1,0.3-0.1,0.4,0l4.4,3.3c0.2,0.1,0.3,0.2,0.5,0.2
					c0.1,0,0.2,0,0.3-0.1c0.3-0.1,0.5-0.4,0.6-0.7L20,2.1C20,1.8,19.9,1.4,19.7,1.2z M19.2,2l-3.3,16.1c0,0.1-0.1,0.1-0.1,0.1
					c0,0-0.1,0-0.1,0l-4.4-3.3c-0.2-0.1-0.4-0.2-0.7-0.2c-0.3,0-0.5,0.1-0.7,0.3l-2.5,2.1c0,0-0.1,0-0.1,0c0,0-0.1,0-0.1-0.1
					l-1.7-5.7c0-0.1-0.1-0.2-0.2-0.3L0.9,9.3c-0.1,0-0.1-0.1-0.1-0.1c0,0,0-0.1,0.1-0.1L19,1.8l0,0c0.1,0,0.1,0,0.1,0
					C19.2,1.9,19.2,1.9,19.2,2z"/>
			</g>
		</g>
	</g>
	<g>
		<g>
			<path class="st0" d="M16.7,9.8c-0.2,0-0.4,0.1-0.5,0.3l-0.1,0.3c0,0.2,0.1,0.4,0.3,0.5c0,0,0.1,0,0.1,0c0.2,0,0.3-0.1,0.4-0.3
				l0.1-0.3C17.1,10.1,16.9,9.9,16.7,9.8z"/>
		</g>
	</g>
	<g>
		<g>
			<path class="st0" d="M16.3,11.7c-0.2,0-0.4,0.1-0.5,0.3l-0.9,4.3c0,0.2,0.1,0.4,0.3,0.5c0,0,0.1,0,0.1,0c0.2,0,0.3-0.1,0.4-0.3
				l0.9-4.3C16.7,12,16.5,11.8,16.3,11.7z"/>
		</g>
	</g>
</g>
</svg>
