<?xml version="1.0" encoding="utf-8"?>
<!-- Generator: Adobe Illustrator 21.0.0, SVG Export Plug-In . SVG Version: 6.00 Build 0)  -->
<svg version="1.1" id="Layer_1" xmlns="http://www.w3.org/2000/svg" xmlns:xlink="http://www.w3.org/1999/xlink" x="0px" y="0px"
	 viewBox="0 0 20 20" style="enable-background:new 0 0 20 20;" xml:space="preserve">
<style type="text/css">
	.st0{fill:#B6202F;}
</style>
<g>
	<path class="st0" d="M19.7,0H0.3C0.2,0,0,0.2,0,0.3v19.3C0,19.8,0.2,20,0.3,20h19.3c0.2,0,0.3-0.2,0.3-0.3V0.3
		C20,0.2,19.8,0,19.7,0z M19.3,0.7v18.6H0.7V0.7H19.3z"/>
	<path class="st0" d="M11.2,13.7c1.8-1.2,3-3.1,3.3-5.2c0-0.1,0-0.2-0.1-0.3c-0.1-0.1-0.1-0.1-0.2-0.1c-0.2,0-0.4,0.1-0.4,0.3
		c-0.3,1.9-1.4,3.7-3,4.7c-0.2,0.1-0.2,0.3-0.1,0.5c0.1,0.1,0.2,0.2,0.3,0.2C11.1,13.7,11.2,13.7,11.2,13.7z"/>
	<path class="st0" d="M7.8,14.9L7.8,14.9c0.6-0.1,1.2-0.2,1.7-0.4c0.1,0,0.2-0.1,0.2-0.2c0-0.1,0-0.2,0-0.3c0-0.1-0.1-0.2-0.2-0.2
		c-0.1,0-0.2,0-0.3,0c-0.5,0.2-1,0.3-1.5,0.3c-0.2,0-0.3,0.2-0.3,0.4C7.5,14.8,7.6,14.9,7.8,14.9z"/>
	<path class="st0" d="M6.7,7.4C6.8,7.4,6.8,7.4,6.7,7.4c0.2,0,0.2,0,0.3-0.1C7,7.2,7,7,6.9,7c-0.4-0.2-0.7-0.4-1-0.6
		c-0.1-0.1-0.2,0-0.3,0.1c-0.1,0.1,0,0.2,0.1,0.3C6,7,6.4,7.2,6.7,7.4z"/>
	<path class="st0" d="M7.3,16.3c4.8,0,8.7-3.9,8.7-8.7c0-0.1,0-0.1,0-0.2c0.4-0.3,1.2-1,1.4-1.5c0.1-0.1,0-0.3-0.1-0.4
		S17.1,5.4,17,5.5c-0.1,0-0.2,0.1-0.4,0.1C16.9,5.3,17,5,17.1,4.7c0-0.1,0-0.3-0.1-0.3c-0.1-0.1-0.2-0.1-0.4,0
		c-0.1,0-0.6,0.3-1.4,0.6c-0.1,0-0.1,0-0.2,0.1c-0.6-0.6-1.4-0.9-2.2-0.9c-1.8,0-3.3,1.5-3.3,3.3c0,0.1,0,0.2,0,0.3
		c-0.3,0-0.7-0.1-1.1-0.2C8.2,7.3,8,7.4,7.9,7.6C7.9,7.8,8,8,8.2,8c0.9,0.3,1.6,0.3,1.7,0.3c0,0,0,0,0,0c0.1,0,0.2,0,0.3-0.1
		c0.1-0.1,0.1-0.2,0.1-0.3c0-0.2-0.1-0.4-0.1-0.6c0-1.4,1.2-2.6,2.6-2.6c0.7,0,1.4,0.3,1.9,0.8c0.1,0.1,0.2,0.1,0.3,0.1
		c0.1,0,0.3-0.1,0.4-0.1c0.2-0.1,0.4-0.1,0.5-0.2c-0.3,0.3-0.6,0.6-0.7,0.6c-0.1,0.1-0.2,0.2-0.2,0.4c0,0.2,0.2,0.3,0.3,0.3l0,0
		c0.2,0,0.4-0.1,0.6-0.1c-0.2,0.2-0.5,0.4-0.6,0.5c-0.1,0.1-0.1,0.2-0.1,0.3c0,0.1,0,0.2,0,0.3c0,4.4-3.6,8-8,8c-1,0-2-0.2-3-0.6
		c1.8-0.2,3-1.3,3.1-1.3c0.1-0.1,0.1-0.2,0.1-0.4c0-0.1-0.2-0.2-0.3-0.2C5.9,13,5.3,12.3,5,11.8c0.5,0,0.8-0.1,0.9-0.1
		c0.1-0.1,0.2-0.2,0.2-0.3C6.1,11.2,6,11,5.9,11c-1.5-0.3-1.9-1.3-2-2c0.5,0.2,0.9,0.2,0.9,0.2C4.9,9.2,5,9.1,5.1,9
		c0.1-0.1,0-0.3-0.1-0.4c-1.4-1.2-1.2-2.4-1-3C4.1,5.7,4.3,5.8,4.4,6C4.5,6,4.5,6.1,4.6,6.1c0,0,0,0,0,0c0.1,0,0.2,0,0.2-0.1
		C5,5.8,5,5.6,4.9,5.5C4.6,5.2,4.4,5,4.2,4.7C4.1,4.7,4,4.6,3.9,4.6c0,0,0,0,0,0c-0.1,0-0.2,0.1-0.3,0.1c0,0.1-0.4,0.6-0.5,1.4
		c-0.1,0.5,0,1.3,0.6,2.1c0,0,0,0-0.1,0c-0.1-0.1-0.2-0.1-0.3,0C3.2,8.2,3.2,8.3,3.1,8.4c0,0-0.1,0.7,0.2,1.4c0.2,0.4,0.4,0.9,1,1.3
		c0,0-0.1,0-0.1,0.1c-0.1,0.1-0.1,0.2-0.1,0.3c0,0,0.1,0.5,0.6,1.1c0.3,0.4,0.8,0.8,1.6,1.1C5.6,14,4.4,14.5,3,14.3
		c-0.2,0-0.4,0.1-0.4,0.3c0,0.1,0,0.3,0.2,0.4C4.1,15.8,5.7,16.3,7.3,16.3z"/>
</g>
</svg>
