<?xml version="1.0" encoding="utf-8"?>
<!-- Generator: Adobe Illustrator 21.0.0, SVG Export Plug-In . SVG Version: 6.00 Build 0)  -->
<svg version="1.1" id="Layer_1" xmlns="http://www.w3.org/2000/svg" xmlns:xlink="http://www.w3.org/1999/xlink" x="0px" y="0px"
	 viewBox="0 0 20 20" style="enable-background:new 0 0 20 20;" xml:space="preserve">
<style type="text/css">
	.st0{fill:#B6202F;}
</style>
<g>
	<path class="st0" d="M19.7,0H0.3C0.2,0,0,0.2,0,0.3v19.3C0,19.8,0.2,20,0.3,20h19.3c0.2,0,0.3-0.2,0.3-0.3V0.3
		C20,0.2,19.8,0,19.7,0z M19.3,0.7v18.6H0.7V0.7H19.3z"/>
	<path class="st0" d="M2.2,8.4l0.1-0.1l0,0v0l0,0L2.2,8.4L2.2,8.4c0.9,1.8,1.7,3.1,2.6,4.2c0.7,0.9,1.5,1.6,2.4,2.1
		c1,0.5,2.2,0.8,3.6,0.7c0.6,0,1-0.4,1-0.9c0-0.1,0.1-0.9,0.2-1.1c0-0.1,0.1-0.1,0.1-0.1c0,0,0.1,0,0.2,0.1c0.1,0.1,0.2,0.2,0.3,0.3
		c0.1,0.1,0.3,0.3,0.4,0.4c0.2,0.2,0.5,0.5,0.8,0.8c0.4,0.4,0.9,0.6,1.5,0.6c0,0,0,0,0.1,0l0.1,0c0.5,0,1,0,1.5,0c0.4,0,0.7,0,0.8,0
		c0.4-0.1,0.7-0.3,0.9-0.6c0.1-0.3,0.1-0.7-0.1-1c-0.3-0.4-0.6-0.8-0.9-1.2c-0.3-0.3-0.6-0.6-0.9-0.9c-0.2-0.2-0.4-0.4-0.6-0.6
		c-0.2-0.2-0.2-0.2-0.1-0.5c0.1-0.1,0.1-0.2,0.2-0.3c0.1-0.1,0.1-0.2,0.1-0.3c0-0.1-0.1-0.2-0.1-0.2c-0.1-0.1-0.2-0.1-0.3-0.1
		c-0.1,0-0.2,0.1-0.2,0.1c-0.1,0.1-0.1,0.2-0.2,0.3c-0.3,0.5-0.2,0.9,0.2,1.3c0.2,0.2,0.4,0.4,0.6,0.6c0.3,0.3,0.6,0.5,0.8,0.8
		c0.3,0.4,0.6,0.7,0.9,1.1c0.1,0.2,0.1,0.3,0.1,0.4c0,0.1-0.2,0.2-0.3,0.2c-0.2,0-0.9,0-2.2,0l-0.2,0c-0.4,0-0.8-0.1-1.1-0.4
		c-0.2-0.2-0.5-0.5-0.7-0.8c-0.1-0.1-0.3-0.3-0.4-0.4c-0.1-0.2-0.3-0.3-0.4-0.4c-0.2-0.2-0.5-0.3-0.8-0.2c-0.2,0-0.4,0.2-0.5,0.5
		c-0.1,0.4-0.3,1.3-0.3,1.3c0,0.1-0.1,0.3-0.4,0.3c-1.3,0.1-2.3-0.1-3.3-0.6c-0.8-0.4-1.5-1-2.2-1.9c-0.9-1.1-1.6-2.3-2.5-4.1
		c0-0.1-0.7-1.5-0.8-1.7c0-0.1,0-0.1,0-0.1c0.4,0,2.2,0,2.5,0c0.3,0,0.4,0.1,0.5,0.4C5.5,7.9,6.2,9,6.9,9.9c0.1,0.1,0.3,0.3,0.4,0.4
		c0.2,0.1,0.4,0.2,0.6,0.1c0.2-0.1,0.3-0.2,0.4-0.4c0.1-0.3,0.2-0.8,0.2-1.1c0-0.7,0-1.1,0-1.8c0-0.6-0.3-1-0.8-1.1
		C7.8,6,8,5.9,8.3,5.9c0.5,0,0.9,0,1.4,0l0.5,0c0.3,0,0.5,0,0.7,0.1c0.2,0,0.3,0.1,0.3,0.3c0,0.2,0,0.3,0,0.4c0,0.3,0,0.6,0,0.9
		c0,0.4,0,0.8,0,1.3c0,0.3,0,0.6,0.1,0.9c0.1,0.4,0.3,0.6,0.5,0.6c0.1,0,0.4,0.1,0.7-0.2c0.3-0.3,0.6-0.7,0.9-1.2
		c0.5-0.7,0.9-1.4,1.2-2.4c0.1-0.3,0.1-0.3,0.4-0.3c1,0,1.8,0,2.6,0c0.1,0,0.3,0,0.4,0c0,0,0.1,0,0,0.1c0,0.2,0.1,0.4,0.3,0.4
		c0.1,0,0.2,0,0.3,0c0.1,0,0.1-0.1,0.2-0.2c0.1-0.4-0.1-0.8-0.5-0.9c-0.2-0.1-0.3-0.1-0.6-0.1c-0.8,0-1.6,0-2.6,0
		c-0.6,0-0.8,0.2-1.1,0.7c-0.4,0.9-0.7,1.7-1.2,2.3c-0.3,0.5-0.6,0.8-0.9,1.1c0,0,0,0,0,0c0,0,0,0,0,0c0-0.2-0.1-0.5-0.1-0.8
		c0-0.4,0-0.8,0-1.3l0,0c0-0.3,0-0.6,0-0.8c0-0.2,0-0.4,0-0.6c-0.1-0.5-0.4-0.8-0.8-0.9c-0.3-0.1-0.5-0.1-0.8-0.1l-0.5,0
		c-0.5,0-0.9,0-1.4,0c-0.3,0-0.9,0-1.2,0.5C6.8,5.9,6.8,6.1,6.9,6.3c0,0.1,0.1,0.3,0.4,0.3c0.4,0.1,0.5,0.3,0.5,0.6
		c0,0.6,0,1.1,0,1.7c0,0.2-0.1,0.6-0.1,0.8C7.6,9.7,7.5,9.6,7.4,9.5C6.7,8.6,6.2,7.6,5.7,6.4C5.5,5.9,5.1,5.6,4.6,5.6
		c0,0-2.5-0.1-2.7,0c-0.4,0.1-0.5,0.5-0.4,1C1.4,6.7,1.7,7.3,2.2,8.4z"/>
	<path class="st0" d="M17.2,7.4c-0.1,0.2-0.3,0.4-0.5,0.7c-0.1,0.1-0.1,0.2-0.1,0.3c0,0.1,0.1,0.2,0.1,0.2c0.1,0,0.1,0.1,0.2,0.1
		c0,0,0,0,0,0c0.1,0,0.2-0.1,0.3-0.2c0.2-0.3,0.3-0.5,0.5-0.7c0-0.1,0.1-0.2,0-0.3c0-0.1-0.1-0.2-0.1-0.2
		C17.5,7.2,17.3,7.3,17.2,7.4z M17.6,7.4L17.6,7.4L17.6,7.4L17.6,7.4z"/>
</g>
</svg>
