<?xml version="1.0" encoding="utf-8"?>
<!-- Generator: Adobe Illustrator 21.0.0, SVG Export Plug-In . SVG Version: 6.00 Build 0)  -->
<svg version="1.1" id="Layer_1" xmlns="http://www.w3.org/2000/svg" xmlns:xlink="http://www.w3.org/1999/xlink" x="0px" y="0px"
	 viewBox="0 0 64 64" style="enable-background:new 0 0 64 64;" xml:space="preserve">
<style type="text/css">
	.st0{fill:#B6202F;}
</style>
<g>
	<path class="st0" d="M32,1.5h0.2V0H32C14.4,0,0,14.4,0,32s14.4,32,32,32h0.2v-1.5H32C15.2,62.5,1.5,48.8,1.5,32S15.2,1.5,32,1.5z"
		/>
	<g>
		<path class="st0" d="M39.4,44.5H28.9c-0.4,0-0.7,0.3-0.7,0.7s0.3,0.7,0.7,0.7h10.5c0.4,0,0.7-0.3,0.7-0.7S39.8,44.5,39.4,44.5z"/>
		<path class="st0" d="M49.8,15.8H18.5c-1,0-1.9,0.8-1.9,1.9v3.9c0,0.4,0.3,0.7,0.7,0.7h0.1c0.4,0,0.7-0.3,0.7-0.7v-3.9
			c0-0.2,0.2-0.4,0.4-0.4h31.3c0.2,0,0.4,0.2,0.4,0.4v1.2V20v6.1v3.3v11.3c0,0.2-0.2,0.4-0.4,0.4H29.1c-0.4,0-0.7,0.3-0.7,0.7
			c0,0.4,0.3,0.7,0.7,0.7h20.7c1,0,1.8-0.8,1.8-1.8V29.4v-3.3V20v-1.1v-1.2C51.6,16.6,50.8,15.8,49.8,15.8z"/>
		<path class="st0" d="M26.9,25.8C26.9,25.8,26.9,25.8,26.9,25.8c0-1.2-0.9-2.1-2.1-2.1H14.5c-1.2,0-2.1,0.9-2.1,2.1v16.3
			c0,1,0.8,1.8,1.8,1.8h9.5c0.4,0,0.7-0.3,0.7-0.7s-0.3-0.7-0.7-0.7h-9.5c-0.2,0-0.3-0.1-0.3-0.3V25.7c0-0.4,0.3-0.6,0.6-0.6h10.3
			c0.4,0,0.6,0.3,0.6,0.6c0,0.1,0,0.1,0,0.2v5.8c0,0.1,0,0.1,0,0.2v14.3c0,0.4-0.3,0.6-0.6,0.6H14.5c-0.4,0-0.6-0.3-0.6-0.6
			c0-0.4-0.3-0.7-0.7-0.7s-0.7,0.3-0.7,0.7c0,1.2,0.9,2.1,2.1,2.1h10.3c1.2,0,2.1-0.9,2.1-2.1v-9.7v-4.5L26.9,25.8
			C26.9,25.8,26.9,25.8,26.9,25.8z"/>
		<path class="st0" d="M21.3,26.3h-3c-0.3,0-0.6,0.3-0.6,0.6s0.3,0.6,0.6,0.6h3c0.3,0,0.6-0.3,0.6-0.6S21.6,26.3,21.3,26.3z"/>
		<circle class="st0" cx="34.1" cy="39" r="0.7"/>
		<circle class="st0" cx="19.8" cy="45.2" r="0.7"/>
	</g>
</g>
</svg>
